<svg width="42" height="42" viewBox="0 0 42 42" fill="none" xmlns="http://www.w3.org/2000/svg">
<g clip-path="url(#clip0_2_3018)">
<path d="M15.3805 8.54469C15.3805 5.71809 13.0802 3.41785 10.2536 3.41785C7.42702 3.41785 5.12677 5.71809 5.12677 8.54469V24.185C3.50669 25.6376 2.56335 27.7139 2.56335 29.9065C2.56335 34.1481 6.01372 37.5968 10.2536 37.5968C14.4935 37.5968 17.9439 34.1481 17.9439 29.9065C17.9439 27.7157 17.0005 25.6359 15.3805 24.185V8.54469ZM10.2536 34.1789C7.89869 34.1789 5.98125 32.2632 5.98125 29.9065C5.98125 28.5189 6.66654 27.2115 7.81495 26.4066L8.54467 25.8956V8.54469C8.54467 7.60306 9.31199 6.83574 10.2536 6.83574C11.1952 6.83574 11.9626 7.60306 11.9626 8.54469V25.8973L12.6923 26.4083C13.8407 27.2098 14.526 28.5189 14.526 29.9065C14.526 32.2632 12.6085 34.1789 10.2536 34.1789Z" fill="#D3EBF4"/>
<path d="M12.5657 29.9609C12.5657 31.2379 11.5305 32.273 10.2536 32.273C8.97668 32.273 7.94153 31.2379 7.94153 29.9609C7.94153 28.684 8.97668 27.6489 10.2536 27.6489C11.5305 27.6489 12.5657 28.684 12.5657 29.9609Z" fill="#D3EBF4"/>
</g>
<defs>
<clipPath id="clip0_2_3018">
<rect width="41.0147" height="41.0147" fill="white"/>
</clipPath>
</defs>
</svg>
