<svg width="40" height="41" viewBox="0 0 40 41" fill="none" xmlns="http://www.w3.org/2000/svg">
<path d="M38.9424 19.4726C36.9011 11.3114 29.9888 5.44243 21.7683 4.62236V0.561523H17.8162V4.62236C9.59568 5.44243 2.68337 11.3114 0.642085 19.4726C0.45831 20.2077 0.711247 20.9862 1.29617 21.4704C1.88108 21.9545 2.6893 22.0632 3.38092 21.751C8.03261 19.6306 13.4629 19.9666 17.8102 22.4762V35.1428C17.8102 37.8678 20.0274 40.083 22.7504 40.083C25.4734 40.083 27.6906 37.8678 27.6906 35.1428V34.1548H23.7384V35.1428C23.7384 35.6882 23.2958 36.1309 22.7504 36.1309C22.205 36.1309 21.7624 35.6882 21.7624 35.1428V22.4861C26.1117 19.9686 31.5518 19.6267 36.2075 21.751C36.8971 22.0652 37.7073 21.9565 38.2922 21.4704C38.8772 20.9843 39.1261 20.2077 38.9424 19.4726ZM19.7922 19.0181C16.7945 17.2831 13.4056 16.3701 9.91185 16.3701C8.54836 16.3701 7.20068 16.5104 5.88066 16.7891C8.58195 11.7481 13.866 8.46582 19.7922 8.46582C25.7185 8.46582 31.0025 11.7481 33.7038 16.7891C29.0067 15.799 23.9598 16.6053 19.7922 19.0181Z" fill="#D3EBF4"/>
</svg>
