<svg width="347" height="218" viewBox="0 0 347 218" fill="none" xmlns="http://www.w3.org/2000/svg">
<g style="mix-blend-mode:multiply">
<path opacity="0.047619" d="M326.386 174.599C349.538 155.788 345.197 95.0118 333.621 77.6473C317.703 55.9416 301.786 42.9181 287.315 35.6829C272.845 28.4477 233.775 22.6595 214.963 22.6595C188.916 22.6595 164.316 28.4477 144.058 34.2358C120.905 40.024 77.4935 55.9416 57.2348 79.0943C34.0821 105.141 54.3407 157.235 60.1289 165.917C71.7053 180.388 84.7287 194.858 103.54 203.54C120.905 212.223 135.375 210.776 148.399 212.223C158.528 213.67 200.493 218.011 225.092 213.67C242.457 209.329 272.845 203.54 281.527 199.199C287.315 194.858 307.574 190.517 326.386 174.599Z" fill="#F9FBFB"/>
<path opacity="0.095238" d="M322.044 171.705C345.197 152.894 340.856 95.0118 329.279 77.6472C313.362 55.9415 297.444 44.3651 282.974 37.1299C268.503 29.8947 232.327 24.1065 213.515 24.1065C188.916 24.1065 162.869 29.8947 142.61 35.6828C120.904 41.471 77.4929 57.3886 58.6813 79.0943C35.5286 103.694 54.3402 155.788 61.5754 164.47C73.1518 178.941 84.7282 193.411 103.54 200.646C120.904 207.882 135.375 207.882 146.951 207.882C157.081 209.329 196.151 215.117 222.198 209.329C241.009 204.987 268.503 199.199 277.185 194.858C284.421 191.964 303.232 187.623 322.044 171.705Z" fill="#F4F6F8"/>
<path opacity="0.1429" d="M319.15 170.258C342.303 151.447 337.962 96.4589 326.385 79.0943C311.915 57.3886 294.55 45.8122 280.08 38.577C267.057 31.3418 230.88 25.5536 213.516 25.5536C188.916 25.5536 164.316 29.8947 144.057 35.6829C122.352 41.4711 78.9403 58.8357 60.1287 79.0943C38.423 103.694 55.7876 152.894 63.0228 161.576C73.1522 176.047 86.1756 189.07 103.54 197.752C119.458 204.987 133.928 203.54 145.505 204.987C154.187 206.435 193.257 212.223 219.304 207.882C238.116 203.54 264.162 197.752 272.845 193.411C280.08 189.07 300.339 184.729 319.15 170.258Z" fill="#EEF2F4"/>
<path opacity="0.1905" d="M314.809 168.811C336.514 151.447 333.62 97.9059 322.044 80.5414C307.574 58.8356 291.656 48.7063 277.186 41.4711C264.162 34.2358 230.88 28.4476 212.068 28.4476C188.916 25.5536 164.316 31.3417 144.057 37.1299C122.351 42.9181 78.94 58.8356 61.5754 79.0943C39.8697 102.247 55.7873 150 64.4695 160.129C74.5989 173.152 86.1752 187.623 103.54 194.858C119.457 202.093 133.928 200.646 145.504 202.093C154.186 203.54 191.81 210.776 217.857 204.987C236.668 202.093 262.715 193.411 269.95 190.517C277.186 186.176 295.997 183.282 314.809 168.811Z" fill="#E9EDF1"/>
<path opacity="0.2381" d="M310.468 165.917C332.174 148.553 329.279 96.4589 319.15 79.0943C304.68 57.3886 288.762 47.2593 274.292 40.024C261.268 34.2358 229.433 27.0006 212.069 27.0006C188.916 27.0006 164.316 32.7888 144.057 37.1299C122.352 44.3652 80.3873 60.2827 63.0227 79.0943C42.764 100.8 57.2345 148.553 65.9168 157.235C76.0461 170.258 86.1755 183.282 104.987 191.964C120.905 199.199 135.375 196.305 145.504 197.752C154.187 199.199 190.363 206.434 216.41 202.093C235.221 199.199 259.821 190.517 267.056 186.176C274.292 183.282 293.103 180.388 310.468 165.917Z" fill="#E3E9ED"/>
<path opacity="0.2857" d="M307.574 164.47C329.28 148.553 326.386 97.9059 316.257 80.5414C301.786 58.8356 285.869 50.1534 272.845 42.9181C259.822 37.1299 229.434 29.8947 212.069 29.8947C188.916 28.4476 164.317 32.7888 144.058 38.577C122.352 44.3652 81.8348 60.2827 64.4703 79.0943C44.2116 100.8 58.6821 145.658 67.3644 155.788C77.4937 167.364 86.176 181.835 104.988 189.07C120.905 196.305 133.929 193.411 145.505 194.858C154.187 196.305 188.916 203.54 213.516 199.199C232.328 196.305 255.481 187.623 262.716 183.282C269.951 180.388 288.763 177.494 307.574 164.47Z" fill="#DEE5EA"/>
<path opacity="0.3333" d="M303.233 161.576C324.939 145.658 322.044 97.9059 311.915 80.5414C297.445 58.8356 281.527 50.1534 268.504 44.3652C255.48 38.577 227.986 31.3417 210.622 31.3417C188.916 28.4476 164.316 34.2358 144.058 40.024C122.352 45.8122 81.8345 61.7297 65.917 79.0943C47.1054 99.353 58.6818 142.764 68.8111 154.341C77.4934 165.917 87.6227 178.941 104.987 186.176C120.905 191.964 133.928 190.517 144.058 191.964C152.74 193.411 186.022 202.093 210.622 197.752C229.433 194.858 252.586 184.729 258.374 181.835C267.057 177.494 285.868 174.599 303.233 161.576Z" fill="#D8E0E6"/>
<path opacity="0.381" d="M298.892 160.129C320.597 145.659 317.703 99.353 307.574 81.9884C294.55 60.2827 278.633 53.0475 264.163 45.8122C252.586 40.0241 225.092 34.2359 209.175 32.7888C188.916 29.8947 164.316 34.2359 144.058 40.0241C123.799 45.8122 83.2816 63.1768 67.364 79.0943C49.9995 97.906 60.1288 139.87 68.8111 151.447C77.4934 163.023 86.1756 176.047 103.54 183.282C119.458 189.07 132.481 186.176 142.611 187.623C151.293 189.07 183.128 197.752 207.728 193.411C226.539 190.517 248.245 180.388 255.48 177.494C264.162 173.152 281.527 173.152 298.892 160.129Z" fill="#D3DCE3"/>
<path opacity="0.4286" d="M295.997 158.682C316.256 144.211 314.809 100.8 304.679 81.9884C291.656 60.2827 275.738 53.0475 262.715 47.2593C251.139 41.4711 226.539 35.6829 209.174 34.2358C188.916 31.3417 164.316 35.6829 145.504 41.4711C123.798 47.2593 83.2811 63.1768 68.8106 79.0943C51.4461 97.9059 61.5754 138.423 70.2577 150C78.94 160.129 86.1752 174.599 104.987 180.388C120.904 186.176 133.928 183.282 142.61 184.729C151.292 186.176 180.233 196.305 206.28 191.964C225.092 189.07 245.35 178.941 252.586 174.599C259.821 170.258 278.632 170.258 295.997 158.682Z" fill="#CDD8DF"/>
<path opacity="0.4762" d="M291.657 155.788C311.915 141.317 310.468 100.8 300.339 81.9884C287.316 60.2827 271.398 53.0475 258.375 47.2593C246.798 41.4711 223.645 35.6829 207.728 34.2359C188.916 32.7888 164.316 35.6829 144.058 41.4711C123.799 47.2593 84.7289 64.6239 70.2584 79.0943C54.3409 96.4589 61.5761 135.529 71.7054 147.106C80.3877 157.235 86.1759 170.258 104.988 177.494C120.905 183.282 132.481 180.388 142.611 181.835C151.293 183.282 178.787 193.411 204.834 189.07C223.645 186.176 242.457 174.599 249.692 171.705C256.928 167.364 274.292 167.364 291.657 155.788Z" fill="#C8D3DC"/>
<path opacity="0.5238" d="M287.315 154.341C307.574 141.317 306.127 102.247 295.998 83.4355C282.974 60.2827 267.057 55.9416 255.48 50.1534C243.904 44.3652 223.645 38.577 207.728 37.1299C188.916 35.6829 164.316 38.577 145.505 44.3652C123.799 50.1534 86.1756 67.5179 73.1522 80.5414C57.2347 95.0118 63.0228 132.635 73.1522 145.659C80.3874 155.788 86.1756 168.811 104.987 174.599C119.458 180.388 132.481 176.046 141.163 177.494C149.846 178.941 175.893 190.517 201.939 186.176C220.751 183.282 239.563 171.705 245.351 168.811C252.586 164.47 269.951 165.917 287.315 154.341Z" fill="#C2CFD8"/>
<path opacity="0.5714" d="M284.421 151.447C304.68 138.423 303.233 100.8 293.104 81.9884C280.08 58.8357 265.61 54.4945 252.586 48.7063C242.457 44.3652 222.198 37.13 206.281 35.6829C188.916 34.2359 164.316 38.577 145.505 42.9181C123.799 50.1534 86.1758 66.0709 73.1524 79.0943C58.6819 93.5648 64.4701 131.188 74.5994 144.211C81.8347 152.894 87.6229 165.917 104.987 173.152C119.458 177.494 132.481 174.599 139.717 176.047C148.399 177.494 172.999 189.07 199.046 184.729C217.857 181.835 235.222 170.258 241.01 167.364C249.692 161.576 267.057 163.023 284.421 151.447Z" fill="#BDCAD5"/>
<path opacity="0.619" d="M280.08 150C300.339 138.423 300.339 102.247 290.21 83.4354C278.633 60.2827 262.716 57.3886 249.692 51.6004C239.563 47.2592 222.198 40.024 206.281 38.577C188.916 35.6829 164.316 38.577 145.505 44.3651C125.246 50.1533 86.1759 67.5179 74.5995 79.0943C61.5761 93.5648 64.4702 128.294 76.0466 141.317C83.2818 150 87.623 163.023 106.435 168.811C120.905 173.152 132.481 168.811 141.164 171.705C149.846 173.152 172.999 186.176 199.046 181.835C217.857 178.941 233.775 167.364 239.563 163.023C246.798 158.682 262.716 160.129 280.08 150Z" fill="#B7C6D1"/>
<path opacity="0.6667" d="M277.186 148.553C295.998 136.976 295.998 103.694 285.868 84.8825C274.292 61.7298 258.374 58.8357 246.798 53.0475C236.669 48.7063 220.751 41.4711 204.834 40.024C187.469 37.1299 164.316 40.024 145.505 45.8122C125.246 51.6004 87.6227 67.5179 77.4934 79.0943C64.47 92.1177 65.917 125.4 77.4934 139.87C84.7286 148.553 87.6227 160.129 106.434 165.917C120.905 170.258 132.481 165.917 139.716 167.364C146.952 168.811 170.104 181.835 194.704 177.494C214.963 174.599 229.433 161.576 233.775 158.682C242.457 155.788 259.821 158.682 277.186 148.553Z" fill="#B2C2CE"/>
<path opacity="0.7143" d="M272.844 145.658C291.656 135.529 291.656 103.694 282.974 84.8825C271.397 61.7297 256.927 60.2827 243.903 54.4945C233.774 50.1533 220.751 44.3652 204.833 41.4711C188.915 38.577 164.316 41.4711 146.951 47.2593C126.692 53.0474 89.0692 70.412 78.9399 80.5413C67.3635 92.1177 67.3635 125.4 80.3869 138.423C86.1751 145.658 87.6222 157.235 106.434 163.023C120.904 167.364 132.481 163.023 139.716 164.47C146.951 165.917 168.657 180.388 193.257 176.047C213.515 173.152 226.539 160.129 230.88 157.235C239.562 152.894 255.48 155.788 272.844 145.658Z" fill="#ACBDCA"/>
<path opacity="0.7619" d="M268.504 144.211C287.315 134.082 287.315 105.141 278.633 84.8825C267.057 61.7297 252.586 60.2827 239.563 55.9415C230.88 51.6004 217.857 44.3652 203.386 41.4711C187.469 38.577 164.316 41.4711 145.505 45.8122C125.246 53.0474 89.0696 68.965 80.3874 79.0943C68.811 89.2236 68.811 121.059 80.3874 135.529C86.1756 142.764 87.6226 155.788 106.434 160.129C120.905 164.47 132.481 158.682 138.269 161.576C145.505 164.47 165.763 177.494 190.363 173.152C210.622 170.258 222.198 157.235 227.986 154.341C235.221 150 252.586 152.894 268.504 144.211Z" fill="#A7B9C7"/>
<path opacity="0.8095" d="M265.61 141.317C282.974 131.188 284.421 105.141 275.739 84.8825C264.163 61.7297 249.692 61.7297 238.116 55.9415C229.433 51.6004 219.304 45.8122 203.387 42.9181C188.916 40.024 164.316 41.4711 146.952 47.2593C126.693 53.0474 90.5169 70.412 81.8346 79.0943C71.7052 89.2236 70.2582 118.165 81.8346 134.082C87.6228 141.317 89.0698 152.894 106.434 158.682C120.905 163.023 131.034 157.235 138.269 158.682C145.505 160.129 164.316 174.599 188.916 170.258C209.175 167.364 220.751 152.894 225.092 151.447C232.328 147.106 248.245 150 265.61 141.317Z" fill="#A1B5C3"/>
<path opacity="0.8571" d="M261.269 139.87C278.633 131.188 280.08 106.588 271.398 86.3295C261.269 63.1768 245.351 63.1768 233.775 58.8356C225.092 54.4945 216.41 48.7063 201.94 45.8122C187.469 42.9181 164.316 44.3652 146.952 50.1534C126.693 54.4945 90.5169 70.412 83.2817 79.0943C73.1523 87.7766 70.2582 115.27 83.2817 131.188C89.0699 136.976 89.0699 150 107.881 154.341C120.905 157.235 132.481 152.894 138.269 154.341C145.505 157.235 161.422 171.705 187.469 167.364C207.728 164.47 217.857 150 222.198 147.106C229.433 144.211 243.904 148.553 261.269 139.87Z" fill="#9CB0C0"/>
<path opacity="0.9048" d="M256.927 136.976C274.292 128.294 275.739 105.141 267.057 86.3296C256.927 63.1768 242.457 64.6238 230.88 58.8357C222.198 54.4945 214.963 48.7063 200.492 45.8122C187.469 42.9181 162.869 44.3652 145.505 48.7063C125.246 54.4945 90.5169 71.8591 83.2816 77.6473C74.5993 86.3296 70.2582 112.376 83.2816 128.294C87.6228 134.082 87.6228 145.658 106.434 151.447C119.458 154.341 131.034 148.553 136.822 151.447C144.058 154.341 158.528 168.811 184.575 165.917C204.834 163.023 213.516 148.553 217.857 145.659C225.092 141.317 241.01 145.659 256.927 136.976Z" fill="#96ACBC"/>
<path opacity="0.9524" d="M254.033 135.529C271.398 128.294 272.845 106.588 264.163 86.3296C254.033 63.1768 239.563 64.6238 227.986 60.2827C219.304 55.9416 214.963 50.1534 200.493 47.2593C187.469 44.3652 164.316 44.3652 146.952 50.1534C126.693 55.9416 91.964 73.3061 86.1758 79.0943C78.9406 86.3296 71.7053 110.929 86.1758 126.847C90.517 132.635 89.0699 144.211 107.882 148.553C120.905 151.447 131.034 145.659 136.822 147.106C144.058 150 157.081 165.917 183.128 161.576C203.387 158.682 210.622 142.764 214.963 141.317C222.198 138.423 236.669 142.764 254.033 135.529Z" fill="#91A7B9"/>
<path d="M249.692 134.082C265.609 126.847 268.503 108.035 259.821 87.7766C249.692 64.6238 235.221 67.5179 223.645 61.7297C214.963 58.8356 212.069 53.0474 199.045 48.7063C187.469 45.8122 162.869 45.8122 146.951 51.6004C126.693 57.3886 93.4107 73.3061 87.6225 79.0943C80.3872 84.8825 73.152 108.035 87.6225 125.4C91.9636 129.741 89.0695 141.317 107.881 145.658C120.905 148.553 131.034 142.764 135.375 144.211C142.61 147.106 154.187 163.023 178.786 160.129C199.045 157.235 206.28 141.317 209.174 139.87C217.857 135.529 233.774 141.317 249.692 134.082Z" fill="#8BA3B5"/>
</g>
<path d="M227.986 55.9416C226.539 55.9416 226.539 55.9416 225.092 55.9416C220.751 42.9182 207.727 32.7888 193.257 32.7888C188.916 32.7888 184.575 34.2359 180.234 35.6829C175.892 22.6595 162.869 13.9772 148.398 13.9772C133.928 13.9772 122.352 22.6595 118.011 35.6829C116.563 35.6829 115.116 35.6829 112.222 35.6829C96.3048 35.6829 84.7284 47.2593 83.2814 61.7298C81.8343 61.7298 78.9402 61.7298 76.0461 61.7298C57.2345 61.7298 42.764 76.2003 42.764 95.0119C42.764 113.824 57.2345 128.294 76.0461 128.294C76.0461 128.294 76.0461 128.294 77.4932 128.294C80.3873 141.317 93.4107 151.447 107.881 151.447C119.458 151.447 128.14 145.659 133.928 136.976C141.163 150 154.187 157.235 170.104 157.235C187.469 157.235 201.939 147.106 209.174 132.635C214.963 135.529 222.198 138.423 229.433 138.423C251.139 138.423 269.95 121.059 269.95 97.906C269.95 74.7532 249.692 55.9416 227.986 55.9416Z" fill="white"/>
<path d="M229.433 57.3886C227.986 57.3886 227.986 57.3886 226.539 57.3886C222.198 44.3652 209.174 34.2358 194.704 34.2358C190.363 34.2358 186.021 35.6829 181.68 37.1299C177.339 24.1065 164.316 15.4242 149.845 15.4242C135.375 15.4242 123.798 24.1065 119.457 37.1299C118.01 37.1299 116.563 37.1299 113.669 37.1299C97.7515 37.1299 86.1751 48.7063 84.7281 63.1768C83.281 63.1768 80.3869 63.1768 77.4928 63.1768C60.1283 61.7297 44.2108 76.2002 44.2108 95.0118C44.2108 113.823 58.6812 128.294 77.4928 128.294C77.4928 128.294 77.4928 128.294 78.9399 128.294C81.834 141.317 94.8574 151.447 109.328 151.447C120.904 151.447 129.587 145.658 135.375 136.976C142.61 150 155.633 157.235 171.551 157.235C188.916 157.235 203.386 147.106 210.621 132.635C216.409 135.529 223.645 138.423 230.88 138.423C252.586 138.423 271.397 121.059 271.397 97.9059C268.503 76.2002 251.139 57.3886 229.433 57.3886Z" fill="#E9F2F5"/>
<g style="mix-blend-mode:multiply">
<path opacity="0.047619" d="M213.515 115.27C226.538 96.4589 220.75 60.2827 212.068 47.2592C200.491 29.8947 180.233 28.4476 170.103 22.6594C158.527 16.8712 138.268 2.40077 123.798 2.40077C103.539 2.40077 93.4098 9.63601 77.4923 13.9772C60.1277 18.3183 31.1868 44.3651 15.2692 61.7297C-3.54237 81.9884 0.798768 112.376 5.13991 119.612C15.2692 131.188 25.3986 141.317 39.8691 148.553C52.8925 154.341 64.4689 154.341 74.5982 154.341C81.8334 154.341 90.5157 158.682 110.774 154.341C125.245 151.447 131.033 150 138.268 148.553C151.292 144.211 197.597 138.423 213.515 115.27Z" fill="#F9FBFB"/>
<path opacity="0.095238" d="M210.621 113.823C223.644 95.0119 217.856 60.2827 209.174 47.2593C197.598 29.8947 178.786 28.4477 167.21 22.6595C157.08 16.8713 136.822 2.40081 122.351 0.953766C103.54 0.953766 91.9631 8.189 76.0456 11.0831C60.1281 18.3183 31.1871 45.8122 16.7167 61.7298C-0.647902 81.9884 0.799146 110.929 6.58734 118.165C15.2696 128.294 25.399 139.87 39.8694 145.659C52.8929 151.447 64.4692 150 73.1515 151.447C80.3868 151.447 89.0691 155.788 109.328 152.894C123.798 150 129.586 148.553 136.822 147.106C151.292 141.317 194.704 136.976 210.621 113.823Z" fill="#F4F6F8"/>
<path opacity="0.1429" d="M209.175 113.824C222.198 96.4589 216.41 61.7298 207.727 48.7064C196.151 31.3418 177.339 29.8947 165.763 25.5536C155.634 19.7654 135.375 5.29493 122.352 3.84789C103.54 3.84789 93.4107 11.0831 77.4932 15.4243C60.1286 19.7654 32.6347 45.8123 18.1642 61.7298C0.79967 80.5414 2.24672 109.482 8.03491 116.718C15.2701 126.847 25.3995 138.423 39.87 144.212C52.8934 150 64.4698 148.553 73.152 148.553C80.3873 148.553 89.0696 154.341 109.328 150C123.799 147.106 129.587 145.659 136.822 144.212C149.846 139.87 193.257 135.529 209.175 113.824Z" fill="#EEF2F4"/>
<path opacity="0.1905" d="M206.28 112.376C219.303 95.0118 214.962 61.7298 206.28 50.1534C194.703 32.7888 175.892 32.7888 165.762 27.0006C155.633 22.6595 136.821 6.74195 123.798 5.29491C103.539 5.29491 91.9629 11.0831 77.4924 15.4242C60.1278 19.7654 32.6339 45.8122 19.6105 61.7298C2.24591 79.0943 2.24592 108.035 8.03411 115.271C16.7164 125.4 25.3987 135.529 39.8692 141.317C54.3396 147.106 64.469 144.211 73.1513 145.659C80.3865 147.106 89.0688 151.447 109.327 147.106C123.798 144.211 131.033 142.764 136.821 141.317C149.845 136.976 190.362 134.082 206.28 112.376Z" fill="#E9EDF1"/>
<path opacity="0.2381" d="M203.386 112.376C216.41 96.4589 212.069 63.1768 203.386 51.6004C191.81 34.2359 172.998 34.2359 162.869 28.4477C152.74 24.1065 135.375 6.74197 120.905 6.74197C103.54 5.29492 91.9637 11.0831 76.0461 15.4243C58.6816 19.7654 32.6347 45.8122 19.6113 60.2827C3.69376 77.6473 2.24671 106.588 9.48195 113.823C16.7172 123.953 26.8465 134.082 41.317 138.423C55.7875 142.764 65.9168 141.317 73.152 142.764C80.3873 144.211 89.0696 148.553 109.328 144.211C123.799 141.317 131.034 138.423 136.822 138.423C148.399 135.529 187.469 131.188 203.386 112.376Z" fill="#E3E9ED"/>
<path opacity="0.2857" d="M200.492 110.929C213.515 95.0118 209.174 63.1768 200.492 51.6004C188.915 34.2358 171.551 34.2358 159.974 29.8947C149.845 25.5535 132.48 8.18896 119.457 8.18896C102.092 6.74191 90.516 12.5301 74.5985 16.8712C58.681 21.2124 34.0812 47.2592 21.0577 60.2827C6.58727 76.2002 3.69317 103.694 10.9284 110.929C16.7166 121.059 26.8459 131.188 41.3164 136.976C55.7869 141.317 64.4692 138.423 73.1514 139.87C78.9396 141.317 89.069 145.658 107.881 141.317C122.351 138.423 129.586 135.529 135.375 135.529C148.398 132.635 186.021 129.741 200.492 110.929Z" fill="#DEE5EA"/>
<path opacity="0.3333" d="M199.045 110.929C212.068 95.0119 207.727 64.6239 200.492 53.0475C188.915 35.6829 171.551 35.6829 161.421 31.3418C151.292 27.0006 135.375 9.63607 122.351 9.63607C106.434 8.18902 93.4101 13.9772 77.4926 18.3184C58.681 22.6595 34.0812 47.2593 21.0577 60.2827C6.58727 76.2003 3.69317 102.247 10.9284 110.929C18.1636 119.612 26.8459 129.741 41.3164 134.082C55.7869 138.423 64.4692 135.529 73.1515 136.976C80.3867 138.423 89.069 142.764 109.328 139.87C123.798 136.976 131.033 134.082 136.822 132.635C146.951 131.188 183.127 128.294 199.045 110.929Z" fill="#D8E0E6"/>
<path opacity="0.381" d="M196.15 110.929C209.174 96.4589 206.28 66.0709 197.597 54.4945C186.021 37.1299 168.657 37.1299 158.527 32.7888C149.845 28.4476 132.48 11.0831 119.457 11.0831C103.539 9.63603 90.516 15.4242 74.5984 19.7654C58.6809 22.6595 34.0811 47.2593 22.5047 60.2827C8.03426 74.7532 3.69312 100.8 10.9284 109.482C18.1636 118.165 26.8459 128.294 39.8693 132.635C54.3398 136.976 63.0221 134.082 70.2573 134.082C78.9396 135.529 87.6219 139.87 107.881 136.976C122.351 134.082 129.586 131.188 135.374 129.741C146.951 128.294 180.233 126.847 196.15 110.929Z" fill="#D3DCE3"/>
<path opacity="0.4286" d="M193.256 109.482C206.28 95.0119 203.385 66.0709 194.703 54.4945C183.127 37.13 165.762 38.577 155.633 32.7888C146.951 28.4477 131.033 11.0831 118.01 11.0831C102.092 9.63606 89.0687 13.9772 74.5983 18.3184C58.6807 22.6595 34.0809 48.7063 23.9516 60.2827C10.9282 74.7532 5.13998 99.353 12.3752 108.035C19.6105 116.718 26.8457 125.4 41.3162 129.741C55.7866 134.082 64.4689 129.741 71.7042 131.188C78.9394 132.635 87.6217 138.423 107.88 134.082C122.351 131.188 129.586 128.294 135.374 126.847C145.504 126.847 178.786 125.4 193.256 109.482Z" fill="#CDD8DF"/>
<path opacity="0.4762" d="M190.362 109.482C203.386 96.4589 200.492 67.5179 193.256 55.9416C181.68 38.577 164.315 40.024 154.186 35.6829C145.504 29.8947 131.033 13.9772 118.01 12.5301C103.539 11.0831 89.0689 15.4242 74.5984 19.7654C58.6809 24.1065 35.5281 48.7063 23.9518 60.2827C12.3754 73.3061 5.14013 96.4589 12.3754 106.588C18.1636 113.823 26.8458 123.953 41.3163 126.847C55.7868 129.741 64.4691 126.847 71.7043 126.847C77.4925 129.741 87.6218 135.529 107.881 131.188C122.351 128.294 129.586 125.4 135.374 123.953C145.504 123.953 175.892 123.953 190.362 109.482Z" fill="#C8D3DC"/>
<path opacity="0.5238" d="M187.468 108.035C200.492 95.0119 197.598 67.518 190.362 55.9416C178.786 38.577 162.868 40.0241 152.739 35.6829C144.057 31.3418 131.033 15.4243 118.01 13.9772C103.54 12.5302 89.0691 16.8713 74.5986 21.2125C58.6811 24.1065 35.5283 48.7064 25.399 58.8357C13.8226 71.8591 5.1403 95.0119 13.8226 105.141C19.6108 112.376 26.846 122.506 41.3165 125.4C55.787 128.294 64.4692 123.953 70.2574 125.4C77.4927 126.847 87.622 132.635 106.434 129.741C120.904 126.847 128.139 123.953 133.928 122.506C144.057 122.506 172.998 122.506 187.468 108.035Z" fill="#C2CFD8"/>
<path opacity="0.5714" d="M186.021 108.035C199.044 96.4589 197.597 68.965 188.915 57.3886C177.339 40.024 161.421 41.4711 151.292 37.1299C142.609 32.7888 129.586 15.4242 116.563 13.9772C102.092 12.5301 87.6217 15.4242 73.1512 19.7654C58.6807 25.5536 35.528 48.7063 26.8457 58.8356C15.2693 70.412 6.58702 93.5648 15.2693 103.694C21.0575 110.929 28.2927 119.612 42.7632 122.506C57.2337 125.4 65.916 121.059 71.7041 122.506C77.4923 123.953 87.6217 129.741 106.433 126.847C120.904 123.953 129.586 119.612 133.927 119.612C144.057 119.612 171.55 121.059 186.021 108.035Z" fill="#BDCAD5"/>
<path opacity="0.619" d="M183.128 106.588C196.151 95.0119 194.704 68.965 187.469 57.3886C177.339 40.0241 159.975 42.9182 149.845 37.13C141.163 34.2359 129.587 16.8713 116.563 15.4243C103.54 13.9772 87.6224 16.8713 73.1519 21.2124C57.2344 25.5536 36.9757 50.1534 26.8464 58.8357C16.7171 70.4121 6.58772 92.1178 15.27 102.247C21.0582 109.482 28.2934 118.165 42.7639 121.059C57.2344 123.953 65.9167 118.165 71.7049 119.612C77.4931 121.059 87.6224 126.847 106.434 123.953C120.904 121.059 129.587 116.718 133.928 116.718C142.61 118.165 168.657 119.612 183.128 106.588Z" fill="#B7C6D1"/>
<path opacity="0.6667" d="M180.233 106.588C193.257 96.4589 191.81 70.4121 184.574 60.2827C174.445 42.9181 157.08 45.8122 148.398 41.4711C139.716 35.6829 128.139 18.3183 116.563 16.8713C103.54 15.4242 87.6221 18.3183 73.1516 22.6595C57.2341 27.0006 36.9754 50.1534 28.2931 58.8357C18.1638 68.965 6.58741 89.2237 16.7167 100.8C22.5049 106.588 28.2931 116.718 42.7636 118.165C57.2341 121.059 64.4693 115.271 70.2575 116.718C76.0457 118.165 86.175 125.4 106.434 121.059C120.904 118.165 129.586 113.823 133.928 113.823C142.61 115.271 165.763 118.165 180.233 106.588Z" fill="#B2C2CE"/>
<path opacity="0.7143" d="M177.339 105.141C190.362 95.0119 188.915 70.4121 183.127 60.2827C172.998 42.9182 157.08 45.8123 146.951 41.4711C138.269 37.13 126.692 19.7654 115.116 18.3184C103.54 15.4243 87.6221 18.3184 73.1516 22.6595C57.2341 27.0006 36.9754 50.1534 29.7402 58.8357C19.6109 67.518 8.0345 87.7766 16.7168 99.353C21.0579 105.141 28.2932 113.823 42.7636 116.718C57.2341 118.165 64.4693 112.376 70.2575 113.823C76.0457 115.271 86.1751 122.506 106.434 119.612C120.904 116.718 129.586 112.376 133.928 112.376C141.163 113.823 164.316 116.718 177.339 105.141Z" fill="#ACBDCA"/>
<path opacity="0.7619" d="M174.445 105.141C187.469 96.4589 186.022 71.8591 180.233 61.7298C170.104 44.3652 154.187 47.2593 144.057 42.9182C136.822 38.577 126.693 21.2125 115.116 18.3184C103.54 15.4243 86.1753 18.3184 73.1519 22.6595C57.2344 28.4477 36.9757 50.1534 29.7405 58.8357C22.5052 66.0709 8.03476 86.3296 18.1641 97.906C22.5052 103.694 28.2934 112.376 42.7639 113.823C57.2344 115.271 64.4696 109.482 70.2578 110.929C76.046 112.376 86.1753 119.612 106.434 116.718C122.352 113.823 129.587 109.482 133.928 109.482C141.163 110.929 161.422 113.823 174.445 105.141Z" fill="#A7B9C7"/>
<path opacity="0.8095" d="M172.998 103.694C186.022 95.0118 186.022 71.8591 178.786 61.7298C168.657 44.3652 152.74 47.2593 144.057 44.3652C136.822 41.4711 126.693 22.6595 115.116 21.2124C102.093 18.3183 86.1754 19.7654 73.1519 24.1065C57.2344 28.4477 38.4228 51.6004 31.1876 57.3886C23.9523 66.0709 9.48185 84.8825 18.1641 96.4589C22.5053 102.247 28.2935 109.482 42.7639 110.929C57.2344 112.376 64.4697 106.588 68.8108 108.035C76.046 109.482 86.1754 116.718 104.987 113.823C120.905 110.929 128.14 106.588 132.481 106.588C139.716 108.035 158.528 112.376 172.998 103.694Z" fill="#A1B5C3"/>
<path opacity="0.8571" d="M170.104 103.694C183.128 96.4589 183.128 73.3062 177.339 63.1768C167.21 45.8123 151.293 50.1534 142.61 45.8123C133.928 41.4711 125.246 24.1065 113.669 21.2124C102.093 18.3184 86.1755 21.2124 71.705 24.1065C57.2345 29.8947 38.4229 51.6004 32.6347 57.3886C25.3995 64.6239 9.48196 81.9884 19.6113 95.0119C23.9524 99.353 28.2936 108.035 44.2111 109.482C58.6816 110.929 65.9168 103.694 70.258 105.141C76.0462 106.588 86.1755 115.271 106.434 110.929C122.352 108.035 129.587 102.247 133.928 103.694C139.716 106.588 157.081 110.929 170.104 103.694Z" fill="#9CB0C0"/>
<path opacity="0.9048" d="M167.21 102.247C180.233 95.0118 180.233 73.3061 174.445 63.1768C164.315 45.8122 148.398 50.1534 139.716 45.8122C132.48 42.9181 123.798 25.5536 113.669 22.6595C102.092 19.7654 84.7278 21.2124 71.7044 25.5536C57.2339 29.8947 38.4223 51.6004 34.0812 57.3886C26.8459 63.1768 9.48136 80.5414 19.6107 93.5648C23.9518 97.9059 28.293 105.141 44.2105 106.588C58.681 108.035 64.4692 100.8 68.8103 102.247C74.5985 103.694 84.7278 112.376 104.986 109.482C120.904 106.588 128.139 100.8 132.48 102.247C138.269 103.694 154.186 109.482 167.21 102.247Z" fill="#96ACBC"/>
<path opacity="0.9524" d="M164.316 102.247C177.339 96.4589 177.339 74.7532 171.551 64.6239C161.422 47.2593 146.951 51.6004 136.822 47.2593C132.481 44.3652 123.798 27.0006 112.222 24.1065C102.093 21.2124 84.7281 22.6595 71.7047 25.5536C57.2342 29.8947 39.8696 51.6004 34.0814 55.9416C28.2932 63.1768 10.9287 79.0943 21.058 92.1178C23.9521 96.4589 29.7403 103.694 44.2107 103.694C60.1283 103.694 65.9165 96.4589 68.8106 97.9059C74.5987 100.8 84.7281 108.035 104.987 105.141C120.904 103.694 128.139 97.906 131.034 99.353C138.269 102.247 151.292 108.035 164.316 102.247Z" fill="#91A7B9"/>
<path d="M161.421 100.8C174.445 95.0118 175.892 74.7532 170.104 64.6239C159.974 48.7063 145.504 53.0475 136.822 48.7063C131.033 45.8122 122.351 28.4477 112.222 24.1065C102.092 22.6595 84.7279 22.6595 71.7045 27.0006C57.234 31.3418 39.8695 53.0475 35.5283 57.3886C29.7401 61.7298 10.9285 77.6473 21.0578 90.6707C25.399 93.5648 29.7401 100.8 44.2106 102.247C60.1281 102.247 64.4693 95.0118 68.8104 96.4589C74.5986 99.353 84.7279 106.588 104.987 103.694C120.904 100.8 128.139 95.0118 131.033 96.4589C136.822 99.353 149.845 106.588 161.421 100.8Z" fill="#8BA3B5"/>
</g>
<path d="M149.845 44.3652C146.951 44.3652 142.61 44.3652 139.716 45.8123C135.374 24.1065 118.01 8.18902 94.8571 6.74197C73.1514 5.29493 54.3398 18.3184 47.1046 38.577C29.74 37.13 13.8225 51.6004 12.3754 70.4121C12.3754 87.7766 25.3989 103.694 44.2105 105.141C54.3398 105.141 63.0221 102.247 68.8103 96.4589C74.5985 99.353 83.2808 102.247 90.516 102.247C104.986 103.694 118.01 97.906 126.692 87.7766C131.033 95.0119 138.269 99.353 146.951 99.353C162.868 100.8 175.892 87.7766 175.892 73.3062C177.339 57.3886 165.762 44.3652 149.845 44.3652Z" fill="white"/>
</svg>
