<svg width="211" height="290" viewBox="0 0 211 290" fill="none" xmlns="http://www.w3.org/2000/svg">
<g style="mix-blend-mode:multiply">
<path opacity="0.032258" d="M71.3842 7.79011C101.954 5.87952 163.092 72.7502 157.361 116.694C151.629 170.19 86.6689 179.743 56.0995 170.19C21.7089 158.727 8.33476 126.247 8.33476 107.141C6.42417 76.5713 44.636 9.7007 71.3842 7.79011Z" fill="#FBFCFC"/>
<path opacity="0.064516" d="M71.3842 7.79013C100.043 5.87954 161.182 70.8396 155.45 114.783C149.718 168.28 86.6689 177.833 56.0995 168.28C21.7089 158.727 8.33476 124.336 8.33476 107.141C6.42417 76.5714 44.636 9.70072 71.3842 7.79013Z" fill="#F7F9FA"/>
<path opacity="0.096774" d="M71.3846 9.70071C100.043 7.79012 157.361 70.8396 153.54 114.783C145.898 166.369 86.6693 175.922 56.0999 166.369C23.6199 156.816 10.2457 124.336 8.33514 107.141C8.33514 76.5713 44.6363 11.6113 71.3846 9.70071Z" fill="#F3F6F7"/>
<path opacity="0.129" d="M69.4737 9.70072C96.222 7.79013 153.54 70.8396 149.718 112.873C143.987 162.548 84.7584 172.101 54.189 164.458C23.6196 154.906 10.2454 122.425 10.2454 105.23C8.33486 76.5714 44.6361 11.6113 69.4737 9.70072Z" fill="#EFF3F5"/>
<path opacity="0.1613" d="M69.4736 11.6113C96.2218 9.70075 151.629 70.8396 147.808 112.873C142.076 160.637 84.7583 172.101 56.0994 162.548C23.6194 152.995 12.1559 122.426 10.2453 105.23C10.2453 76.5714 44.6359 13.5219 69.4736 11.6113Z" fill="#EBF0F2"/>
<path opacity="0.1935" d="M69.4736 13.5219C96.2218 11.6113 149.718 72.7502 145.897 112.873C140.165 160.637 84.7583 170.19 56.0995 162.548C23.6194 152.995 12.1559 120.515 12.1559 105.23C10.2453 76.5714 44.6359 15.4325 69.4736 13.5219Z" fill="#E8EDF0"/>
<path opacity="0.2258" d="M67.5631 13.5219C92.4007 11.6113 145.897 70.8396 142.076 110.962C136.344 156.816 82.8478 168.28 54.1889 158.727C23.6195 149.174 12.156 120.515 12.156 103.32C12.156 78.482 44.636 15.4325 67.5631 13.5219Z" fill="#E4EAED"/>
<path opacity="0.2581" d="M67.5631 15.4325C92.4007 13.5219 143.987 72.7502 138.255 110.962C134.434 154.906 82.8478 164.458 54.1889 156.816C23.6195 149.174 12.156 118.604 12.156 103.32C12.156 78.482 44.636 17.3431 67.5631 15.4325Z" fill="#E0E7EB"/>
<path opacity="0.2903" d="M67.5633 17.3431C90.4904 15.4325 142.076 72.7502 136.345 110.962C132.523 152.995 82.848 162.548 54.1892 154.906C25.5303 147.263 14.0668 118.604 14.0668 103.32C12.1562 78.482 44.6362 17.3431 67.5633 17.3431Z" fill="#DCE4E8"/>
<path opacity="0.3226" d="M65.6526 17.3431C90.4903 15.4325 138.255 72.7502 134.434 109.051C128.702 151.084 80.9373 160.637 54.1891 154.906C25.5302 147.263 15.9773 118.604 14.0667 103.32C14.0667 78.482 44.6361 19.2537 65.6526 17.3431Z" fill="#D8E1E6"/>
<path opacity="0.3548" d="M65.6526 19.2537C88.5797 17.3431 134.434 72.7502 130.613 109.051C126.791 149.174 80.9373 158.727 54.1891 152.995C25.5302 145.353 15.9773 118.604 14.0667 103.32C14.0667 78.4819 44.6361 19.2537 65.6526 19.2537Z" fill="#D4DEE3"/>
<path opacity="0.3871" d="M65.6527 19.2537C86.6692 19.2537 132.523 72.7502 128.702 107.141C124.881 145.353 80.9375 156.816 54.1892 149.174C25.5304 141.531 15.9774 114.783 15.9774 101.409C15.9774 78.482 44.6363 21.1643 65.6527 19.2537Z" fill="#D0DBE0"/>
<path opacity="0.4194" d="M65.6527 21.1643C84.7585 19.2537 128.702 72.7502 126.792 107.141C122.97 145.353 80.9374 154.906 56.0997 149.174C29.3514 143.442 17.8879 114.783 17.8879 101.409C15.9773 78.482 44.6362 23.0749 65.6527 21.1643Z" fill="#CCD8DE"/>
<path opacity="0.4516" d="M63.7423 23.0748C82.8482 21.1643 126.792 72.7502 122.971 107.141C119.149 141.531 79.027 152.995 54.1893 147.263C27.4411 141.531 17.8881 114.783 17.8881 101.409C17.8881 78.4819 44.6364 23.0748 63.7423 23.0748Z" fill="#C8D5DB"/>
<path opacity="0.4839" d="M63.7419 23.0749C82.8478 21.1643 124.881 72.7502 121.06 105.23C117.238 139.621 79.0266 151.084 54.189 145.353C29.3513 139.621 19.7984 112.873 19.7984 101.409C17.8878 78.4819 44.636 24.9854 63.7419 23.0749Z" fill="#C4D2D9"/>
<path opacity="0.5161" d="M63.7418 24.9855C82.8477 23.0749 121.059 72.7502 119.149 105.23C113.417 137.71 77.1159 149.174 54.1888 143.442C29.3512 137.71 19.7982 112.873 19.7982 99.4985C19.7982 78.482 46.5465 24.9855 63.7418 24.9855Z" fill="#C1CFD6"/>
<path opacity="0.5484" d="M61.8312 26.896C80.9371 24.9854 119.149 72.7502 115.328 103.32C111.507 135.8 77.1159 145.353 54.1888 141.531C29.3512 135.8 21.7088 112.873 19.7982 99.4984C19.7982 78.4819 46.5465 26.896 61.8312 26.896Z" fill="#BDCCD4"/>
<path opacity="0.5806" d="M61.8313 26.896C79.0266 26.896 115.328 72.7502 111.507 103.32C109.596 133.889 77.116 143.442 54.1889 139.621C29.3513 135.8 21.7089 110.962 21.7089 99.4984C21.7089 80.3925 46.5466 28.8066 61.8313 26.896Z" fill="#B9C9D1"/>
<path opacity="0.6129" d="M61.8313 28.8066C77.116 28.8066 113.417 72.7502 109.596 103.32C105.775 131.978 75.2054 141.531 54.1889 137.71C29.3513 133.889 21.7089 110.962 21.7089 99.4985C21.7089 80.3926 46.5466 28.8066 61.8313 28.8066Z" fill="#B5C6CF"/>
<path opacity="0.6452" d="M59.9207 28.8066C75.2054 28.8066 109.596 72.7502 105.775 101.409C101.954 130.068 73.2948 139.621 54.1889 135.8C29.3513 131.978 23.6195 109.051 21.7089 97.5879C21.7089 80.3926 46.5466 30.7172 59.9207 28.8066Z" fill="#B1C3CC"/>
<path opacity="0.6774" d="M59.9209 30.7172C75.2056 30.7172 107.686 72.7502 103.864 101.409C101.954 128.157 75.2056 137.71 54.1891 133.889C31.262 131.979 23.6197 109.051 23.6197 97.5879C23.6197 80.3926 46.5468 30.7172 59.9209 30.7172Z" fill="#ADC0C9"/>
<path opacity="0.7097" d="M59.9207 32.6278C73.2948 32.6278 105.775 74.6608 101.954 101.409C100.043 126.247 73.2948 135.8 54.189 133.889C31.2619 130.068 25.5301 107.141 25.5301 97.5879C23.6195 80.3925 46.5466 32.6278 59.9207 32.6278Z" fill="#A9BDC7"/>
<path opacity="0.7419" d="M59.9209 32.6278C73.2951 32.6278 101.954 72.7502 100.043 99.4984C96.2221 122.426 73.2951 133.889 54.1892 131.978C31.2621 128.157 25.5303 107.141 25.5303 97.5878C25.5303 80.3925 46.5468 34.5384 59.9209 32.6278Z" fill="#A5BAC4"/>
<path opacity="0.7742" d="M58.0104 34.5384C69.4739 34.5384 98.1327 74.6608 96.2222 99.4984C94.3116 120.515 73.2951 131.978 54.1892 130.068C33.1727 126.247 25.5303 105.23 25.5303 97.5879C25.5303 80.3926 46.5468 34.5384 58.0104 34.5384Z" fill="#A1B7C2"/>
<path opacity="0.8065" d="M58.0105 36.449C69.474 36.449 96.2223 74.6608 94.3117 99.4984C92.4011 120.515 71.3846 131.978 56.0999 130.068C33.1728 126.247 27.441 105.23 27.441 95.6772C27.441 80.3925 46.5469 36.449 58.0105 36.449Z" fill="#9DB4BF"/>
<path opacity="0.8387" d="M58.0105 36.449C69.474 36.449 94.3117 72.7502 92.4011 97.5878C90.4905 116.694 73.2952 128.157 56.0999 126.247C33.1728 124.336 27.441 105.23 27.441 95.6772C27.441 80.3925 46.5469 36.449 58.0105 36.449Z" fill="#9AB1BD"/>
<path opacity="0.871" d="M56.0995 38.3596C67.563 38.3596 90.4901 74.6608 88.5795 95.6773C86.6689 114.783 71.3842 126.247 54.1889 124.336C33.1724 122.426 29.3512 103.32 29.3512 95.6773C29.3512 80.3925 46.5465 38.3596 56.0995 38.3596Z" fill="#96AEBA"/>
<path opacity="0.9032" d="M56.0994 38.3596C65.6524 38.3596 88.5795 72.7502 86.6689 95.6773C84.7583 112.873 69.4736 124.336 54.1889 122.426C35.083 120.515 29.3512 103.32 29.3512 95.6773C29.3512 80.3925 46.5465 40.2702 56.0994 38.3596Z" fill="#92ABB8"/>
<path opacity="0.9355" d="M56.0995 40.2702C63.7418 40.2702 84.7583 74.6608 82.8477 93.7667C80.9371 110.962 69.4736 120.515 54.1889 120.515C35.083 120.515 29.3512 101.409 29.3512 93.7667C29.3512 82.3031 46.5465 40.2702 56.0995 40.2702Z" fill="#8EA8B5"/>
<path opacity="0.9677" d="M54.189 42.1808C61.8314 42.1808 80.9373 74.6608 79.0267 93.7667C79.0267 109.051 69.4737 118.604 54.189 118.604C35.0831 118.604 31.2619 101.409 31.2619 93.7667C31.2619 82.3032 46.5466 42.1808 54.189 42.1808Z" fill="#8AA5B3"/>
<path d="M54.189 42.1808C61.8314 42.1808 79.0267 74.6608 77.1161 91.8561C77.1161 107.141 67.5631 116.694 54.189 116.694C35.0831 116.694 31.2619 99.4985 31.2619 93.7667C31.2619 82.3032 46.5466 42.1808 54.189 42.1808Z" fill="#86A2B0"/>
</g>
<path d="M79.0265 84.2137C79.0265 105.23 61.8312 122.425 40.8147 122.425C19.7982 122.425 0.692322 105.23 0.692322 84.2137C0.692322 47.9125 40.8147 0.147766 40.8147 0.147766H42.7253V2.05836C52.2782 13.5219 79.0265 57.4655 79.0265 84.2137Z" fill="#C4F1FF"/>
<path d="M80.9374 86.1243C80.9374 107.141 63.7421 124.336 42.7256 124.336C21.7091 124.336 4.51379 107.141 4.51379 86.1243C4.51379 55.5549 42.7256 0.147797 42.7256 0.147797C42.7256 0.147797 80.9374 53.6443 80.9374 86.1243Z" fill="url(#paint0_linear_2_4448)"/>
<g style="mix-blend-mode:multiply">
<path opacity="0.032258" d="M48.4575 185.473C67.5634 183.563 105.775 225.596 101.954 254.255C100.043 286.735 58.0105 292.466 38.9046 286.735C17.8881 281.003 10.2457 258.076 8.33514 248.523C8.33514 227.506 31.2622 185.473 48.4575 185.473Z" fill="#FBFCFC"/>
<path opacity="0.064516" d="M48.4575 185.473C67.5634 183.563 103.865 225.596 100.043 252.344C96.2223 284.824 56.0999 290.556 36.994 284.824C15.9775 279.092 8.33514 258.076 8.33514 246.612C8.33514 227.506 31.2622 187.384 48.4575 185.473Z" fill="#F7F9FA"/>
<path opacity="0.096774" d="M48.4576 185.475C65.6529 183.564 101.954 223.687 100.044 250.435C96.2224 282.915 58.0106 290.557 38.9047 284.826C17.8882 279.094 10.2458 258.077 10.2458 246.614C10.2458 227.508 31.2623 187.386 48.4576 185.475Z" fill="#F3F6F7"/>
<path opacity="0.129" d="M48.4576 187.386C65.6529 185.475 101.954 225.597 98.133 252.346C94.3118 282.915 58.0106 290.557 38.9047 284.826C19.7988 279.094 10.2458 258.077 10.2458 248.524C10.2458 229.419 31.2623 187.386 48.4576 187.386Z" fill="#EFF3F5"/>
<path opacity="0.1613" d="M48.4576 187.386C65.6529 185.475 100.044 225.597 96.2224 250.435C92.4012 281.004 58.0106 286.736 38.9047 282.915C19.7988 277.183 12.1564 258.077 10.2458 246.614C10.2458 229.419 31.2623 189.296 48.4576 187.386Z" fill="#EBF0F2"/>
<path opacity="0.1935" d="M46.5469 189.296C63.7422 187.386 96.2222 225.597 94.3116 250.435C90.4904 279.094 56.0998 286.736 38.9045 281.004C19.7986 275.273 12.1563 256.167 12.1563 246.614C10.2457 229.419 31.2622 189.296 46.5469 189.296Z" fill="#E8EDF0"/>
<path opacity="0.2258" d="M46.5472 189.296C61.8319 187.386 96.2226 225.597 92.4014 250.435C88.5802 279.094 56.1002 284.826 38.9049 281.004C19.799 275.273 12.1566 256.167 12.1566 246.614C12.1566 229.419 33.1731 189.296 46.5472 189.296Z" fill="#E4EAED"/>
<path opacity="0.2581" d="M46.5471 189.296C61.8318 187.386 94.3118 225.597 90.4906 248.524C86.6694 275.273 54.1894 282.915 36.9941 277.183C17.8882 271.451 10.2458 254.256 10.2458 244.703C12.1564 229.419 33.1729 191.207 46.5471 189.296Z" fill="#E0E7EB"/>
<path opacity="0.2903" d="M46.5471 191.207C61.8319 189.296 92.4013 225.597 90.4907 250.435C86.6695 277.183 56.1001 282.915 38.9048 279.094C19.7989 273.362 14.0671 256.167 14.0671 246.614C12.1565 229.419 33.173 191.207 46.5471 191.207Z" fill="#DCE4E8"/>
<path opacity="0.3226" d="M46.5471 191.207C61.8319 191.207 90.4907 225.597 88.5801 248.524C84.7589 275.273 56.1001 281.004 38.9048 277.183C21.7095 273.362 14.0671 254.256 14.0671 244.703C12.1565 229.419 33.173 193.117 46.5471 191.207Z" fill="#D8E1E6"/>
<path opacity="0.3548" d="M46.5467 193.117C59.9209 193.117 90.4903 225.597 86.6691 248.524C84.7585 273.362 54.1891 281.004 38.9044 275.273C21.7091 271.451 14.0667 252.346 14.0667 244.703C14.0667 229.419 33.1726 193.117 46.5467 193.117Z" fill="#D4DEE3"/>
<path opacity="0.3871" d="M44.6361 193.117C58.0103 191.207 86.6691 225.597 84.7585 248.524C82.8479 273.362 54.1891 279.094 38.9044 275.273C21.7091 271.451 15.9773 254.256 14.0667 244.703C14.0667 229.419 33.1726 193.117 44.6361 193.117Z" fill="#D0DBE0"/>
<path opacity="0.4194" d="M44.6364 193.117C58.0105 193.117 84.7588 225.597 82.8482 246.614C80.9376 269.541 54.1894 277.183 38.9046 273.362C21.7093 269.541 15.9776 252.346 15.9776 244.703C14.067 229.419 33.1729 195.028 44.6364 193.117Z" fill="#CCD8DE"/>
<path opacity="0.4516" d="M44.6363 195.028C58.0104 195.028 82.8481 225.597 80.9375 246.614C79.0269 269.541 52.2786 275.273 38.9045 271.451C21.7092 267.63 15.9774 250.435 15.9774 242.793C15.9774 229.419 33.1727 195.028 44.6363 195.028Z" fill="#C8D5DB"/>
<path opacity="0.4839" d="M44.6363 195.028C56.0998 195.028 82.8481 225.597 80.9375 246.614C77.1163 267.63 52.2786 275.273 38.9045 271.451C21.7092 267.63 15.9774 252.346 15.9774 242.793C15.9774 229.419 33.1727 195.028 44.6363 195.028Z" fill="#C4D2D9"/>
<path opacity="0.5161" d="M44.6363 195.028C56.0998 195.028 80.9375 225.597 79.0269 244.703C75.2057 267.63 52.2786 273.362 38.9045 269.541C23.6198 265.72 17.888 250.435 15.9774 242.793C15.9774 229.419 33.1727 196.939 44.6363 195.028Z" fill="#C1CFD6"/>
<path opacity="0.5484" d="M42.7257 196.939C54.1892 196.939 77.1163 225.597 75.2057 244.703C73.2951 265.72 50.368 271.451 36.9939 267.63C21.7092 263.809 15.9774 248.524 15.9774 240.882C15.9774 229.419 33.1727 196.939 42.7257 196.939Z" fill="#BDCCD4"/>
<path opacity="0.5806" d="M42.7258 196.939C54.1893 196.939 77.1164 225.597 75.2058 244.703C73.2952 263.809 52.2787 269.541 38.9046 267.63C23.6199 263.809 17.8881 250.435 17.8881 242.793C17.8881 229.419 33.1728 198.849 42.7258 196.939Z" fill="#B9C9D1"/>
<path opacity="0.6129" d="M42.7258 198.849C52.2787 198.849 75.2058 227.508 73.2952 244.703C71.3846 263.809 52.2787 269.541 38.9046 267.63C23.6199 265.72 17.8881 250.435 17.8881 242.793C17.8881 229.419 33.1728 198.849 42.7258 198.849Z" fill="#B5C6CF"/>
<path opacity="0.6452" d="M42.726 198.849C52.279 198.849 73.2954 225.597 71.3849 244.703C69.4743 261.899 50.3684 267.63 38.9048 265.72C23.6201 263.809 19.7989 248.524 19.7989 242.793C17.8884 229.419 33.1731 198.849 42.726 198.849Z" fill="#B1C3CC"/>
<path opacity="0.6774" d="M42.7259 198.849C52.2789 198.849 71.3847 225.597 69.4742 242.793C67.5636 259.988 50.3683 265.72 38.9047 263.809C23.62 261.899 19.7988 246.614 19.7988 240.882C19.7988 231.329 33.173 200.76 42.7259 198.849Z" fill="#ADC0C9"/>
<path opacity="0.7097" d="M40.8153 200.76C50.3683 200.76 69.4742 227.508 67.5636 242.793C65.653 258.077 50.3683 265.72 38.9047 263.809C23.62 261.899 19.7988 248.524 19.7988 240.882C19.7988 231.329 33.173 200.76 40.8153 200.76Z" fill="#A9BDC7"/>
<path opacity="0.7419" d="M40.8152 200.76C48.4576 200.76 67.5634 225.597 65.6529 242.793C63.7423 258.077 48.4576 263.809 36.994 261.899C23.6199 259.988 17.8881 246.614 17.8881 240.882C19.7987 231.329 33.1728 200.76 40.8152 200.76Z" fill="#A5BAC4"/>
<path opacity="0.7742" d="M40.8153 202.67C48.4577 202.67 65.653 227.508 63.7424 242.793C61.8318 256.167 48.4577 263.809 36.9941 261.899C23.62 259.988 19.7988 246.614 19.7988 240.882C19.7988 231.329 33.173 202.67 40.8153 202.67Z" fill="#A1B7C2"/>
<path opacity="0.8065" d="M40.8154 202.67C48.4578 202.67 65.6531 225.597 63.7425 240.882C61.8319 254.256 50.3684 259.988 38.9048 259.988C25.5307 258.077 21.7095 246.614 21.7095 240.882C21.7095 231.329 33.1731 202.67 40.8154 202.67Z" fill="#9DB4BF"/>
<path opacity="0.8387" d="M40.8154 202.67C48.4578 202.67 63.7425 225.597 61.8319 240.882C59.9213 254.256 48.4578 259.988 38.9048 258.077C25.5307 256.167 21.7095 244.703 21.7095 238.971C21.7095 231.329 33.1731 202.67 40.8154 202.67Z" fill="#9AB1BD"/>
<path opacity="0.871" d="M38.9048 204.581C44.6366 204.581 59.9213 227.508 58.0107 240.882C56.1001 252.346 46.5472 259.988 36.9942 258.077C23.6201 256.167 21.7095 244.703 21.7095 240.882C21.7095 231.329 33.1731 204.581 38.9048 204.581Z" fill="#96AEBA"/>
<path opacity="0.9032" d="M38.9044 204.581C44.6362 204.581 58.0103 225.597 58.0103 238.971C56.0997 250.435 48.4574 256.167 38.9044 256.167C25.5303 256.167 23.6197 244.703 23.6197 238.971C23.6197 231.329 33.1726 204.581 38.9044 204.581Z" fill="#92ABB8"/>
<path opacity="0.9355" d="M38.9044 206.491C44.6362 206.491 58.0103 227.508 56.0997 240.882C56.0997 250.435 46.5468 258.077 38.9044 258.077C27.4409 258.077 23.6197 246.614 23.6197 240.882C23.6197 231.329 33.1726 206.491 38.9044 206.491Z" fill="#8EA8B5"/>
<path opacity="0.9677" d="M38.9044 206.491C44.6362 206.491 56.0997 227.508 54.1891 238.971C54.1891 248.524 46.5468 254.256 38.9044 254.256C27.4409 254.256 23.6197 242.793 23.6197 238.971C23.6197 231.329 33.1726 206.491 38.9044 206.491Z" fill="#8AA5B3"/>
<path d="M38.9046 206.491C42.7258 206.491 54.1893 225.597 54.1893 238.971C54.1893 246.614 48.4576 254.256 38.9046 254.256C27.4411 254.256 25.5305 242.793 25.5305 238.971C23.6199 231.329 33.1728 206.491 38.9046 206.491Z" fill="#86A2B0"/>
</g>
<path d="M52.2785 233.24C52.2785 246.614 40.815 256.167 29.3515 256.167C17.8879 256.167 4.51379 244.703 4.51379 233.24C4.51379 210.313 29.3515 181.654 29.3515 181.654H31.262V183.564C36.9938 189.296 52.2785 216.044 52.2785 233.24Z" fill="#C4F1FF"/>
<path d="M56.0995 235.15C56.0995 248.524 44.6359 258.077 33.1724 258.077C19.7982 258.077 10.2453 246.614 10.2453 235.15C10.2453 216.044 33.1724 181.654 33.1724 181.654C33.1724 181.654 56.0995 214.134 56.0995 235.15Z" fill="url(#paint1_linear_2_4448)"/>
<g style="mix-blend-mode:multiply">
<path opacity="0.032258" d="M143.987 109.051C166.914 107.141 212.768 156.816 208.947 189.296C205.125 229.419 155.45 237.061 132.523 229.419C107.685 221.776 96.2218 196.939 96.2218 183.564C96.2218 160.637 122.97 110.962 143.987 109.051Z" fill="#FBFCFC"/>
<path opacity="0.064516" d="M143.987 109.051C165.003 107.141 210.857 156.816 207.036 189.296C203.215 227.508 155.45 235.15 132.523 229.419C107.685 221.776 98.1324 196.939 96.2218 183.564C96.2218 160.637 122.97 110.962 143.987 109.051Z" fill="#F7F9FA"/>
<path opacity="0.096774" d="M143.986 110.962C165.003 109.051 208.946 156.816 205.125 189.296C201.304 227.508 155.45 235.15 132.523 227.508C107.685 219.866 98.132 195.028 98.132 183.564C96.2214 160.637 122.97 112.873 143.986 110.962Z" fill="#F3F6F7"/>
<path opacity="0.129" d="M142.076 110.962C163.092 109.051 205.125 156.816 201.304 187.386C197.483 223.687 153.539 231.329 130.612 225.597C107.685 217.955 98.1324 195.028 96.2218 181.654C98.1324 160.637 122.97 112.873 142.076 110.962Z" fill="#EFF3F5"/>
<path opacity="0.1613" d="M142.076 112.873C161.181 110.962 203.214 156.816 199.393 187.386C195.572 223.687 153.539 231.329 130.612 223.687C107.685 216.044 98.132 193.117 98.132 181.654C98.132 160.637 122.97 112.873 142.076 112.873Z" fill="#EBF0F2"/>
<path opacity="0.1935" d="M142.076 112.873C161.182 110.962 201.304 156.816 197.483 187.386C193.662 221.776 153.539 229.419 132.523 223.687C109.596 217.955 100.043 193.117 100.043 181.654C98.1322 160.637 122.97 114.783 142.076 112.873Z" fill="#E8EDF0"/>
<path opacity="0.2258" d="M142.076 114.783C161.181 112.873 199.393 156.816 197.483 187.386C191.751 219.866 153.539 227.508 132.523 221.776C109.596 216.044 101.953 193.117 100.043 181.654C100.043 160.637 124.88 114.783 142.076 114.783Z" fill="#E4EAED"/>
<path opacity="0.2581" d="M142.076 114.783C161.182 112.873 199.394 156.816 195.572 185.475C191.751 217.955 153.539 225.597 132.523 219.866C109.596 214.134 101.954 191.207 101.954 179.743C100.043 162.548 124.881 116.694 142.076 114.783Z" fill="#E0E7EB"/>
<path opacity="0.2903" d="M140.165 116.694C159.271 114.783 195.572 156.816 191.751 185.475C187.93 217.955 151.629 225.597 130.612 219.866C109.596 214.134 100.043 193.117 100.043 181.654C100.043 162.548 124.88 116.694 140.165 116.694Z" fill="#DCE4E8"/>
<path opacity="0.3226" d="M140.165 116.694C157.36 114.783 193.661 156.816 189.84 185.475C186.019 216.044 151.629 223.687 130.612 217.955C109.596 212.223 101.953 191.207 100.043 179.743C101.953 162.548 124.88 118.604 140.165 116.694Z" fill="#D8E1E6"/>
<path opacity="0.3548" d="M140.165 118.604C157.36 116.694 191.751 156.816 187.93 183.564C184.109 214.134 149.718 221.776 130.612 216.044C111.506 212.223 101.953 191.207 101.953 179.743C101.953 162.548 124.88 118.604 140.165 118.604Z" fill="#D4DEE3"/>
<path opacity="0.3871" d="M140.165 118.604C155.45 116.694 189.84 156.816 187.93 183.564C184.108 212.223 151.628 219.866 132.523 216.044C111.506 210.313 103.864 189.296 103.864 179.743C101.953 162.548 124.88 120.515 140.165 118.604Z" fill="#D0DBE0"/>
<path opacity="0.4194" d="M138.255 120.515C153.539 120.515 186.019 158.727 184.109 183.564C180.288 212.223 149.718 219.866 130.612 214.134C111.506 210.313 103.864 189.296 103.864 179.743C103.864 162.548 124.881 120.515 138.255 120.515Z" fill="#CCD8DE"/>
<path opacity="0.4516" d="M138.255 120.515C153.539 120.515 184.109 158.727 182.198 183.564C178.377 210.313 149.718 217.955 130.612 214.134C111.506 210.313 103.864 189.296 103.864 179.743C103.864 162.548 124.881 120.515 138.255 120.515Z" fill="#C8D5DB"/>
<path opacity="0.4839" d="M138.255 120.515C151.629 120.515 184.109 156.816 180.288 181.654C178.377 208.402 149.718 216.044 130.612 212.223C111.506 208.402 103.864 189.296 103.864 179.743C103.864 162.548 124.881 122.426 138.255 120.515Z" fill="#C4D2D9"/>
<path opacity="0.5161" d="M138.255 122.426C151.629 122.426 182.198 158.727 178.377 181.654C176.466 206.491 147.808 214.134 130.612 210.313C111.506 206.491 103.864 187.386 103.864 177.833C105.775 162.548 124.881 122.426 138.255 122.426Z" fill="#C1CFD6"/>
<path opacity="0.5484" d="M136.344 122.426C149.718 122.426 178.377 156.816 176.466 179.743C174.556 202.67 147.807 212.223 132.523 208.402C113.417 204.581 107.685 185.475 107.685 177.833C105.774 162.548 124.88 124.336 136.344 122.426Z" fill="#BDCCD4"/>
<path opacity="0.5806" d="M136.344 124.336C149.718 124.336 176.467 158.727 174.556 181.654C172.645 202.67 147.808 210.313 130.612 208.402C111.507 204.581 105.775 187.386 105.775 177.833C105.775 162.548 124.881 124.336 136.344 124.336Z" fill="#B9C9D1"/>
<path opacity="0.6129" d="M136.344 124.336C147.807 124.336 174.556 156.816 172.645 179.743C170.734 200.76 147.807 208.402 132.523 206.491C113.417 202.67 107.685 185.475 107.685 177.833C107.685 162.548 124.88 126.247 136.344 124.336Z" fill="#B5C6CF"/>
<path opacity="0.6452" d="M136.344 126.247C147.808 126.247 172.645 158.727 170.735 179.743C168.824 200.76 145.897 208.402 132.523 206.491C115.328 202.67 109.596 185.475 109.596 177.833C107.685 162.548 124.88 126.247 136.344 126.247Z" fill="#B1C3CC"/>
<path opacity="0.6774" d="M136.344 126.247C147.808 126.247 170.735 158.727 168.824 177.833C166.913 196.939 145.897 204.581 132.523 202.67C115.328 200.76 109.596 183.564 109.596 175.922C107.685 162.548 124.88 126.247 136.344 126.247Z" fill="#ADC0C9"/>
<path opacity="0.7097" d="M134.433 128.157C143.986 128.157 166.913 158.727 165.003 179.743C163.092 198.849 143.986 206.491 130.612 204.581C113.417 202.67 107.685 185.475 107.685 177.833C109.595 162.548 124.88 128.157 134.433 128.157Z" fill="#A9BDC7"/>
<path opacity="0.7419" d="M134.433 128.157C143.986 128.157 166.913 158.727 165.003 177.833C163.092 195.028 145.897 202.67 132.523 200.76C115.327 198.849 109.596 183.564 109.596 175.922C109.596 164.459 124.88 128.157 134.433 128.157Z" fill="#A5BAC4"/>
<path opacity="0.7742" d="M134.433 130.068C143.986 130.068 165.003 158.727 163.092 177.833C161.181 195.028 145.897 202.67 132.523 200.76C115.327 198.849 109.596 183.564 109.596 175.922C109.596 164.459 124.88 130.068 134.433 130.068Z" fill="#A1B7C2"/>
<path opacity="0.8065" d="M134.433 130.068C142.076 130.068 163.092 158.727 161.182 175.922C159.271 191.207 143.986 198.849 132.523 198.849C115.327 196.939 111.506 181.654 111.506 175.922C111.506 164.459 124.88 130.068 134.433 130.068Z" fill="#9DB4BF"/>
<path opacity="0.8387" d="M132.523 131.978C140.165 131.978 159.271 158.727 157.36 175.922C155.45 191.207 142.076 198.849 130.612 196.939C115.327 195.028 111.506 181.654 111.506 174.011C111.506 164.459 124.88 131.978 132.523 131.978Z" fill="#9AB1BD"/>
<path opacity="0.871" d="M132.523 131.978C140.165 131.978 157.36 158.727 155.45 175.922C153.539 189.296 142.076 196.939 130.612 196.939C115.327 195.028 111.506 181.654 111.506 175.922C111.506 164.458 124.88 131.978 132.523 131.978Z" fill="#96AEBA"/>
<path opacity="0.9032" d="M132.523 131.978C140.165 131.978 155.45 158.727 155.45 174.011C153.539 187.386 142.076 195.028 130.612 195.028C115.327 195.028 111.506 179.743 111.506 174.011C113.417 164.459 124.88 133.889 132.523 131.978Z" fill="#92ABB8"/>
<path opacity="0.9355" d="M132.523 133.889C138.255 133.889 153.539 158.727 153.539 174.011C151.629 185.475 143.986 193.117 132.523 193.117C117.238 193.117 115.327 179.743 115.327 174.011C113.417 164.459 124.88 133.889 132.523 133.889Z" fill="#8EA8B5"/>
<path opacity="0.9677" d="M132.523 133.889C138.255 133.889 153.539 158.727 151.629 172.101C151.629 183.564 142.076 191.207 132.523 191.207C119.149 191.207 115.327 177.833 115.327 172.101C113.417 164.458 126.791 133.889 132.523 133.889Z" fill="#8AA5B3"/>
<path d="M130.612 135.8C136.344 135.8 149.718 158.727 147.808 174.011C147.808 183.564 140.165 191.207 130.612 191.207C117.238 191.207 115.328 177.833 115.328 174.011C115.328 164.459 126.791 135.8 130.612 135.8Z" fill="#86A2B0"/>
</g>
<path d="M149.718 166.369C149.718 181.654 136.344 195.028 121.059 195.028C105.774 195.028 92.4003 181.654 92.4003 166.369C92.4003 139.621 121.059 105.23 121.059 105.23L122.97 103.32V105.23C128.702 114.783 149.718 147.263 149.718 166.369Z" fill="#C4F1FF"/>
<path d="M151.629 168.28C151.629 183.564 138.255 196.939 122.97 196.939C107.685 196.939 94.3112 183.564 94.3112 168.28C94.3112 145.353 122.97 105.23 122.97 105.23C122.97 105.23 151.629 143.442 151.629 168.28Z" fill="url(#paint2_linear_2_4448)"/>
<defs>
<linearGradient id="paint0_linear_2_4448" x1="8.46871" y1="35.0619" x2="78.2969" y2="104.89" gradientUnits="userSpaceOnUse">
<stop stop-color="#6BD9FF"/>
<stop offset="1" stop-color="#3EC9F7"/>
</linearGradient>
<linearGradient id="paint1_linear_2_4448" x1="9.6492" y1="202.355" x2="53.2947" y2="245.999" gradientUnits="userSpaceOnUse">
<stop stop-color="#6BD9FF"/>
<stop offset="1" stop-color="#3EC9F7"/>
</linearGradient>
<linearGradient id="paint2_linear_2_4448" x1="97.0853" y1="129.873" x2="149.025" y2="181.81" gradientUnits="userSpaceOnUse">
<stop stop-color="#6BD9FF"/>
<stop offset="1" stop-color="#3EC9F7"/>
</linearGradient>
</defs>
</svg>
