<svg width="303" height="258" viewBox="0 0 303 258" fill="none" xmlns="http://www.w3.org/2000/svg">
<g style="mix-blend-mode:multiply">
<path d="M250.715 144.01C259.578 192.755 227.082 238.545 178.337 247.408C129.592 256.271 83.8017 223.774 74.939 175.029C66.0763 126.285 98.5728 80.4942 147.318 71.6315C196.062 62.7689 243.33 95.2653 250.715 144.01Z" fill="url(#paint0_radial_2_3900)"/>
</g>
<g style="mix-blend-mode:multiply">
<path d="M293.552 92.3111C303.891 151.396 264.009 209.003 203.448 219.343C144.363 229.683 86.7559 189.801 76.4161 129.239C66.0763 70.1544 105.958 12.547 166.52 2.20726C225.604 -8.13253 283.212 31.7495 293.552 92.3111Z" fill="url(#paint1_radial_2_3900)"/>
</g>
<g style="mix-blend-mode:multiply">
<path d="M300.937 129.239C311.277 188.323 271.395 245.931 212.31 256.271C153.226 266.61 95.6186 226.728 85.2788 167.644C74.939 108.559 114.821 50.952 173.906 40.6122C232.99 30.2724 290.597 70.1545 300.937 129.239Z" fill="url(#paint2_radial_2_3900)"/>
</g>
<g style="mix-blend-mode:multiply" opacity="0.7">
<path d="M218.064 124.963C228.404 184.047 188.522 241.655 129.437 251.994C70.3526 262.334 12.7452 222.452 2.40542 163.368C-7.93437 104.283 31.9477 46.6757 91.0322 36.3359C150.117 25.9961 207.724 65.8781 218.064 124.963Z" fill="url(#paint3_radial_2_3900)"/>
</g>
<path d="M206.402 67.2002L82.3246 192.755C82.3246 192.755 80.8474 192.755 79.3703 192.755C77.8932 192.755 77.8932 192.755 76.4161 191.278C74.939 189.801 74.939 186.846 76.4161 185.369L200.494 61.2918C201.971 59.8147 204.925 59.8147 206.402 61.2918C207.879 64.246 207.879 65.7231 206.402 67.2002Z" fill="white"/>
<path d="M204.925 87.8798C203.448 89.3569 200.494 89.3569 199.016 87.8798L179.814 70.1544C178.337 68.6773 178.337 65.7231 179.814 64.246C181.291 62.7689 184.245 62.7689 185.722 64.246L203.448 81.9713C206.402 83.4484 206.402 86.4027 204.925 87.8798Z" fill="white"/>
<path d="M103.004 189.801C101.527 191.278 98.5728 191.278 97.0957 189.801L79.3703 172.075C77.8932 170.598 77.8932 167.644 79.3703 166.167C80.8474 164.69 83.8017 164.69 85.2788 166.167L103.004 183.892C104.481 185.369 104.481 188.323 103.004 189.801Z" fill="white"/>
<path d="M206.402 191.278C206.402 192.755 204.925 192.755 203.448 192.755C201.971 192.755 201.971 192.755 200.494 191.278L76.4161 68.6773C74.939 67.2002 74.939 64.246 76.4161 62.7689C77.8932 61.2917 77.8932 61.2917 79.3703 61.2917C80.8474 61.2917 80.8474 61.2917 82.3246 62.7689L206.402 186.846C207.879 188.323 207.879 189.801 206.402 191.278Z" fill="white"/>
<path d="M204.925 170.598C204.925 170.598 204.925 172.075 204.925 170.598L185.722 189.801C184.245 191.278 184.245 191.278 182.768 191.278C181.291 191.278 181.291 191.278 179.814 189.801C178.337 188.323 178.337 185.369 179.814 183.892L197.539 166.167C199.016 164.69 199.016 164.69 200.494 164.69C201.971 164.69 201.971 164.69 203.448 166.167C206.402 167.644 206.402 169.121 204.925 170.598Z" fill="white"/>
<path d="M103.004 70.1544L85.2788 87.8798C83.8017 89.3569 82.3246 89.3569 82.3246 89.3569C80.8474 89.3569 79.3703 89.3569 79.3703 87.8798C77.8932 86.4027 77.8932 83.4484 79.3703 81.9713L97.0957 64.246C98.5728 62.7689 98.5728 62.7689 100.05 62.7689C101.527 62.7689 101.527 62.7689 103.004 64.246C104.481 65.7231 104.481 68.6773 103.004 70.1544Z" fill="white"/>
<path d="M144.363 217.866C142.886 219.343 142.886 219.343 141.409 219.343C139.932 219.343 139.932 219.343 138.455 217.866C136.978 216.389 136.978 216.389 136.978 214.911V39.1351C136.978 37.6579 136.978 37.6579 138.455 36.1808C138.455 36.1808 139.932 34.7037 141.409 34.7037C142.886 34.7037 142.886 34.7037 144.363 36.1808C145.84 37.6579 145.84 37.6579 145.84 39.1351V214.911C145.84 216.389 145.84 216.389 144.363 217.866Z" fill="white"/>
<path d="M157.657 201.617C156.18 203.095 156.18 203.095 154.703 203.095H129.592C128.115 203.095 128.115 203.095 126.638 201.617C125.161 200.14 125.161 200.14 125.161 198.663C125.161 197.186 125.161 197.186 126.638 195.709C128.115 194.232 128.115 194.232 129.592 194.232H154.703C156.18 194.232 156.18 194.232 157.657 195.709C159.134 197.186 159.134 197.186 159.134 198.663C159.134 200.14 159.134 200.14 157.657 201.617Z" fill="white"/>
<path d="M157.657 58.3375C156.18 59.8146 156.18 59.8146 154.703 59.8146H128.115C126.638 59.8146 125.161 58.3375 125.161 55.3833C125.161 53.9062 125.161 53.9062 126.638 52.4291C128.115 50.952 128.115 50.952 129.592 50.952H154.703C156.18 50.952 156.18 50.952 157.657 52.4291C159.134 53.9062 159.134 53.9062 159.134 55.3833C159.134 56.8604 157.657 56.8604 157.657 58.3375Z" fill="white"/>
<path d="M232.99 129.239C231.513 130.716 231.513 130.716 230.036 130.716H54.2594C52.7823 130.716 52.7823 130.716 51.3052 129.239C49.8281 129.239 49.8281 127.762 49.8281 127.762C49.8281 126.285 49.8281 126.285 51.3052 124.808C52.7823 123.33 52.7823 123.33 54.2594 123.33H230.036C231.513 123.33 231.513 123.33 232.99 124.808C234.467 126.285 234.467 126.285 234.467 127.762C232.99 127.762 232.99 129.239 232.99 129.239Z" fill="white"/>
<path d="M73.4619 142.533C71.9848 144.01 70.5076 144.01 70.5076 144.01C69.0305 144.01 69.0305 144.01 67.5534 142.533C66.0763 142.533 66.0763 141.056 66.0763 139.579V114.468C66.0763 112.991 66.0763 112.991 67.5534 111.514C69.0305 110.036 69.0305 110.036 70.5076 110.036C71.9848 110.036 71.9848 110.036 73.4619 111.514C74.939 112.991 74.939 112.991 74.939 114.468V139.579C73.4619 141.056 73.4619 142.533 73.4619 142.533Z" fill="white"/>
<path d="M216.742 142.533C215.265 144.01 215.265 144.01 213.788 144.01C212.31 144.01 212.31 144.01 210.833 142.533C209.356 141.056 209.356 141.056 209.356 139.579V114.468C209.356 112.991 209.356 112.991 210.833 111.514C212.31 110.036 212.31 110.036 213.788 110.036C215.265 110.036 215.265 110.036 216.742 111.514C218.219 112.991 218.219 112.991 218.219 114.468V139.579C216.742 141.056 216.742 141.056 216.742 142.533Z" fill="white"/>
<path d="M179.814 163.213C179.814 164.69 178.337 164.69 179.814 163.213C178.337 164.69 176.86 164.69 176.86 164.69L157.657 161.735L144.363 177.984C144.363 179.461 142.886 179.461 141.409 179.461C139.932 179.461 138.455 179.461 138.455 177.984L126.638 161.735L107.435 164.69C105.958 164.69 104.481 164.69 104.481 163.213C103.004 161.735 103.004 161.735 103.004 160.258L105.958 141.056L91.1872 130.716C89.7101 130.716 89.7101 129.239 89.7101 127.762C89.7101 126.285 89.7101 126.285 89.7101 126.285C89.7101 126.285 89.7101 126.285 91.1872 124.808L107.435 112.991L103.004 93.7882C103.004 92.3111 103.004 92.3111 103.004 90.834C105.958 89.3569 105.958 89.3569 107.435 89.3569L126.638 92.3111C138.455 76.0629 138.455 76.0629 138.455 76.0629C139.932 74.5858 139.932 74.5858 141.409 74.5858C142.886 74.5858 144.363 74.5858 144.363 76.0629L156.18 92.3111L175.383 89.3569C176.86 89.3569 178.337 89.3569 178.337 89.3569C179.814 90.834 179.814 90.834 179.814 92.3111L176.86 112.991L193.108 124.808C193.108 124.808 193.108 124.808 194.585 124.808C196.062 126.285 196.062 127.762 194.585 129.239L176.86 141.056L179.814 160.258C179.814 161.735 179.814 163.213 179.814 163.213ZM151.749 155.827C153.226 154.35 154.703 154.35 154.703 154.35L170.951 157.304L169.474 141.056C169.474 139.579 169.474 139.579 169.474 138.102C169.474 138.102 169.474 138.102 170.951 136.624L184.245 126.285L170.951 117.422C169.474 115.945 169.474 114.468 169.474 114.468L172.428 98.2196L154.703 99.6967C153.226 99.6967 151.749 99.6967 151.749 98.2196L141.409 84.9256L131.069 98.2196C131.069 99.6967 129.592 99.6967 128.115 99.6967L111.867 96.7425L114.821 112.991C114.821 114.468 114.821 114.468 114.821 115.945C114.821 115.945 114.821 115.945 113.344 117.422L98.5728 127.762L111.867 138.102C113.344 139.579 113.344 139.579 113.344 141.056L110.39 157.304L126.638 154.35C128.115 154.35 129.592 154.35 129.592 155.827L139.932 169.121L151.749 155.827Z" fill="white"/>
<path d="M204.925 154.35C204.925 154.35 203.448 154.35 204.925 154.35C203.448 155.827 203.448 155.827 203.448 155.827L176.86 161.735L170.951 188.323V189.801L169.474 191.278C167.997 191.278 166.52 191.278 166.52 191.278L144.363 176.507L122.207 191.278C120.729 191.278 119.252 191.278 119.252 191.278C117.775 191.278 117.775 189.801 117.775 188.323L111.867 161.735L85.2788 155.827C83.8017 155.827 83.8017 154.35 82.3246 154.35C82.3246 152.873 82.3246 151.396 82.3246 151.396L97.0957 129.239L79.3703 104.128C79.3703 102.651 79.3703 101.174 79.3703 101.174C79.3703 101.174 79.3703 101.174 79.3703 99.6967L80.8474 98.2196L107.435 92.3111L113.344 65.7231V64.246L114.821 62.7689C116.298 62.7689 117.775 62.7689 117.775 62.7689L139.932 77.54L162.089 62.7689C163.566 62.7689 165.043 62.7689 165.043 62.7689C166.52 62.7689 166.52 64.246 166.52 65.7231L172.428 92.3111L199.016 98.2196C200.494 98.2196 200.494 99.6967 201.971 99.6967C201.971 101.174 201.971 102.651 201.971 102.651L187.2 124.808L201.971 146.964C204.925 151.396 204.925 152.873 204.925 154.35C204.925 152.873 204.925 154.35 204.925 154.35ZM169.474 155.827L170.951 154.35L194.585 148.441L182.768 129.239C182.768 127.762 182.768 126.285 182.768 124.808L196.062 104.128L172.428 99.6967C170.951 99.6967 169.474 98.2196 169.474 96.7425L163.566 73.1087L142.886 86.4027C141.409 86.4027 139.932 87.8798 138.455 86.4027L119.252 73.1087L113.344 96.7425V98.2196L111.867 99.6967L88.233 105.605L101.527 126.285C101.527 127.762 103.004 129.239 101.527 130.716L88.233 151.396L111.867 157.304C113.344 157.304 114.821 158.781 114.821 160.258L120.729 183.892L141.409 170.598C142.886 170.598 144.363 170.598 145.84 170.598L166.52 183.892L169.474 155.827C169.474 157.304 169.474 157.304 169.474 155.827Z" fill="white"/>
<path d="M209.356 67.2002L85.2788 191.278C83.8017 192.755 82.3246 192.755 82.3246 192.755C80.8474 192.755 79.3703 192.755 79.3703 191.278C77.8932 189.801 77.8932 186.846 79.3703 185.369L203.448 61.2918C204.925 59.8147 207.879 59.8147 209.356 61.2918C209.356 62.7689 209.356 65.7231 209.356 67.2002Z" fill="#E1F0FA"/>
<path d="M206.402 87.8798C204.925 89.3569 201.971 89.3569 200.494 87.8798L182.768 70.1544C181.291 68.6773 181.291 65.7231 182.768 64.246C184.245 62.7689 187.2 62.7689 188.677 64.246L206.402 81.9713C207.879 83.4485 207.879 84.9256 206.402 87.8798Z" fill="#E1F0FA"/>
<path d="M105.958 188.323C105.958 188.323 104.481 188.323 105.958 188.323C104.481 189.801 101.527 189.801 100.05 188.323L82.3246 170.598C80.8474 169.121 80.8474 166.167 82.3246 164.69C83.8017 163.213 86.7559 163.213 88.233 164.69L105.958 182.415C105.958 185.369 105.958 186.846 105.958 188.323Z" fill="#E1F0FA"/>
<path d="M209.356 191.278C207.879 192.755 206.402 192.755 206.402 192.755C204.925 192.755 204.925 192.755 203.448 191.278L77.8932 67.2002C76.4161 65.7231 76.4161 62.7689 77.8932 61.2918C79.3703 61.2918 80.8474 59.8147 80.8474 59.8147C80.8474 59.8147 82.3246 59.8147 83.8017 61.2918L207.879 185.369C209.356 186.846 210.833 189.801 209.356 191.278Z" fill="#E1F0FA"/>
<path d="M206.402 170.598L187.2 189.801C185.722 191.278 185.722 191.278 184.245 191.278C182.768 191.278 182.768 191.278 181.291 189.801C179.814 188.323 179.814 185.369 181.291 183.892L199.016 166.167C200.494 164.69 200.494 164.69 201.971 164.69C203.448 164.69 203.448 164.69 204.925 166.167C207.879 166.167 207.879 169.121 206.402 170.598Z" fill="#E1F0FA"/>
<path d="M105.958 68.6773C104.481 68.6773 104.481 70.1544 105.958 68.6773L86.7559 87.8798C85.2788 87.8798 85.2788 89.3569 83.8017 89.3569C82.3246 89.3569 82.3246 89.3569 80.8474 87.8798C79.3703 86.4027 79.3703 83.4485 80.8474 81.9713L98.5728 64.246C100.05 62.7689 100.05 62.7689 101.527 62.7689C103.004 62.7689 103.004 62.7689 104.481 64.246C105.958 65.7231 105.958 67.2002 105.958 68.6773Z" fill="#E1F0FA"/>
<path d="M147.318 216.389C145.84 217.866 145.84 217.866 144.363 217.866C142.886 217.866 142.886 217.866 141.409 216.389C139.932 214.911 139.932 214.911 139.932 213.434V37.658C139.932 36.1808 139.932 36.1808 141.409 34.7037C142.886 33.2266 142.886 33.2266 144.363 33.2266C145.84 33.2266 145.84 33.2266 147.318 34.7037C148.795 36.1808 148.795 36.1808 148.795 37.658V213.434C147.318 214.911 147.318 216.389 147.318 216.389Z" fill="#E1F0FA"/>
<path d="M159.134 200.14C159.134 200.14 159.134 201.617 159.134 200.14C157.657 201.617 157.657 201.617 156.18 201.617H131.069C129.592 201.617 129.592 201.617 128.115 200.14C126.638 198.663 126.638 198.663 126.638 197.186C126.638 195.709 126.638 195.709 128.115 194.232C129.592 192.755 129.592 192.755 131.069 192.755H156.18C157.657 192.755 157.657 192.755 159.134 194.232C160.612 195.709 160.612 195.709 160.612 197.186C160.612 198.663 160.612 200.14 159.134 200.14Z" fill="#E1F0FA"/>
<path d="M159.134 56.8604C159.134 58.3375 157.657 58.3375 156.18 58.3375H131.069C128.115 58.3375 126.638 56.8604 126.638 53.9062C126.638 52.4291 126.638 52.4291 128.115 50.952C129.592 49.4749 129.592 49.4749 131.069 49.4749H156.18C157.657 49.4749 157.657 49.4749 159.134 50.952C160.612 52.4291 160.612 52.4291 160.612 53.9062C160.612 55.3833 160.612 56.8604 159.134 56.8604Z" fill="#E1F0FA"/>
<path d="M234.467 129.239C232.99 130.716 232.99 130.716 231.513 130.716H55.7365C54.2594 130.716 54.2594 130.716 52.7823 129.239C52.7823 129.239 51.3052 127.762 51.3052 126.285C51.3052 124.808 51.3052 124.808 52.7823 123.331C54.2594 121.853 54.2594 121.853 55.7365 121.853H231.513C232.99 121.853 232.99 121.853 234.467 123.331C235.944 124.808 235.944 124.808 235.944 126.285C235.944 127.762 234.467 127.762 234.467 129.239Z" fill="#E1F0FA"/>
<path d="M74.939 142.533C73.4619 142.533 73.4619 144.01 71.9848 144.01C70.5077 144.01 70.5077 144.01 69.0305 142.533C67.5534 141.056 67.5534 141.056 67.5534 139.579V114.468C67.5534 112.991 67.5534 112.991 69.0305 111.514C70.5077 110.036 70.5077 110.036 71.9848 110.036C73.4619 110.036 73.4619 110.036 74.939 111.514C76.4161 112.991 76.4161 112.991 76.4161 114.468V139.579C76.4161 139.579 76.4161 141.056 74.939 142.533Z" fill="#E1F0FA"/>
<path d="M218.219 141.056C218.219 142.533 218.219 142.533 218.219 141.056C216.742 142.533 216.742 142.533 215.265 142.533C213.788 142.533 213.788 142.533 212.31 141.056C210.833 139.579 210.833 139.579 210.833 138.102V112.991C210.833 111.514 210.833 111.514 212.31 110.036C213.788 108.559 213.788 108.559 215.265 108.559C216.742 108.559 216.742 108.559 218.219 110.036C219.696 111.514 219.696 111.514 219.696 112.991V138.102C219.696 139.579 219.696 141.056 218.219 141.056Z" fill="#E1F0FA"/>
<path d="M181.291 163.213C179.814 164.69 178.337 164.69 178.337 164.69L159.134 161.735L147.318 177.984C147.318 179.461 145.84 179.461 144.363 179.461C142.886 179.461 141.409 179.461 141.409 177.984L129.592 161.735L110.39 164.69C108.913 164.69 107.435 164.69 107.435 163.213C105.958 161.735 105.958 161.735 105.958 160.258L108.913 141.056L92.6643 129.239C91.1872 129.239 91.1872 127.762 91.1872 126.285C91.1872 124.808 91.1872 124.808 91.1872 123.331C91.1872 123.331 91.1872 123.33 92.6643 121.853L108.913 111.514L105.958 92.3111C105.958 90.834 105.958 90.834 105.958 89.3569C107.435 87.8798 108.913 87.8798 108.913 87.8798L128.115 90.834C139.932 74.5858 139.932 74.5858 139.932 74.5858C141.409 74.5858 142.886 74.5858 142.886 74.5858C144.363 74.5858 145.84 74.5858 145.84 76.0629L157.657 92.3111L176.86 89.3569C178.337 89.3569 179.814 89.3569 179.814 90.834C181.291 92.3111 181.291 92.3111 181.291 93.7883L178.337 111.514L194.585 123.331C194.585 123.331 194.585 123.331 196.062 123.331C197.539 124.808 197.539 126.285 196.062 127.762L178.337 141.056L181.291 160.258C181.291 161.735 181.291 161.735 181.291 163.213ZM153.226 155.827C153.226 155.827 153.226 154.35 153.226 155.827C154.703 154.35 156.18 154.35 156.18 154.35L172.428 157.304L170.951 139.579C170.951 138.102 170.951 138.102 170.951 136.625C170.951 136.625 170.951 136.625 172.428 135.147L185.722 124.808L172.428 115.945C170.951 115.945 170.951 114.468 170.951 112.991L173.906 96.7425L157.657 99.6967C156.18 99.6967 154.703 99.6967 154.703 98.2196L142.886 83.4485L134.023 98.2196C132.546 98.2196 131.069 99.6967 129.592 99.6967L113.344 96.7425L116.298 112.991C116.298 114.468 116.298 114.468 116.298 115.945C116.298 115.945 116.298 115.945 114.821 117.422L101.527 126.285L114.821 136.625C116.298 138.102 116.298 138.102 116.298 139.579L113.344 155.827L129.592 152.873C131.069 152.873 132.546 152.873 132.546 154.35L142.886 167.644L153.226 155.827Z" fill="#E1F0FA"/>
<path d="M206.402 152.873C206.402 152.873 206.402 154.35 206.402 152.873C204.925 154.35 204.925 154.35 204.925 154.35L178.337 160.258L172.428 186.846V188.323L170.951 189.801C169.474 189.801 167.997 189.801 167.997 189.801L145.84 175.029L123.684 189.801C122.207 189.801 120.729 189.801 120.729 189.801C119.252 189.801 119.252 188.323 119.252 186.846L108.913 161.735L82.3246 155.827C80.8474 155.827 80.8474 154.35 79.3703 154.35C79.3703 152.873 79.3703 151.396 79.3703 151.396L94.1415 129.239L80.8474 104.128C80.8474 102.651 80.8474 101.174 80.8474 101.174C80.8474 101.174 80.8474 101.174 80.8474 99.6967L82.3246 98.2196L108.913 92.3111L114.821 65.7231V64.246L116.298 62.7689C117.775 62.7689 119.252 62.7689 119.252 62.7689L141.409 77.54L163.566 62.7689C165.043 62.7689 166.52 62.7689 166.52 62.7689C167.997 62.7689 167.997 64.246 167.997 65.7231L173.906 92.3111L200.494 98.2196C201.971 98.2196 201.971 99.6967 203.448 99.6967C203.448 101.174 203.448 102.651 203.448 102.651L188.677 124.808L203.448 146.964C206.402 149.919 207.879 151.396 206.402 152.873ZM172.428 155.827L173.906 154.35L197.539 148.441L184.245 127.762C184.245 126.285 184.245 124.808 184.245 123.331L197.539 104.128L173.906 98.2196C172.428 98.2196 170.951 96.7425 170.951 95.2654L166.52 73.1087L145.84 84.9256C144.363 84.9256 142.886 84.9256 141.409 84.9256L120.729 73.1087L116.298 95.2654V96.7425L114.821 98.2196L89.7101 104.128L103.004 124.808C104.481 126.285 104.481 127.762 103.004 129.239L89.7101 148.441L113.344 154.35C114.821 154.35 116.298 155.827 116.298 157.304L122.207 180.938L142.886 167.644C144.363 167.644 145.84 167.644 147.318 167.644L167.997 180.938L172.428 155.827C170.951 155.827 172.428 155.827 172.428 155.827Z" fill="#E1F0FA"/>
<defs>
<radialGradient id="paint0_radial_2_3900" cx="0" cy="0" r="1" gradientUnits="userSpaceOnUse" gradientTransform="translate(163.057 159.651) rotate(-9.75807) scale(89.3404)">
<stop stop-color="#AED5EB"/>
<stop offset="0.186" stop-color="#C0DEEF"/>
<stop offset="0.694" stop-color="#EEF6FB"/>
<stop offset="0.95" stop-color="white"/>
</radialGradient>
<radialGradient id="paint1_radial_2_3900" cx="0" cy="0" r="1" gradientUnits="userSpaceOnUse" gradientTransform="translate(185.162 110.427) rotate(-9.75807) scale(109.685 109.685)">
<stop stop-color="#AED5EB"/>
<stop offset="0.186" stop-color="#C0DEEF"/>
<stop offset="0.694" stop-color="#EEF6FB"/>
<stop offset="0.95" stop-color="white"/>
</radialGradient>
<radialGradient id="paint2_radial_2_3900" cx="0" cy="0" r="1" gradientUnits="userSpaceOnUse" gradientTransform="translate(192.336 148.091) rotate(-9.75807) scale(109.485 109.485)">
<stop stop-color="#AED5EB"/>
<stop offset="0.186" stop-color="#C0DEEF"/>
<stop offset="0.694" stop-color="#EEF6FB"/>
<stop offset="0.95" stop-color="white"/>
</radialGradient>
<radialGradient id="paint3_radial_2_3900" cx="0" cy="0" r="1" gradientUnits="userSpaceOnUse" gradientTransform="translate(109.463 143.814) rotate(-9.75807) scale(109.485 109.485)">
<stop stop-color="#AED5EB"/>
<stop offset="0.186" stop-color="#C0DEEF"/>
<stop offset="0.694" stop-color="#EEF6FB"/>
<stop offset="0.95" stop-color="white"/>
</radialGradient>
</defs>
</svg>
