<svg width="273" height="280" viewBox="0 0 273 280" fill="none" xmlns="http://www.w3.org/2000/svg">
<g style="mix-blend-mode:multiply">
<path opacity="0.047619" d="M205.409 129.479C188.46 122.699 186.765 105.751 202.019 90.4968C210.493 82.0224 224.052 78.6327 239.306 80.3275C256.255 83.7173 263.035 95.5814 252.865 110.835C241.001 126.089 222.358 134.564 205.409 129.479Z" fill="#F9FBFB"/>
<path opacity="0.095238" d="M205.409 127.784C188.46 121.005 186.765 104.056 202.019 90.4968C210.493 82.0224 224.052 78.6327 239.306 80.3275C256.255 82.0224 263.035 95.5814 251.17 110.835C241.001 124.394 222.358 134.564 205.409 127.784Z" fill="#F3F6F7"/>
<path opacity="0.1429" d="M207.104 127.784C190.155 122.699 188.46 105.751 203.714 92.1917C212.188 85.4122 225.747 80.3275 239.306 82.0224C254.56 83.7173 261.34 97.2763 251.171 110.835C241.001 124.394 222.358 132.869 207.104 127.784Z" fill="#EEF2F4"/>
<path opacity="0.1905" d="M207.104 126.089C190.155 121.005 190.155 104.056 203.714 90.4968C212.189 83.7173 224.053 78.6327 239.307 82.0224C254.56 85.4122 261.34 97.2763 251.171 110.835C241.001 122.699 222.358 131.174 207.104 126.089Z" fill="#E8EDF0"/>
<path opacity="0.2381" d="M208.798 126.089C191.85 121.005 191.85 104.056 205.409 92.1917C213.883 85.4122 225.747 82.0224 239.306 83.7173C254.56 85.4122 259.645 97.2763 249.475 110.835C239.306 122.699 222.357 131.174 208.798 126.089Z" fill="#E2E9EC"/>
<path opacity="0.2857" d="M208.798 124.394C193.545 119.31 191.85 104.056 205.409 92.1917C213.883 85.4122 225.747 82.0224 239.306 83.7173C252.865 85.4122 259.645 97.2763 249.475 110.835C239.306 121.005 222.357 129.479 208.798 124.394Z" fill="#DCE4E8"/>
<path opacity="0.3333" d="M208.798 124.394C193.545 121.005 191.85 104.056 205.409 92.1917C213.883 85.4122 225.747 82.0224 237.611 83.7173C251.17 85.4122 257.95 97.2763 246.086 109.14C239.306 121.005 224.052 127.784 208.798 124.394Z" fill="#D7E0E5"/>
<path opacity="0.381" d="M210.493 124.394C195.239 121.005 195.239 105.751 207.104 93.8865C215.578 87.107 227.442 83.7173 239.306 85.4122C252.865 87.107 257.95 97.2763 247.781 110.835C237.611 121.005 224.052 127.784 210.493 124.394Z" fill="#D1DCE1"/>
<path opacity="0.4286" d="M210.493 122.699C195.239 119.31 195.239 104.056 207.104 93.8865C215.578 87.107 227.442 83.7173 237.611 85.4122C249.475 87.107 256.255 97.2763 246.086 109.14C237.611 119.31 224.052 126.089 210.493 122.699Z" fill="#CBD7DD"/>
<path opacity="0.4762" d="M210.493 122.699C195.239 119.31 195.239 104.056 207.104 95.5814C217.273 87.1071 227.442 85.4122 239.306 85.4122C251.17 87.1071 256.255 97.2763 246.086 109.14C237.611 119.31 224.052 124.394 210.493 122.699Z" fill="#C5D3D9"/>
<path opacity="0.5238" d="M212.188 121.005C198.629 117.615 196.934 104.056 208.799 93.8866C217.273 88.8019 229.137 85.4122 237.612 87.1071C249.476 88.8019 254.56 97.2763 244.391 109.14C237.612 117.615 224.053 124.394 212.188 121.005Z" fill="#C0CED6"/>
<path opacity="0.5714" d="M212.188 121.005C198.629 119.31 196.934 104.056 208.799 95.5814C217.273 88.8019 227.442 87.107 237.612 88.8019C247.781 90.4968 252.865 98.9712 244.391 109.14C235.917 117.615 224.052 122.699 212.188 121.005Z" fill="#BACAD2"/>
<path opacity="0.619" d="M212.188 119.31C198.629 117.615 198.629 104.056 208.798 95.5814C217.273 88.8019 227.442 87.107 235.916 88.8019C246.086 90.4968 251.17 98.9712 241.001 109.14C235.916 115.92 224.052 121.005 212.188 119.31Z" fill="#B4C5CE"/>
<path opacity="0.6667" d="M213.883 119.31C200.324 117.615 200.324 104.056 210.493 95.5814C218.968 88.8019 229.137 87.107 237.611 88.8019C247.781 90.4968 251.17 97.2763 242.696 107.446C235.916 115.92 225.747 119.31 213.883 119.31Z" fill="#AEC1CA"/>
<path opacity="0.7143" d="M213.883 117.615C200.324 115.92 200.324 104.056 210.493 95.5814C218.968 90.4968 229.137 88.8019 235.916 88.8019C244.391 90.4968 249.475 97.2763 239.306 107.446C234.222 114.225 225.747 119.31 213.883 117.615Z" fill="#A9BDC7"/>
<path opacity="0.7619" d="M215.578 117.615C202.019 115.92 202.019 104.056 212.188 97.2763C220.663 90.4968 230.832 88.8019 237.611 90.4968C246.086 90.4968 251.17 98.9712 241.001 107.446C234.222 114.225 225.747 117.615 215.578 117.615Z" fill="#A3B8C3"/>
<path opacity="0.8095" d="M215.578 115.92C203.714 115.92 202.019 102.361 212.188 95.5814C220.663 90.4968 230.832 90.4968 237.612 90.4968C246.086 90.4968 249.476 97.2763 241.001 107.446C234.222 114.225 225.747 115.92 215.578 115.92Z" fill="#9DB4BF"/>
<path opacity="0.8571" d="M215.578 115.92C203.714 115.92 203.714 104.056 212.188 97.2763C220.663 92.1917 230.832 90.4968 235.917 90.4968C242.696 90.4968 247.781 97.2763 237.611 105.751C234.222 112.53 225.747 115.92 215.578 115.92Z" fill="#97AFBB"/>
<path opacity="0.9048" d="M217.273 114.225C205.409 114.225 205.409 102.361 213.883 97.2763C222.358 92.1917 230.832 90.4968 237.612 92.1917C244.391 92.1917 247.781 98.9712 239.306 107.446C232.527 112.53 225.747 114.225 217.273 114.225Z" fill="#92ABB8"/>
<path opacity="0.9524" d="M217.273 114.225C205.409 114.225 205.409 104.056 213.883 98.9712C222.358 93.8866 230.832 93.8866 235.917 93.8866C242.696 93.8866 246.086 100.666 237.612 107.446C232.527 110.835 225.747 112.53 217.273 114.225Z" fill="#8CA6B4"/>
<path d="M217.273 112.53C205.409 114.225 205.409 102.361 213.883 97.2763C222.358 92.1917 230.832 92.1917 235.917 92.1917C241.001 92.1917 246.086 97.2763 235.917 105.751C232.527 110.835 227.442 112.53 217.273 112.53Z" fill="#86A2B0"/>
<path opacity="0.047619" d="M183.375 82.0224C166.427 90.4968 149.478 75.2429 151.173 54.9044C151.173 43.0402 157.952 31.1761 169.816 21.0068C183.375 10.8376 202.019 22.7017 205.409 39.6505C207.104 58.2941 198.629 75.2429 183.375 82.0224Z" fill="#F9FBFB"/>
<path opacity="0.095238" d="M183.376 82.0224C166.427 90.4968 151.173 76.9378 151.173 54.9044C151.173 43.0403 157.952 31.1761 169.817 22.7017C183.376 12.5325 202.019 22.7017 203.714 41.3454C205.409 58.2941 198.629 73.548 183.376 82.0224Z" fill="#F3F6F7"/>
<path opacity="0.1429" d="M183.376 80.3275C166.427 88.8019 151.173 75.2429 151.173 54.9044C152.868 43.0403 159.647 31.1761 169.817 22.7017C183.376 12.5325 200.324 22.7017 202.019 41.3454C205.409 56.5993 196.935 73.548 183.376 80.3275Z" fill="#EEF2F4"/>
<path opacity="0.1905" d="M183.375 78.6326C166.427 87.107 151.173 73.548 152.868 54.9044C152.868 43.0402 159.647 32.871 171.511 24.3966C183.375 15.9222 200.324 24.3966 202.019 43.0402C203.714 56.5992 196.934 71.8531 183.375 78.6326Z" fill="#E8EDF0"/>
<path opacity="0.2381" d="M181.681 76.9378C168.122 85.4122 152.868 73.548 152.868 53.2095C152.868 41.3454 159.647 31.1761 169.817 22.7017C181.681 14.2273 198.629 22.7017 200.324 39.6505C202.019 56.5993 195.24 70.1583 181.681 76.9378Z" fill="#E2E9EC"/>
<path opacity="0.2857" d="M181.681 76.9378C168.121 85.4122 152.868 71.8531 154.563 53.2095C154.563 43.0402 161.342 31.1761 171.511 22.7017C183.375 14.2273 198.629 22.7017 200.324 39.6505C202.019 56.5993 195.24 70.1583 181.681 76.9378Z" fill="#DCE4E8"/>
<path opacity="0.3333" d="M181.681 75.2429C168.122 83.7173 152.868 71.8531 154.563 53.2095C156.257 43.0402 161.342 31.1761 171.511 24.3966C181.681 15.9222 196.934 24.3966 198.629 41.3453C200.324 54.9044 193.545 68.4634 181.681 75.2429Z" fill="#D7E0E5"/>
<path opacity="0.381" d="M181.681 73.548C168.122 82.0224 154.563 70.1582 156.257 53.2095C157.952 43.0402 163.037 31.1761 173.206 24.3966C183.375 15.9222 198.629 24.3966 198.629 39.6505C198.629 54.9043 193.545 66.7685 181.681 73.548Z" fill="#D1DCE1"/>
<path opacity="0.4286" d="M181.681 73.548C168.122 82.0224 154.563 70.1582 156.257 53.2095C157.952 43.0402 163.037 32.871 173.206 26.0915C183.375 17.6171 196.934 26.0915 198.629 41.3454C198.629 54.9044 191.85 66.7685 181.681 73.548Z" fill="#CBD7DD"/>
<path opacity="0.4762" d="M179.986 71.8531C168.121 80.3275 154.562 68.4634 156.257 53.2095C157.952 43.0402 163.037 32.871 171.511 26.0915C181.68 19.3119 193.545 26.0915 195.239 41.3453C196.934 53.2095 191.85 65.0736 179.986 71.8531Z" fill="#C5D3D9"/>
<path opacity="0.5238" d="M179.986 70.1583C168.121 78.6326 156.257 68.4634 157.952 53.2095C159.647 43.0402 164.732 32.871 173.206 27.7863C181.68 21.0068 195.239 26.0915 195.239 41.3454C196.934 53.2095 191.85 63.3787 179.986 70.1583Z" fill="#C0CED6"/>
<path opacity="0.5714" d="M179.986 70.1583C168.121 78.6326 156.257 68.4634 157.952 53.2095C159.647 43.0402 166.427 32.871 173.206 27.7863C181.68 21.0068 193.545 26.0915 193.545 41.3454C195.239 53.2095 190.155 63.3787 179.986 70.1583Z" fill="#BACAD2"/>
<path opacity="0.619" d="M179.986 68.4634C168.121 76.9378 156.257 66.7685 159.647 53.2095C161.342 43.0402 168.121 34.5658 174.901 27.7863C183.375 21.0068 193.545 26.0915 195.239 41.3454C193.545 51.5146 190.155 61.6839 179.986 68.4634Z" fill="#B4C5CE"/>
<path opacity="0.6667" d="M179.986 66.7685C168.121 75.2429 157.952 66.7685 159.647 53.2095C161.342 43.0402 168.121 34.5658 173.206 29.4812C181.68 22.7017 191.85 27.7863 191.85 41.3453C193.545 51.5146 188.46 59.989 179.986 66.7685Z" fill="#AEC1CA"/>
<path opacity="0.7143" d="M178.291 66.7685C168.121 75.2429 157.952 65.0736 161.342 51.5146C163.037 43.0402 168.121 34.5658 174.901 29.4812C181.68 24.3966 191.85 27.7863 191.85 41.3453C191.85 51.5146 188.46 59.989 178.291 66.7685Z" fill="#A9BDC7"/>
<path opacity="0.7619" d="M178.291 65.0736C169.816 73.548 159.647 65.0736 161.342 51.5146C163.037 43.0402 169.816 34.5658 174.901 29.4812C181.68 24.3966 190.155 27.7863 190.155 41.3453C190.155 49.8197 186.765 58.2941 178.291 65.0736Z" fill="#A3B8C3"/>
<path opacity="0.8095" d="M178.291 63.3787C169.816 71.8531 159.647 63.3787 161.342 51.5146C163.037 41.3453 169.816 34.5658 174.901 29.4812C181.68 24.3966 190.155 27.7863 190.155 41.3453C190.155 49.8197 186.765 56.5992 178.291 63.3787Z" fill="#9DB4BF"/>
<path opacity="0.8571" d="M178.291 63.3788C169.816 71.8531 159.647 63.3788 163.037 51.5146C164.732 41.3454 171.511 34.5659 174.901 31.1761C179.986 26.0915 188.46 29.4812 188.46 41.3454C188.46 49.8197 185.07 56.5993 178.291 63.3788Z" fill="#97AFBB"/>
<path opacity="0.9048" d="M178.291 61.6839C169.817 70.1583 161.342 61.6839 163.037 51.5146C164.732 41.3454 171.511 34.5659 174.901 31.1761C179.986 26.0915 186.765 29.4812 186.765 41.3454C188.46 49.8197 185.07 54.9044 178.291 61.6839Z" fill="#92ABB8"/>
<path opacity="0.9524" d="M178.291 59.989C169.817 70.1582 161.342 61.6839 164.732 51.5146C166.427 41.3453 173.206 34.5658 176.596 31.1761C179.986 27.7863 186.765 29.4812 186.765 41.3453C186.765 48.1248 183.376 53.2095 178.291 59.989Z" fill="#8CA6B4"/>
<path d="M176.596 59.989C169.816 68.4634 163.037 59.989 164.732 51.5146C166.427 41.3454 173.206 34.5659 176.596 32.871C179.986 27.7864 186.765 29.4812 186.765 41.3454C185.07 48.1249 183.375 53.2095 176.596 59.989Z" fill="#86A2B0"/>
<path opacity="0.047619" d="M129.139 61.6839C124.054 80.3275 105.411 82.0224 90.1569 68.4634C81.6825 59.989 76.5979 46.43 78.2928 31.1761C79.9876 14.2273 98.6313 10.8376 115.58 21.0068C129.139 31.1761 132.529 46.43 129.139 61.6839Z" fill="#F9FBFB"/>
<path opacity="0.095238" d="M127.444 61.6839C122.36 78.6326 105.411 82.0224 90.1569 66.7685C81.6825 59.989 76.5979 46.43 78.2928 31.1761C79.9876 14.2273 98.6313 12.5324 113.885 22.7017C127.444 32.871 132.529 46.43 127.444 61.6839Z" fill="#F3F6F7"/>
<path opacity="0.1429" d="M127.444 61.6839C122.36 78.6326 105.411 80.3275 91.8519 66.7685C83.3775 58.2941 78.2928 46.43 78.2928 31.1761C79.9877 15.9222 96.9365 12.5325 112.19 22.7017C127.444 32.871 130.834 46.43 127.444 61.6839Z" fill="#EEF2F4"/>
<path opacity="0.1905" d="M125.749 59.989C122.36 76.9378 105.411 78.6326 90.157 65.0736C81.6826 56.5992 78.2928 44.7351 78.2928 31.1761C79.9877 15.9222 96.9365 12.5324 110.495 22.7017C125.749 32.871 129.139 44.7351 125.749 59.989Z" fill="#E8EDF0"/>
<path opacity="0.2381" d="M125.749 59.989C122.36 76.9378 105.411 78.6326 91.8519 65.0736C83.3776 56.5992 79.9878 44.7351 79.9878 31.1761C81.6827 15.9222 98.6314 14.2273 112.19 22.7017C124.055 32.871 129.139 44.7351 125.749 59.989Z" fill="#E2E9EC"/>
<path opacity="0.2857" d="M124.055 59.989C120.665 76.9378 103.716 78.6326 91.8519 65.0736C83.3776 56.5993 79.9878 44.7351 79.9878 32.871C81.6827 19.312 96.9366 15.9222 110.496 26.0915C124.055 32.871 127.444 44.7351 124.055 59.989Z" fill="#DCE4E8"/>
<path opacity="0.3333" d="M124.055 59.989C120.665 75.2429 105.411 76.9378 93.5468 65.0736C85.0725 56.5993 79.9878 44.7351 81.6827 32.871C83.3776 19.312 98.6315 15.9222 110.496 26.0915C122.36 32.871 125.749 44.7351 124.055 59.989Z" fill="#D7E0E5"/>
<path opacity="0.381" d="M122.36 58.2941C118.97 73.548 103.716 75.2429 91.8521 63.3788C85.0726 54.9044 81.6828 44.7351 81.6828 32.871C83.3777 19.312 96.9367 15.9222 110.496 26.0915C122.36 34.5659 125.75 44.7351 122.36 58.2941Z" fill="#D1DCE1"/>
<path opacity="0.4286" d="M122.36 58.2941C120.665 73.548 105.411 75.2429 93.5467 63.3787C85.0723 54.9043 81.6825 43.0402 83.3774 32.8709C83.3774 21.0068 98.6313 17.6171 110.495 26.0914C120.665 34.5658 124.054 44.7351 122.36 58.2941Z" fill="#CBD7DD"/>
<path opacity="0.4762" d="M120.665 58.2941C118.97 73.548 103.716 75.2429 93.5471 63.3787C86.7676 54.9044 83.3778 43.0402 83.3778 32.871C83.3778 21.0068 96.9368 17.6171 108.801 27.7863C118.97 34.5658 122.36 44.7351 120.665 58.2941Z" fill="#C5D3D9"/>
<path opacity="0.5238" d="M120.665 56.5992C118.97 71.8531 103.716 73.548 93.5471 61.6839C86.7676 53.2095 83.3778 43.0402 83.3778 32.871C85.0727 21.0068 96.9368 17.6171 108.801 27.7863C118.97 34.5658 120.665 44.7351 120.665 56.5992Z" fill="#C0CED6"/>
<path opacity="0.5714" d="M118.97 56.5992C117.275 70.1582 103.716 71.8531 93.5467 61.6839C86.7672 53.2095 83.3774 43.0402 85.0723 32.871C85.0723 22.7017 96.9364 19.312 108.801 27.7863C117.275 34.5658 120.665 44.7351 118.97 56.5992Z" fill="#BACAD2"/>
<path opacity="0.619" d="M118.97 56.5992C117.275 70.1582 103.716 71.8531 93.5466 59.989C86.7671 53.2095 85.0723 41.3453 85.0723 32.871C85.0723 22.7017 96.9364 19.312 107.106 27.7863C115.58 34.5658 118.97 43.0402 118.97 56.5992Z" fill="#B4C5CE"/>
<path opacity="0.6667" d="M117.275 54.9044C117.275 68.4634 103.716 70.1583 95.2416 59.989C88.4621 51.5146 85.0723 41.3454 85.0723 32.871C85.0723 22.7017 95.2416 19.312 107.106 29.4812C115.58 36.2607 117.275 43.0402 117.275 54.9044Z" fill="#AEC1CA"/>
<path opacity="0.7143" d="M117.275 54.9044C115.58 68.4634 103.716 68.4634 95.2416 58.2941C88.4621 51.5146 86.7672 41.3453 86.7672 32.871C86.7672 24.3966 96.9365 21.0068 107.106 29.4812C113.885 36.2607 117.275 43.0402 117.275 54.9044Z" fill="#A9BDC7"/>
<path opacity="0.7619" d="M115.58 54.9044C115.58 68.4634 103.716 68.4634 95.2416 58.2941C88.4621 49.8197 86.7672 39.6505 86.7672 32.871C86.7672 24.3966 95.2416 21.0068 105.411 29.4812C113.885 36.2607 115.58 43.0402 115.58 54.9044Z" fill="#A3B8C3"/>
<path opacity="0.8095" d="M113.885 53.2095C113.885 65.0736 102.021 66.7685 95.2416 56.5992C88.4621 48.1248 86.7672 39.6505 86.7672 32.871C86.7672 24.3966 95.2416 21.0068 105.411 29.4812C112.19 36.2607 113.885 43.0402 113.885 53.2095Z" fill="#9DB4BF"/>
<path opacity="0.8571" d="M113.885 53.2095C113.885 65.0736 102.021 66.7685 95.2416 56.5992C88.4621 48.1249 86.7672 39.6505 86.7672 32.871C86.7672 26.0915 93.5467 21.0068 103.716 29.4812C110.495 36.2607 113.885 43.0402 113.885 53.2095Z" fill="#97AFBB"/>
<path opacity="0.9048" d="M112.19 53.2095C113.885 65.0736 102.021 65.0736 95.2417 56.5992C90.1571 48.1249 88.4622 39.6505 88.4622 34.5659C88.4622 27.7863 95.2417 24.3966 103.716 32.871C110.496 36.2607 112.19 43.0402 112.19 53.2095Z" fill="#92ABB8"/>
<path opacity="0.9524" d="M112.191 51.5146C113.885 63.3788 102.021 63.3788 96.9367 56.5992C90.1572 48.1249 90.1572 37.9556 90.1572 34.5659C90.1572 27.7863 95.2418 24.3966 105.411 32.871C108.801 36.2607 110.496 43.0402 112.191 51.5146Z" fill="#8CA6B4"/>
<path d="M110.496 51.5146C112.191 63.3787 102.021 63.3787 96.9367 54.9043C91.852 46.43 90.1572 37.9556 90.1572 34.5658C90.1572 29.4812 95.2418 24.3966 103.716 32.871C108.801 37.9556 110.496 43.0402 110.496 51.5146Z" fill="#86A2B0"/>
<path opacity="0.047619" d="M191.85 183.715C183.375 166.766 193.545 153.207 215.578 153.207C227.442 153.207 239.306 158.292 249.475 170.156C259.645 183.715 256.255 198.969 239.306 202.359C222.357 204.054 200.324 198.969 191.85 183.715Z" fill="#F9FBFB"/>
<path opacity="0.095238" d="M193.544 183.715C185.07 166.766 195.239 153.207 215.578 153.207C227.442 153.207 239.306 158.292 249.475 170.156C259.645 183.715 256.255 197.274 239.306 200.664C222.357 204.054 202.019 197.274 193.544 183.715Z" fill="#F3F6F7"/>
<path opacity="0.1429" d="M193.544 182.02C185.07 166.766 195.239 153.207 215.578 153.207C227.442 153.207 239.306 158.292 247.781 170.156C257.95 182.02 254.56 195.579 237.611 198.969C222.357 202.359 202.019 197.274 193.544 182.02Z" fill="#EEF2F4"/>
<path opacity="0.1905" d="M195.239 182.02C186.765 166.766 196.934 153.207 217.273 153.207C229.137 153.207 241.001 158.292 249.476 170.156C259.645 182.02 256.255 195.579 239.306 198.969C222.357 202.359 203.714 195.579 195.239 182.02Z" fill="#E8EDF0"/>
<path opacity="0.2381" d="M196.934 182.02C188.46 166.766 198.629 154.902 217.273 154.902C229.137 154.902 239.306 159.987 249.475 170.156C259.645 182.02 256.255 193.884 239.306 197.274C222.357 200.664 203.714 195.579 196.934 182.02Z" fill="#E2E9EC"/>
<path opacity="0.2857" d="M196.934 182.02C188.46 168.461 198.629 154.902 217.273 154.902C227.442 154.902 239.306 159.987 247.78 170.156C256.255 180.325 254.56 193.884 237.611 195.579C222.357 200.664 205.408 195.579 196.934 182.02Z" fill="#DCE4E8"/>
<path opacity="0.3333" d="M198.629 182.02C190.155 168.461 200.324 156.597 217.273 156.597C227.442 156.597 239.306 161.682 247.781 171.851C256.255 182.02 254.56 193.884 237.611 197.274C222.357 198.969 205.409 193.884 198.629 182.02Z" fill="#D7E0E5"/>
<path opacity="0.381" d="M198.629 182.02C190.155 168.461 198.629 156.597 217.273 158.292C227.442 158.292 239.306 165.071 246.086 173.546C254.56 183.715 252.865 195.579 235.916 197.274C222.357 198.969 207.104 193.884 198.629 182.02Z" fill="#D1DCE1"/>
<path opacity="0.4286" d="M200.324 182.02C191.85 170.156 200.324 158.292 217.273 158.292C227.442 158.292 239.306 165.071 246.086 173.546C254.56 183.715 251.17 193.884 235.916 197.274C222.357 197.274 208.798 192.189 200.324 182.02Z" fill="#CBD7DD"/>
<path opacity="0.4762" d="M202.019 182.02C193.544 170.156 202.019 158.292 218.968 159.987C229.137 159.987 239.306 166.766 246.086 173.546C254.56 182.02 251.17 193.884 235.916 195.579C222.357 197.274 208.798 192.189 202.019 182.02Z" fill="#C5D3D9"/>
<path opacity="0.5238" d="M202.019 180.325C193.544 168.461 202.019 158.292 217.273 158.292C227.442 158.292 237.611 165.071 244.391 171.851C251.17 180.325 249.475 190.494 234.221 192.189C222.357 195.579 210.493 192.189 202.019 180.325Z" fill="#C0CED6"/>
<path opacity="0.5714" d="M203.714 180.325C195.239 168.461 203.714 158.292 218.968 159.987C229.137 159.987 239.306 166.766 246.086 173.546C252.865 182.02 251.17 192.189 235.916 193.884C224.052 193.884 210.493 190.495 203.714 180.325Z" fill="#BACAD2"/>
<path opacity="0.619" d="M203.714 180.325C195.239 170.156 203.714 158.292 217.273 159.987C227.442 161.682 237.611 166.766 242.696 173.546C249.475 182.02 247.78 190.494 232.526 192.189C224.052 193.884 212.188 190.494 203.714 180.325Z" fill="#B4C5CE"/>
<path opacity="0.6667" d="M205.408 180.325C196.934 170.156 205.408 159.987 218.967 161.682C229.137 163.376 237.611 168.461 244.391 175.241C251.17 182.02 249.475 192.189 235.916 192.189C224.052 192.189 212.188 188.8 205.408 180.325Z" fill="#AEC1CA"/>
<path opacity="0.7143" d="M207.104 180.325C198.629 170.156 207.104 159.987 218.968 161.682C229.137 163.376 237.611 168.461 242.696 173.546C249.476 180.325 247.781 188.8 234.222 190.494C224.052 192.189 213.883 188.8 207.104 180.325Z" fill="#A9BDC7"/>
<path opacity="0.7619" d="M207.104 180.325C198.629 171.851 207.104 161.682 218.968 163.376C229.137 165.071 237.611 170.156 242.696 175.241C247.781 182.02 247.781 190.494 234.222 190.494C224.052 190.494 215.578 187.105 207.104 180.325Z" fill="#A3B8C3"/>
<path opacity="0.8095" d="M208.798 180.325C200.324 171.851 207.103 161.682 218.968 163.376C229.137 165.071 237.611 170.156 241.001 175.241C246.086 180.325 244.391 188.8 232.527 190.494C224.052 190.494 215.578 187.105 208.798 180.325Z" fill="#9DB4BF"/>
<path opacity="0.8571" d="M208.798 180.325C200.324 171.851 207.103 163.376 218.968 165.071C229.137 166.766 235.916 171.851 241.001 176.935C246.086 182.02 244.391 190.494 232.527 190.494C224.052 188.8 217.273 187.105 208.798 180.325Z" fill="#97AFBB"/>
<path opacity="0.9048" d="M210.493 180.325C202.019 171.851 208.798 163.376 218.967 165.071C229.137 166.766 235.916 171.851 239.306 175.241C244.391 180.325 242.696 187.105 230.832 187.105C224.052 188.8 217.273 185.41 210.493 180.325Z" fill="#92ABB8"/>
<path opacity="0.9524" d="M210.493 178.63C202.019 171.851 208.798 163.376 218.967 165.071C229.137 166.766 235.916 171.851 239.306 175.241C244.391 180.325 242.696 187.105 230.832 187.105C224.052 187.105 218.967 185.41 210.493 178.63Z" fill="#8CA6B4"/>
<path d="M212.188 178.63C203.714 171.851 210.493 165.071 220.662 166.766C230.832 168.461 237.611 173.546 241.001 176.935C246.086 180.325 244.391 187.105 232.527 187.105C224.052 187.105 218.968 183.715 212.188 178.63Z" fill="#86A2B0"/>
<path opacity="0.047619" d="M147.783 210.833C152.868 193.884 171.511 190.494 186.765 205.748C195.239 214.223 200.324 226.087 198.629 243.036C196.934 259.984 183.375 268.459 168.121 256.595C154.562 246.425 142.698 227.782 147.783 210.833Z" fill="#F9FBFB"/>
<path opacity="0.095238" d="M149.478 210.833C154.563 193.884 171.511 192.189 186.765 205.748C195.24 214.223 200.324 226.087 198.629 241.341C196.934 258.29 183.375 265.069 169.816 254.9C154.563 246.425 144.393 227.782 149.478 210.833Z" fill="#F3F6F7"/>
<path opacity="0.1429" d="M149.478 210.833C154.563 193.884 171.511 192.189 185.07 205.748C193.545 214.223 196.934 226.087 196.934 241.341C195.24 256.595 183.375 265.069 168.122 254.9C154.563 244.731 146.088 227.782 149.478 210.833Z" fill="#EEF2F4"/>
<path opacity="0.1905" d="M151.173 212.528C156.257 195.579 173.206 193.884 186.765 207.443C195.239 215.918 198.629 227.782 196.934 241.341C195.239 256.595 183.375 265.069 169.816 254.9C156.257 244.731 146.088 227.782 151.173 212.528Z" fill="#E8EDF0"/>
<path opacity="0.2381" d="M151.173 212.528C154.563 195.579 171.511 193.884 185.07 207.443C193.545 215.918 196.935 227.782 195.24 239.646C193.545 254.9 181.681 261.679 168.122 251.51C156.258 243.036 147.783 227.782 151.173 212.528Z" fill="#E2E9EC"/>
<path opacity="0.2857" d="M152.868 212.528C156.258 197.274 173.206 195.579 186.765 209.138C193.545 217.613 198.629 227.782 196.935 241.341C195.24 254.9 185.07 263.374 171.511 253.205C156.258 243.036 147.783 227.782 152.868 212.528Z" fill="#DCE4E8"/>
<path opacity="0.3333" d="M152.867 212.528C156.257 197.274 173.206 195.579 185.07 209.138C191.85 217.613 195.239 227.782 195.239 239.646C193.544 253.205 183.375 259.984 169.816 251.51C157.952 243.036 149.478 227.782 152.867 212.528Z" fill="#D7E0E5"/>
<path opacity="0.381" d="M152.868 212.528C156.257 197.274 171.511 195.579 183.375 209.138C190.155 217.613 193.545 227.782 193.545 239.646C191.85 253.205 181.681 259.984 168.122 249.815C157.952 241.341 151.173 227.782 152.868 212.528Z" fill="#D1DCE1"/>
<path opacity="0.4286" d="M154.562 214.223C157.952 198.969 173.206 197.274 185.07 210.833C191.85 219.307 195.239 229.477 193.544 239.646C191.85 251.51 181.68 259.984 169.816 249.815C157.952 241.341 151.173 227.782 154.562 214.223Z" fill="#CBD7DD"/>
<path opacity="0.4762" d="M154.563 214.223C156.257 198.969 173.206 198.969 183.375 210.833C190.155 219.307 193.545 229.477 191.85 239.646C190.155 251.51 181.681 258.29 168.122 249.815C159.647 239.646 152.868 227.782 154.563 214.223Z" fill="#C5D3D9"/>
<path opacity="0.5238" d="M156.257 214.223C157.952 198.969 173.206 198.969 183.375 210.833C190.155 219.307 193.544 227.782 191.85 237.951C190.155 249.815 181.68 256.595 169.816 246.425C159.647 239.646 152.867 227.782 156.257 214.223Z" fill="#C0CED6"/>
<path opacity="0.5714" d="M156.257 214.223C157.952 200.664 173.206 198.969 183.375 210.833C190.155 219.307 191.85 227.782 191.85 237.951C191.85 248.12 181.68 254.9 169.816 246.425C159.647 237.951 154.562 226.087 156.257 214.223Z" fill="#BACAD2"/>
<path opacity="0.619" d="M156.257 214.223C157.952 200.664 173.206 198.969 181.68 210.833C188.46 219.307 190.155 227.782 190.155 236.256C190.155 246.425 179.986 253.205 169.816 244.731C161.342 237.951 156.257 226.087 156.257 214.223Z" fill="#B4C5CE"/>
<path opacity="0.6667" d="M157.952 215.918C159.647 202.359 173.206 202.359 181.68 212.528C188.46 221.002 190.155 229.477 190.155 237.951C190.155 248.12 181.68 254.9 169.816 244.731C161.342 236.256 156.257 226.087 157.952 215.918Z" fill="#AEC1CA"/>
<path opacity="0.7143" d="M157.952 215.918C157.952 202.359 173.206 202.359 181.681 212.528C188.46 221.002 190.155 229.477 188.46 236.256C188.46 244.731 179.986 251.51 169.816 243.036C161.342 236.256 157.952 226.087 157.952 215.918Z" fill="#A9BDC7"/>
<path opacity="0.7619" d="M159.647 215.918C159.647 202.359 173.206 202.359 181.681 212.528C188.46 221.002 188.46 227.782 188.46 234.561C188.46 243.036 179.986 249.815 169.817 241.341C163.037 236.256 157.952 226.087 159.647 215.918Z" fill="#A3B8C3"/>
<path opacity="0.8095" d="M159.647 215.918C159.647 204.053 173.206 202.359 179.986 212.528C186.765 221.002 186.765 229.477 186.765 234.561C186.765 243.036 178.291 248.12 169.816 239.646C163.037 234.561 159.647 226.087 159.647 215.918Z" fill="#9DB4BF"/>
<path opacity="0.8571" d="M159.647 217.613C159.647 205.748 173.206 205.748 179.986 214.223C185.07 222.697 186.765 229.477 186.765 234.561C186.765 241.341 179.986 248.12 169.817 239.646C163.037 234.561 161.342 226.087 159.647 217.613Z" fill="#97AFBB"/>
<path opacity="0.9048" d="M161.342 217.613C161.342 205.748 173.206 205.748 179.986 214.223C185.07 222.697 186.765 229.477 186.765 234.561C186.765 241.341 179.986 248.12 171.511 239.646C164.732 232.866 161.342 226.087 161.342 217.613Z" fill="#92ABB8"/>
<path opacity="0.9524" d="M161.342 217.613C159.647 205.748 173.206 205.748 178.291 214.223C183.375 222.697 183.375 229.477 183.375 232.866C183.375 239.646 176.596 244.731 168.121 236.256C164.732 232.866 163.037 226.087 161.342 217.613Z" fill="#8CA6B4"/>
<path d="M163.037 217.613C161.342 205.748 174.901 207.443 179.986 214.223C185.07 222.697 185.07 227.782 185.07 232.866C185.07 237.951 178.291 244.731 169.816 236.256C164.732 231.172 163.037 226.087 163.037 217.613Z" fill="#86A2B0"/>
<path opacity="0.047619" d="M95.2419 202.359C110.496 193.884 125.75 202.359 127.445 224.392C127.445 236.256 124.055 249.815 112.191 259.984C98.6317 271.849 85.0727 268.459 79.988 249.815C74.9034 232.866 79.988 210.833 95.2419 202.359Z" fill="#F9FBFB"/>
<path opacity="0.095238" d="M95.2419 204.053C110.496 195.579 124.055 204.053 125.75 226.087C125.75 237.951 120.665 249.815 110.496 259.984C98.6317 271.849 83.3778 268.459 79.988 251.51C74.9034 232.866 79.988 212.528 95.2419 204.053Z" fill="#F3F6F7"/>
<path opacity="0.1429" d="M95.2418 204.054C110.496 195.579 124.055 204.054 125.75 224.392C125.75 236.256 120.665 248.12 110.496 258.29C98.6315 268.459 85.0725 266.764 79.9879 249.815C76.5981 232.866 81.6828 212.528 95.2418 204.054Z" fill="#EEF2F4"/>
<path opacity="0.1905" d="M95.2418 204.054C108.801 195.579 122.36 204.054 124.055 224.392C124.055 236.256 118.97 248.12 108.801 256.595C96.9366 266.764 83.3776 265.069 79.9879 248.12C76.5981 232.866 81.6828 212.528 95.2418 204.054Z" fill="#E8EDF0"/>
<path opacity="0.2381" d="M95.2419 205.748C108.801 197.274 122.36 205.748 122.36 224.392C122.36 234.561 117.275 248.12 108.801 256.595C98.6316 266.764 85.0726 265.069 81.6829 248.12C78.2931 232.866 83.3778 212.528 95.2419 205.748Z" fill="#E2E9EC"/>
<path opacity="0.2857" d="M95.2419 205.748C108.801 197.274 120.665 205.748 122.36 224.392C122.36 234.561 117.275 246.425 108.801 254.9C98.6316 265.069 85.0726 263.374 81.6829 246.425C78.2931 231.172 83.3778 214.223 95.2419 205.748Z" fill="#DCE4E8"/>
<path opacity="0.3333" d="M95.2419 207.443C107.106 198.969 120.665 207.443 120.665 224.392C120.665 234.561 115.58 246.425 107.106 254.9C96.9368 265.069 85.0726 261.679 81.6829 246.425C79.988 231.172 83.3778 214.223 95.2419 207.443Z" fill="#D7E0E5"/>
<path opacity="0.381" d="M95.2418 207.443C107.106 198.969 118.97 205.748 120.665 224.392C120.665 234.561 115.58 246.425 107.106 254.9C96.9366 263.374 85.0725 261.679 81.6828 246.425C79.9879 231.172 85.0725 214.223 95.2418 207.443Z" fill="#D1DCE1"/>
<path opacity="0.4286" d="M95.2417 207.443C107.106 200.664 118.97 205.748 118.97 222.697C118.97 232.866 113.885 244.731 105.411 251.51C96.9366 259.984 85.0725 258.29 81.6827 243.036C81.6827 231.172 85.0725 215.918 95.2417 207.443Z" fill="#CBD7DD"/>
<path opacity="0.4762" d="M96.9368 209.138C107.106 200.664 118.97 207.443 118.97 222.697C118.97 232.866 113.886 243.036 107.106 251.51C98.6317 259.984 86.7675 258.29 85.0727 243.036C81.6829 231.172 86.7675 215.918 96.9368 209.138Z" fill="#C5D3D9"/>
<path opacity="0.5238" d="M96.9366 209.138C107.106 202.359 118.97 207.443 118.97 222.697C118.97 232.866 113.885 243.036 107.106 249.815C98.6315 258.29 88.4622 256.595 85.0725 241.341C83.3776 231.172 86.7674 215.918 96.9366 209.138Z" fill="#C0CED6"/>
<path opacity="0.5714" d="M96.9367 210.833C107.106 204.053 117.275 209.138 117.275 224.392C117.275 234.561 112.191 244.731 105.411 251.51C96.9367 258.29 86.7674 258.29 85.0726 243.036C83.3777 231.172 86.7674 215.918 96.9367 210.833Z" fill="#BACAD2"/>
<path opacity="0.619" d="M96.9366 210.833C105.411 204.053 117.275 209.138 117.275 222.697C117.275 232.866 112.19 243.036 105.411 248.12C98.6315 254.9 88.4622 254.9 86.7673 239.646C85.0725 229.477 88.4622 217.612 96.9366 210.833Z" fill="#B4C5CE"/>
<path opacity="0.6667" d="M96.9366 210.833C105.411 204.053 115.58 207.443 115.58 222.697C115.58 232.866 110.496 241.341 105.411 248.12C98.6315 254.9 88.4622 254.9 86.7673 241.341C85.0725 229.477 88.4622 217.613 96.9366 210.833Z" fill="#AEC1CA"/>
<path opacity="0.7143" d="M96.9366 212.528C105.411 205.748 115.58 209.138 115.58 222.697C115.58 232.866 110.496 241.341 105.411 246.425C98.6315 253.205 90.1571 253.205 88.4622 239.646C85.0724 229.477 90.1571 217.613 96.9366 212.528Z" fill="#A9BDC7"/>
<path opacity="0.7619" d="M96.9364 212.528C103.716 205.748 113.885 209.138 113.885 221.002C113.885 231.172 108.801 239.646 103.716 244.731C96.9364 251.51 88.462 251.51 86.7672 237.951C86.7672 229.477 90.1569 219.307 96.9364 212.528Z" fill="#A3B8C3"/>
<path opacity="0.8095" d="M96.9366 214.223C103.716 209.138 112.19 210.833 113.885 222.697C113.885 232.866 108.801 241.341 103.716 244.731C98.6314 249.815 90.1571 251.51 88.4622 237.951C86.7673 229.477 90.1571 219.307 96.9366 214.223Z" fill="#9DB4BF"/>
<path opacity="0.8571" d="M96.9366 214.223C103.716 209.138 112.19 210.833 112.19 221.002C112.19 231.172 107.106 237.951 102.021 243.036C96.9366 248.12 88.4622 248.12 88.4622 236.256C88.4622 229.477 91.852 219.307 96.9366 214.223Z" fill="#97AFBB"/>
<path opacity="0.9048" d="M96.9366 214.223C102.021 209.138 110.496 210.833 110.496 221.002C110.496 231.172 105.411 237.951 102.021 243.036C96.9366 248.12 90.1571 248.12 88.4622 236.256C88.4622 227.782 91.852 219.307 96.9366 214.223Z" fill="#92ABB8"/>
<path opacity="0.9524" d="M96.9366 215.918C102.021 210.833 110.496 210.833 110.496 221.002C110.496 229.477 105.411 237.951 102.021 241.341C96.9366 246.425 90.1571 246.425 90.1571 234.561C90.1571 227.782 93.5469 221.002 96.9366 215.918Z" fill="#8CA6B4"/>
<path d="M96.9366 215.918C102.021 210.833 110.496 212.528 110.496 221.002C110.496 229.477 105.411 237.951 102.021 241.341C98.6315 246.425 91.852 246.425 90.1571 234.561C90.1571 227.782 93.5469 221.002 96.9366 215.918Z" fill="#86A2B0"/>
<path opacity="0.047619" d="M63.0389 156.597C81.6825 159.987 86.7672 173.546 73.2081 192.189C66.4286 202.359 52.8696 205.748 35.9209 207.443C18.9721 209.138 8.80284 197.274 17.2772 180.325C25.7516 161.682 46.0901 153.207 63.0389 156.597Z" fill="#F9FBFB"/>
<path opacity="0.095238" d="M61.3443 156.597C78.2931 159.987 83.3777 173.546 71.5136 190.494C66.429 198.969 51.1751 204.054 35.9212 204.054C18.9724 205.748 10.4981 193.884 17.2776 176.935C25.7519 163.376 46.0905 154.902 61.3443 156.597Z" fill="#F3F6F7"/>
<path opacity="0.1429" d="M61.3442 156.597C78.293 158.292 83.3776 171.851 71.5135 188.8C64.7339 198.969 51.1749 202.359 35.9211 204.054C20.6672 205.748 10.4979 193.884 18.9723 178.63C27.4467 163.376 46.0903 154.902 61.3442 156.597Z" fill="#EEF2F4"/>
<path opacity="0.1905" d="M61.3442 158.292C78.2929 159.987 83.3775 173.546 71.5134 188.8C64.7339 197.274 51.1749 202.359 37.6159 202.359C22.362 204.054 13.8876 192.189 20.6671 176.935C27.4466 163.376 46.0903 154.902 61.3442 158.292Z" fill="#E8EDF0"/>
<path opacity="0.2381" d="M61.3444 158.292C76.5982 159.987 81.6829 171.851 71.5136 188.8C64.7341 197.274 51.1751 202.359 37.6161 202.359C22.3622 204.053 13.8878 193.884 22.3622 178.63C29.1417 163.376 46.0905 156.597 61.3444 158.292Z" fill="#E2E9EC"/>
<path opacity="0.2857" d="M59.6491 158.292C74.903 159.987 79.9876 171.851 69.8184 187.105C63.0389 195.579 49.4799 200.664 37.6157 200.664C24.0567 202.359 13.8874 192.189 22.3618 176.935C29.1413 163.376 46.0901 156.597 59.6491 158.292Z" fill="#DCE4E8"/>
<path opacity="0.3333" d="M59.6494 158.292C74.9033 159.987 79.9879 171.851 69.8187 185.41C63.0392 193.884 51.175 197.274 37.616 198.969C24.057 200.664 15.5826 190.494 22.3621 176.935C30.8365 163.376 46.0904 158.292 59.6494 158.292Z" fill="#D7E0E5"/>
<path opacity="0.381" d="M59.6494 159.987C73.2084 161.682 78.293 171.851 68.1238 185.41C61.3443 193.884 49.4801 197.274 37.616 198.969C24.057 200.664 15.5826 190.494 24.057 176.935C30.8365 165.071 46.0904 158.292 59.6494 159.987Z" fill="#D1DCE1"/>
<path opacity="0.4286" d="M59.6494 159.987C73.2084 161.682 78.293 171.851 68.1237 185.41C61.3442 193.884 49.4801 197.274 39.3108 198.969C27.4467 200.664 18.9723 192.189 25.7518 176.935C30.8365 165.071 46.0903 158.292 59.6494 159.987Z" fill="#CBD7DD"/>
<path opacity="0.4762" d="M57.9543 159.987C71.5133 161.682 76.598 170.156 66.4287 183.715C59.6492 192.189 47.7851 195.579 37.6158 197.274C25.7517 198.969 17.2773 190.494 25.7517 176.935C32.5312 165.071 46.0902 159.987 57.9543 159.987Z" fill="#C5D3D9"/>
<path opacity="0.5238" d="M57.9543 161.682C69.8184 163.376 74.9031 171.851 66.4287 183.715C59.6492 192.189 47.785 195.579 39.3107 195.579C27.4465 197.274 20.667 188.8 27.4465 175.241C32.5311 165.071 46.0902 159.987 57.9543 161.682Z" fill="#C0CED6"/>
<path opacity="0.5714" d="M57.9542 161.682C69.8183 161.682 74.903 170.156 66.4286 182.02C59.6491 190.494 49.4798 193.884 39.3106 193.884C29.1413 195.579 20.6669 187.105 29.1413 175.241C34.2259 165.071 46.0901 159.987 57.9542 161.682Z" fill="#BACAD2"/>
<path opacity="0.619" d="M57.9545 161.682C69.8187 161.682 74.9033 170.156 66.4289 182.02C59.6494 190.494 49.4802 193.884 41.0058 193.884C30.8365 195.579 24.057 188.8 30.8365 175.241C34.2263 166.766 46.0904 161.682 57.9545 161.682Z" fill="#B4C5CE"/>
<path opacity="0.6667" d="M56.2596 161.682C66.4288 161.682 73.2083 168.461 64.734 180.325C57.9545 188.8 47.7852 190.495 39.3108 192.189C29.1416 193.884 22.3621 187.105 29.1416 175.241C35.9211 166.766 47.7852 161.682 56.2596 161.682Z" fill="#AEC1CA"/>
<path opacity="0.7143" d="M56.2596 163.376C66.4289 163.376 71.5135 170.156 63.0391 180.325C56.2596 188.8 46.0904 190.494 39.3109 192.189C30.8365 193.884 24.057 187.105 30.8365 175.241C35.9211 166.766 47.7852 163.376 56.2596 163.376Z" fill="#A9BDC7"/>
<path opacity="0.7619" d="M56.2596 163.376C66.4289 163.376 71.5135 168.461 63.0391 178.63C57.9545 187.105 46.0904 188.8 39.3109 190.494C30.8365 192.189 24.057 185.41 30.8365 175.241C37.616 166.766 47.7852 163.376 56.2596 163.376Z" fill="#A3B8C3"/>
<path opacity="0.8095" d="M56.2595 163.376C64.7338 163.376 71.5134 168.461 63.039 178.63C57.9543 185.41 47.7851 188.8 41.0056 190.494C32.5312 192.189 25.7517 187.105 34.2261 175.241C37.6158 166.766 47.7851 163.376 56.2595 163.376Z" fill="#9DB4BF"/>
<path opacity="0.8571" d="M54.5645 165.071C63.0388 165.071 68.1235 170.156 61.344 178.63C56.2593 185.41 46.0901 188.8 39.3106 188.8C32.5311 190.495 25.7516 185.41 32.5311 175.241C39.3106 166.766 47.785 165.071 54.5645 165.071Z" fill="#97AFBB"/>
<path opacity="0.9048" d="M54.5646 165.071C63.039 165.071 68.1236 168.461 61.3441 176.935C56.2595 183.715 46.0902 187.105 41.0056 187.105C34.2261 188.8 27.4466 183.715 34.2261 173.546C39.3107 168.461 47.7851 165.071 54.5646 165.071Z" fill="#92ABB8"/>
<path opacity="0.9524" d="M54.5648 165.071C61.3443 165.071 68.1238 168.461 61.3443 175.241C56.2597 182.02 46.0904 185.41 41.0058 185.41C34.2263 187.105 29.1417 183.715 35.9212 173.546C39.3109 168.461 47.7853 166.766 54.5648 165.071Z" fill="#8CA6B4"/>
<path d="M54.5646 166.766C61.3441 165.071 66.4287 168.461 61.3441 176.935C56.2594 183.715 46.0902 187.105 42.7004 187.105C37.6158 188.8 30.8363 185.41 37.6158 175.241C41.0056 168.461 47.7851 166.766 54.5646 166.766Z" fill="#86A2B0"/>
<path opacity="0.047619" d="M200.324 161.682C185.07 148.123 190.155 127.784 213.883 119.31C225.747 114.225 242.696 115.92 257.95 124.394C274.899 134.564 276.593 151.512 257.95 163.377C239.306 173.546 213.883 175.241 200.324 161.682Z" fill="#F9FBFB"/>
<path opacity="0.095238" d="M200.324 159.987C185.07 146.428 190.155 127.784 213.883 119.31C225.747 114.225 242.696 115.92 257.95 124.394C274.899 134.564 276.593 151.512 257.95 161.682C239.306 171.851 215.578 173.546 200.324 159.987Z" fill="#F3F6F7"/>
<path opacity="0.1429" d="M202.019 159.987C186.765 146.428 191.85 127.784 213.883 119.31C225.747 114.225 241.001 115.92 256.255 124.394C271.509 132.869 274.899 149.817 256.255 159.987C239.306 170.156 215.578 171.851 202.019 159.987Z" fill="#EEF2F4"/>
<path opacity="0.1905" d="M202.019 159.987C186.765 146.428 193.545 129.479 213.883 121.005C225.747 115.92 241.001 117.615 254.56 126.089C269.814 134.564 271.509 151.512 254.56 161.682C239.306 170.156 217.273 171.851 202.019 159.987Z" fill="#E8EDF0"/>
<path opacity="0.2381" d="M203.714 158.292C188.46 146.428 195.24 127.784 215.578 121.005C227.442 117.615 242.696 117.615 256.255 126.089C271.509 134.564 273.204 149.817 256.255 159.987C239.307 168.461 217.273 170.156 203.714 158.292Z" fill="#E2E9EC"/>
<path opacity="0.2857" d="M205.409 158.292C190.155 146.428 196.934 129.479 215.578 122.699C227.442 117.615 242.696 119.31 254.56 126.089C269.814 134.564 271.509 149.817 254.56 159.987C239.306 166.766 218.968 168.461 205.409 158.292Z" fill="#DCE4E8"/>
<path opacity="0.3333" d="M205.409 158.292C190.155 146.428 196.934 129.479 215.578 122.699C227.442 119.31 242.696 121.005 254.56 127.784C268.119 136.258 269.814 149.817 252.865 158.292C239.306 166.766 218.968 168.461 205.409 158.292Z" fill="#D7E0E5"/>
<path opacity="0.381" d="M207.104 156.597C191.85 146.428 198.629 129.479 217.273 122.699C229.137 119.31 242.696 121.005 254.56 127.784C268.119 134.564 269.814 149.817 252.865 158.292C239.306 165.071 218.968 166.766 207.104 156.597Z" fill="#D1DCE1"/>
<path opacity="0.4286" d="M207.104 156.597C191.85 146.428 198.629 129.479 217.273 124.394C229.137 121.005 242.696 122.699 254.56 129.479C266.424 136.258 268.119 149.817 252.865 158.292C237.611 165.071 220.663 165.071 207.104 156.597Z" fill="#CBD7DD"/>
<path opacity="0.4762" d="M208.799 154.902C195.24 144.733 200.324 129.479 217.273 124.394C229.137 121.005 242.696 122.699 252.866 129.479C264.73 136.258 266.425 148.123 251.171 156.597C237.612 163.376 220.663 165.071 208.799 154.902Z" fill="#C5D3D9"/>
<path opacity="0.5238" d="M210.494 154.902C196.935 146.428 202.019 129.479 218.968 124.394C230.832 121.005 244.391 122.699 254.561 129.479C266.425 136.258 268.12 148.123 252.866 156.597C237.612 163.376 222.358 163.377 210.494 154.902Z" fill="#C0CED6"/>
<path opacity="0.5714" d="M210.494 154.902C196.935 146.428 202.019 131.174 218.968 126.089C230.832 122.699 242.696 126.089 252.866 131.174C264.73 137.953 264.73 148.123 249.476 156.597C237.612 161.682 222.358 161.682 210.494 154.902Z" fill="#BACAD2"/>
<path opacity="0.619" d="M212.188 153.207C198.629 144.733 203.714 129.479 218.968 126.089C230.832 122.699 242.696 126.089 251.17 129.479C261.34 134.564 263.034 146.428 247.781 153.207C237.611 159.987 224.052 161.682 212.188 153.207Z" fill="#B4C5CE"/>
<path opacity="0.6667" d="M212.188 153.207C198.629 146.428 203.714 131.174 218.968 127.784C230.832 124.394 242.696 127.784 251.17 131.174C261.34 136.258 263.034 146.428 247.781 153.207C237.611 159.987 224.052 159.987 212.188 153.207Z" fill="#AEC1CA"/>
<path opacity="0.7143" d="M213.883 153.207C200.324 146.428 205.409 132.869 220.663 127.784C232.527 124.394 244.391 127.784 251.17 131.174C261.34 136.258 261.34 146.428 247.781 153.207C237.611 158.292 225.747 158.292 213.883 153.207Z" fill="#A9BDC7"/>
<path opacity="0.7619" d="M215.578 151.512C202.019 144.733 207.104 131.174 220.663 127.784C232.527 124.394 242.696 127.784 251.171 131.174C259.645 136.258 261.34 144.733 247.781 151.512C237.612 158.292 225.747 158.292 215.578 151.512Z" fill="#A3B8C3"/>
<path opacity="0.8095" d="M215.578 151.512C202.019 144.733 207.104 132.869 220.663 129.479C232.527 127.784 242.696 129.479 249.476 132.869C257.95 136.258 259.645 146.428 246.086 151.512C237.612 156.597 227.442 156.597 215.578 151.512Z" fill="#9DB4BF"/>
<path opacity="0.8571" d="M217.273 151.512C203.714 146.428 208.799 132.869 222.358 131.174C234.222 129.479 244.391 131.174 251.171 134.564C259.645 137.953 259.645 146.428 246.086 153.207C235.917 154.902 227.442 154.902 217.273 151.512Z" fill="#97AFBB"/>
<path opacity="0.9048" d="M217.273 149.817C203.714 144.733 208.799 132.869 222.358 129.479C234.222 127.784 244.391 131.174 249.476 132.869C256.255 136.258 257.95 144.733 244.391 149.817C235.917 154.902 227.442 154.902 217.273 149.817Z" fill="#92ABB8"/>
<path opacity="0.9524" d="M218.968 149.817C205.409 144.733 210.493 132.869 222.357 131.174C234.222 129.479 244.391 132.869 247.781 134.564C254.56 137.953 256.255 144.733 242.696 149.817C235.917 153.207 229.137 153.207 218.968 149.817Z" fill="#8CA6B4"/>
<path d="M220.663 148.123C208.799 144.733 212.188 132.869 224.053 131.174C235.917 129.479 244.391 132.869 249.476 134.564C256.255 137.953 257.95 144.733 244.391 149.817C235.917 153.207 229.137 151.512 220.663 148.123Z" fill="#86A2B0"/>
<path opacity="0.047619" d="M196.934 109.14C174.901 109.14 166.427 90.4968 178.291 68.4634C183.375 56.5993 196.934 46.43 213.883 43.0402C232.527 39.6505 247.781 54.9044 241.001 75.2429C234.222 95.5814 217.273 109.14 196.934 109.14Z" fill="#F9FBFB"/>
<path opacity="0.095238" d="M196.935 107.446C176.596 107.446 168.122 88.8019 178.291 68.4634C183.375 56.5993 196.935 46.43 213.883 43.0402C232.527 39.6505 246.086 54.9044 239.306 75.2429C234.222 93.8865 215.578 107.446 196.935 107.446Z" fill="#F3F6F7"/>
<path opacity="0.1429" d="M196.935 105.751C176.596 105.751 168.122 88.8019 178.291 68.4634C185.07 56.5993 196.935 48.1249 212.188 43.0402C230.832 39.6505 242.696 54.9044 237.612 73.548C232.527 93.8866 215.578 105.751 196.935 105.751Z" fill="#EEF2F4"/>
<path opacity="0.1905" d="M196.935 105.751C176.596 107.446 169.817 88.8019 179.986 68.4634C186.765 56.5993 198.629 48.1249 213.883 44.7351C230.832 41.3454 244.391 54.9044 237.612 75.2429C232.527 92.1917 215.578 104.056 196.935 105.751Z" fill="#E8EDF0"/>
<path opacity="0.2381" d="M198.63 104.056C179.986 105.751 171.512 87.107 181.681 68.4634C188.46 56.5992 200.324 48.1249 215.578 44.7351C232.527 41.3454 244.391 54.9044 237.612 73.548C230.832 90.4968 215.578 102.361 198.63 104.056Z" fill="#E2E9EC"/>
<path opacity="0.2857" d="M198.63 102.361C179.986 104.056 171.512 87.107 181.681 68.4634C188.46 56.5992 200.324 48.1249 213.883 44.7351C230.832 41.3454 241.001 54.9044 235.917 73.548C230.832 90.4968 215.578 102.361 198.63 102.361Z" fill="#DCE4E8"/>
<path opacity="0.3333" d="M198.63 102.361C179.986 104.056 173.206 87.107 183.376 70.1583C190.155 59.989 202.019 51.5146 215.578 48.1249C230.832 44.7351 242.696 56.5993 235.917 75.2429C229.137 88.8019 215.578 100.666 198.63 102.361Z" fill="#D7E0E5"/>
<path opacity="0.381" d="M198.63 100.666C179.986 102.361 173.206 87.107 183.376 68.4634C190.155 58.2941 200.324 49.8197 213.883 46.43C229.137 43.0402 239.307 54.9044 234.222 73.548C229.137 88.8019 215.578 98.9712 198.63 100.666Z" fill="#D1DCE1"/>
<path opacity="0.4286" d="M198.629 98.9712C181.681 100.666 173.206 85.4122 183.376 68.4634C190.155 58.2941 200.324 49.8198 213.883 46.43C227.442 43.0402 239.306 54.9044 232.527 71.8531C227.442 87.107 215.578 97.2763 198.629 98.9712Z" fill="#CBD7DD"/>
<path opacity="0.4762" d="M200.324 98.9712C183.375 102.361 176.596 85.4121 185.07 70.1583C191.85 59.989 202.019 51.5146 213.883 49.8197C227.442 46.43 237.611 58.2941 230.832 73.548C227.442 87.107 213.883 95.5814 200.324 98.9712Z" fill="#C5D3D9"/>
<path opacity="0.5238" d="M200.324 97.2763C183.375 100.666 176.596 85.4121 186.765 70.1583C193.545 59.989 203.714 53.2095 215.578 49.8197C229.137 46.43 237.611 56.5992 232.527 73.548C225.747 85.4121 213.883 95.5814 200.324 97.2763Z" fill="#C0CED6"/>
<path opacity="0.5714" d="M200.324 95.5814C183.376 98.9712 178.291 83.7173 186.765 68.4634C193.545 58.2941 203.714 51.5146 213.883 48.1249C225.748 44.7351 235.917 54.9044 229.137 70.1583C225.748 85.4122 213.883 93.8866 200.324 95.5814Z" fill="#BACAD2"/>
<path opacity="0.619" d="M200.324 95.5814C185.07 98.9712 178.291 83.7173 186.765 70.1583C193.545 59.989 203.714 53.2095 213.883 51.5146C225.747 48.1249 234.222 58.2941 229.137 73.548C224.052 83.7173 213.883 92.1916 200.324 95.5814Z" fill="#B4C5CE"/>
<path opacity="0.6667" d="M200.324 93.8865C185.07 97.2763 179.986 83.7173 188.46 70.1582C195.24 59.989 205.409 53.2095 215.578 51.5146C225.747 48.1248 234.222 56.5992 229.137 71.8531C224.053 83.7173 213.883 90.4968 200.324 93.8865Z" fill="#AEC1CA"/>
<path opacity="0.7143" d="M202.019 92.1916C186.765 95.5814 181.681 82.0224 190.155 70.1582C196.935 59.989 207.104 54.9044 215.578 51.5146C225.748 48.1248 234.222 56.5992 227.442 71.8531C222.358 82.0224 213.883 88.8019 202.019 92.1916Z" fill="#A9BDC7"/>
<path opacity="0.7619" d="M202.019 92.1917C188.46 95.5814 181.68 83.7173 190.155 71.8532C196.934 61.6839 207.104 56.5993 215.578 54.9044C225.747 51.5146 232.527 59.989 227.442 73.548C222.357 82.0224 213.883 88.8019 202.019 92.1917Z" fill="#A3B8C3"/>
<path opacity="0.8095" d="M202.019 90.4968C188.46 95.5814 183.375 82.0224 191.85 70.1582C198.629 59.989 208.798 54.9043 215.578 53.2095C224.052 51.5146 232.527 56.5992 225.747 71.8531C220.663 80.3275 213.883 87.107 202.019 90.4968Z" fill="#9DB4BF"/>
<path opacity="0.8571" d="M202.019 88.8019C188.46 93.8865 183.375 80.3275 191.85 70.1583C198.629 61.6839 208.798 56.5993 215.578 53.2095C224.052 51.5146 230.832 56.5992 224.052 70.1583C220.663 80.3275 213.883 85.4121 202.019 88.8019Z" fill="#97AFBB"/>
<path opacity="0.9048" d="M202.019 88.8019C188.46 93.8866 185.071 82.0224 191.85 71.8532C198.63 63.3788 208.799 58.2941 213.883 56.5993C222.358 54.9044 227.442 59.989 222.358 71.8532C218.968 78.6327 212.189 83.7173 202.019 88.8019Z" fill="#92ABB8"/>
<path opacity="0.9524" d="M202.019 87.1071C190.155 92.1917 185.07 80.3275 191.85 71.8532C198.629 63.3788 208.798 58.2941 213.883 56.5993C220.662 54.9044 227.442 59.989 220.662 71.8532C218.968 78.6327 212.188 82.0224 202.019 87.1071Z" fill="#8CA6B4"/>
<path d="M203.714 85.4122C191.85 90.4968 188.46 78.6327 195.239 70.1583C202.019 61.6839 212.188 56.5993 215.578 54.9044C222.357 53.2095 227.442 56.5993 222.357 68.4634C217.273 76.9378 212.188 82.0224 203.714 85.4122Z" fill="#86A2B0"/>
<path opacity="0.047619" d="M163.037 70.1583C149.478 87.107 125.75 80.3275 117.275 58.2941C112.191 44.7351 113.885 29.4812 122.36 14.2273C132.529 -2.72143 157.952 -2.72144 168.121 15.9222C179.986 34.5658 176.596 56.5992 163.037 70.1583Z" fill="#F9FBFB"/>
<path opacity="0.095238" d="M163.037 70.1583C149.478 85.4121 125.75 80.3275 117.275 58.2941C113.885 44.7351 113.885 29.4812 124.055 14.2273C134.224 -2.72142 157.952 -1.02654 168.121 15.9222C178.291 34.5659 174.901 54.9044 163.037 70.1583Z" fill="#F3F6F7"/>
<path opacity="0.1429" d="M161.342 68.4634C147.783 83.7173 125.749 78.6326 118.97 56.5992C113.885 44.7351 115.58 29.4812 124.054 14.2273C134.223 -1.02656 157.952 -1.02656 166.426 15.9222C176.595 34.5658 174.901 54.9044 161.342 68.4634Z" fill="#EEF2F4"/>
<path opacity="0.1905" d="M161.342 68.4634C147.783 83.7173 125.749 78.6327 118.97 56.5993C115.58 44.7351 117.275 29.4812 124.054 15.9222C134.224 0.668337 156.257 0.668337 166.426 17.6171C174.901 34.5659 173.206 53.2095 161.342 68.4634Z" fill="#E8EDF0"/>
<path opacity="0.2381" d="M159.647 66.7685C147.782 82.0224 125.749 76.9378 118.97 56.5993C115.58 43.0402 117.275 29.4812 125.749 15.9222C134.223 0.668337 156.257 0.668337 164.731 17.6171C173.206 34.5659 171.511 53.2095 159.647 66.7685Z" fill="#E2E9EC"/>
<path opacity="0.2857" d="M159.647 66.7685C147.783 80.3275 127.444 75.2429 120.665 54.9044C117.275 43.0402 118.97 29.4812 125.749 15.9222C134.224 2.36319 154.562 2.36319 164.731 19.312C173.206 34.5658 169.816 53.2095 159.647 66.7685Z" fill="#DCE4E8"/>
<path opacity="0.3333" d="M157.952 65.0736C147.783 80.3275 127.444 75.2429 120.665 54.9044C117.275 43.0402 118.97 29.4812 125.749 15.9222C134.224 2.36319 152.867 2.36319 163.037 19.312C171.511 34.5658 169.816 51.5146 157.952 65.0736Z" fill="#D7E0E5"/>
<path opacity="0.381" d="M157.952 63.3788C147.783 78.6326 127.444 73.548 122.36 54.9044C118.97 43.0402 120.665 27.7863 127.444 17.6171C134.224 4.05808 152.867 4.05808 163.037 21.0068C169.816 34.5659 168.121 51.5146 157.952 63.3788Z" fill="#D1DCE1"/>
<path opacity="0.4286" d="M157.952 63.3787C147.783 76.9377 129.139 71.8531 124.055 54.9044C118.97 43.0402 120.665 27.7863 127.444 17.6171C134.224 5.75294 152.868 4.05807 161.342 21.0068C168.121 34.5658 166.427 49.8197 157.952 63.3787Z" fill="#CBD7DD"/>
<path opacity="0.4762" d="M156.257 61.6839C146.088 75.2429 129.139 70.1583 122.36 53.2095C120.665 41.3454 122.36 27.7864 127.444 17.6171C135.919 5.75296 152.867 5.75296 159.647 21.0069C166.426 34.5659 164.732 49.8198 156.257 61.6839Z" fill="#C5D3D9"/>
<path opacity="0.5238" d="M156.257 61.6839C146.088 75.2429 129.139 70.1583 124.054 53.2095C120.665 41.3454 124.054 27.7864 129.139 19.312C135.918 7.44784 151.172 5.75296 159.647 22.7017C164.731 34.5659 163.036 48.1249 156.257 61.6839Z" fill="#C0CED6"/>
<path opacity="0.5714" d="M154.562 59.989C146.088 73.548 129.139 68.4633 124.054 53.2095C120.665 41.3453 124.054 29.4812 129.139 19.3119C135.918 7.44779 151.172 7.44779 157.952 22.7017C164.731 34.5658 163.036 48.1248 154.562 59.989Z" fill="#BACAD2"/>
<path opacity="0.619" d="M154.562 59.989C146.088 73.548 129.139 68.4634 125.749 51.5146C122.359 39.6505 125.749 27.7863 130.834 19.312C135.918 9.1427 149.478 7.44782 157.952 22.7017C163.037 34.5658 161.342 48.1249 154.562 59.989Z" fill="#B4C5CE"/>
<path opacity="0.6667" d="M152.867 58.2941C146.088 71.8531 129.139 66.7685 125.749 51.5146C122.359 39.6505 125.749 27.7863 130.834 19.312C135.918 9.1427 149.478 9.1427 156.257 24.3966C161.342 34.5658 159.647 46.43 152.867 58.2941Z" fill="#AEC1CA"/>
<path opacity="0.7143" d="M152.867 56.5992C144.393 70.1582 130.834 65.0736 127.444 51.5146C124.054 39.6505 127.444 27.7863 132.529 21.0068C137.613 10.8376 149.478 10.8376 156.257 26.0915C159.647 34.5658 157.952 46.43 152.867 56.5992Z" fill="#A9BDC7"/>
<path opacity="0.7619" d="M151.172 56.5993C144.393 70.1583 130.834 65.0736 127.444 49.8198C125.749 37.9556 127.444 27.7864 132.529 19.312C137.613 10.8376 149.477 9.14271 154.562 24.3966C157.952 34.5659 157.952 44.7351 151.172 56.5993Z" fill="#A3B8C3"/>
<path opacity="0.8095" d="M151.172 54.9044C144.393 68.4634 130.834 63.3788 127.444 49.8198C125.749 37.9556 127.444 27.7864 130.834 21.0069C135.918 12.5325 147.782 12.5325 152.867 26.0915C156.257 34.5659 156.257 44.7351 151.172 54.9044Z" fill="#9DB4BF"/>
<path opacity="0.8571" d="M149.477 54.9043C144.393 66.7685 130.834 61.6839 129.139 49.8197C127.444 37.9556 129.139 27.7863 132.529 21.0068C137.613 14.2273 146.088 12.5324 152.867 26.0915C156.257 34.5658 154.562 43.0402 149.477 54.9043Z" fill="#97AFBB"/>
<path opacity="0.9048" d="M149.477 53.2095C144.393 66.7685 132.529 61.6839 129.139 48.1249C127.444 37.9556 130.834 27.7864 134.224 22.7017C137.613 15.9222 146.088 14.2273 151.172 27.7864C154.562 34.5659 152.867 43.0402 149.477 53.2095Z" fill="#92ABB8"/>
<path opacity="0.9524" d="M147.783 53.2095C142.698 65.0736 130.834 61.6839 129.139 49.8198C129.139 37.9556 130.834 27.7864 134.224 22.7017C137.614 15.9222 146.088 14.2273 149.478 27.7864C152.867 34.5659 152.867 43.0402 147.783 53.2095Z" fill="#8CA6B4"/>
<path d="M147.782 51.5146C144.393 63.3788 132.529 58.2941 130.834 48.1249C129.139 36.2607 132.529 27.7863 134.223 22.7017C137.613 15.9222 144.393 15.9222 149.477 27.7863C151.172 34.5659 151.172 41.3454 147.782 51.5146Z" fill="#86A2B0"/>
<path opacity="0.047619" d="M112.19 97.2763C107.106 119.31 86.7672 122.699 68.1235 105.751C57.9543 97.2763 51.1747 82.0224 51.1747 65.0736C52.8696 44.7351 68.1235 34.5659 85.0723 46.43C103.716 56.5993 117.275 78.6326 112.19 97.2763Z" fill="#F9FBFB"/>
<path opacity="0.095238" d="M112.19 97.2763C107.106 117.615 86.7672 121.005 69.8185 105.751C59.6492 97.2763 52.8697 82.0224 52.8697 65.0736C52.8697 46.43 68.1236 36.2607 85.0723 46.43C102.021 56.5993 115.58 78.6327 112.19 97.2763Z" fill="#F3F6F7"/>
<path opacity="0.1429" d="M110.496 97.2763C107.106 115.92 86.7673 121.005 69.8185 104.056C59.6492 95.5814 52.8697 82.0224 54.5646 65.0736C54.5646 46.43 68.1236 36.2607 86.7673 48.1249C102.021 58.2941 113.885 78.6326 110.496 97.2763Z" fill="#EEF2F4"/>
<path opacity="0.1905" d="M108.801 95.5814C105.411 115.92 86.7673 119.31 69.8185 104.056C59.6493 95.5814 54.5646 82.0224 54.5646 65.0736C54.5646 46.43 68.1236 37.9556 85.0724 48.1249C100.326 58.2941 113.885 78.6327 108.801 95.5814Z" fill="#E8EDF0"/>
<path opacity="0.2381" d="M108.801 95.5814C105.411 114.225 86.7673 117.615 69.8185 104.056C61.3441 93.8865 54.5646 80.3275 54.5646 65.0737C54.5646 48.1249 68.1236 39.6505 85.0724 49.8198C100.326 59.989 112.19 78.6327 108.801 95.5814Z" fill="#E2E9EC"/>
<path opacity="0.2857" d="M107.105 95.5814C103.716 114.225 86.7669 117.615 69.8182 102.361C61.3438 93.8865 56.2592 80.3275 56.2592 65.0736C56.2592 49.8198 68.1233 39.6505 85.0721 51.5146C98.6311 59.989 110.495 76.9378 107.105 95.5814Z" fill="#DCE4E8"/>
<path opacity="0.3333" d="M107.105 93.8865C103.716 112.53 85.0721 115.92 71.513 102.361C61.3438 93.8865 56.2592 80.3275 56.2592 65.0736C56.2592 49.8197 68.1233 41.3454 85.0721 51.5146C98.6311 59.989 108.8 76.9378 107.105 93.8865Z" fill="#D7E0E5"/>
<path opacity="0.381" d="M105.411 93.8865C103.716 110.835 85.0722 114.225 71.5132 100.666C61.3439 92.1917 56.2593 78.6326 57.9542 65.0736C57.9542 49.8197 68.1234 43.0402 85.0722 53.2095C96.9363 61.6839 107.106 76.9378 105.411 93.8865Z" fill="#D1DCE1"/>
<path opacity="0.4286" d="M103.716 92.1917C102.021 110.835 85.0722 114.225 71.5132 100.666C63.0388 92.1917 57.9542 78.6326 57.9542 66.7685C57.9542 51.5146 68.1234 43.0402 83.3773 53.2095C96.9363 61.6839 105.411 76.9378 103.716 92.1917Z" fill="#CBD7DD"/>
<path opacity="0.4762" d="M103.716 92.1917C102.021 109.14 85.0722 112.53 71.5132 98.9712C63.0388 90.4968 57.9542 76.9378 57.9542 65.0736C57.9542 51.5146 68.1234 43.0402 83.3773 53.2095C96.9363 63.3788 105.411 76.9378 103.716 92.1917Z" fill="#C5D3D9"/>
<path opacity="0.5238" d="M102.021 92.1917C102.021 109.14 85.0723 110.835 71.5132 98.9712C63.0389 90.4968 59.6491 76.9378 59.6491 66.7685C59.6491 53.2095 69.8184 46.43 83.3774 56.5993C95.2415 63.3788 103.716 76.9378 102.021 92.1917Z" fill="#C0CED6"/>
<path opacity="0.5714" d="M102.021 90.4968C102.021 107.446 85.0723 109.14 73.2081 97.2763C64.7337 88.8019 59.6491 76.9378 59.6491 66.7685C59.6491 54.9044 69.8184 46.43 83.3774 56.5993C95.2415 63.3788 102.021 76.9378 102.021 90.4968Z" fill="#BACAD2"/>
<path opacity="0.619" d="M100.326 90.4968C100.326 105.751 85.0723 109.14 73.2082 97.2763C64.7338 88.8019 61.3441 76.9378 61.3441 66.7685C61.3441 54.9044 69.8184 48.1249 83.3775 58.2941C93.5467 65.0736 100.326 76.9378 100.326 90.4968Z" fill="#B4C5CE"/>
<path opacity="0.6667" d="M98.6313 90.4968C98.6313 105.751 83.3775 109.14 73.2082 97.2763C64.7338 87.107 61.3441 75.2429 61.3441 66.7685C61.3441 54.9044 69.8184 49.8197 83.3775 58.2941C93.5467 65.0736 98.6313 76.9378 98.6313 90.4968Z" fill="#AEC1CA"/>
<path opacity="0.7143" d="M98.6315 88.8019C98.6315 104.056 83.3776 105.751 73.2084 95.5814C66.4289 87.107 63.0391 75.2429 63.0391 66.7685C63.0391 56.5993 71.5135 49.8197 83.3776 59.989C91.852 66.7685 98.6315 76.9378 98.6315 88.8019Z" fill="#A9BDC7"/>
<path opacity="0.7619" d="M96.9366 88.8019C96.9366 104.056 83.3776 105.751 73.2084 95.5814C66.4289 85.4122 63.0391 75.2429 63.0391 66.7685C63.0391 56.5993 69.8186 51.5146 83.3776 59.989C91.852 66.7685 96.9366 76.9378 96.9366 88.8019Z" fill="#A3B8C3"/>
<path opacity="0.8095" d="M96.9366 88.8019C98.6315 104.056 83.3776 105.751 74.9033 93.8865C66.4289 85.4122 64.734 73.548 63.0391 66.7685C63.0391 56.5993 69.8186 51.5146 81.6828 61.6839C90.1572 66.7685 95.2418 76.9378 96.9366 88.8019Z" fill="#9DB4BF"/>
<path opacity="0.8571" d="M95.2413 87.107C96.9362 102.361 83.3772 104.056 74.9028 93.8865C68.1233 85.4122 64.7335 73.548 64.7335 66.7685C64.7335 58.2941 71.513 53.2095 83.3772 61.6839C90.1567 68.4634 93.5464 76.9378 95.2413 87.107Z" fill="#97AFBB"/>
<path opacity="0.9048" d="M93.5464 87.107C96.9362 100.666 83.3772 102.361 74.9028 92.1917C68.1233 83.7173 64.7335 73.548 64.7335 66.7685C64.7335 58.2941 69.8182 53.2095 81.6823 63.3788C88.4618 68.4634 93.5464 75.2429 93.5464 87.107Z" fill="#92ABB8"/>
<path opacity="0.9524" d="M93.5466 87.107C95.2415 100.666 83.3773 102.361 76.5978 92.1917C68.1235 83.7173 66.4286 71.8532 66.4286 66.7685C66.4286 59.989 71.5132 54.9044 83.3773 63.3788C88.462 68.4634 91.8517 75.2429 93.5466 87.107Z" fill="#8CA6B4"/>
<path d="M91.8517 85.4122C95.2415 98.9712 81.6825 98.9712 74.903 90.4968C69.8183 82.0224 66.4286 71.8532 66.4286 66.7685C66.4286 59.989 71.5132 54.9044 81.6825 65.0736C86.7671 70.1583 90.1569 75.2429 91.8517 85.4122Z" fill="#86A2B0"/>
<path opacity="0.047619" d="M61.3441 244.731C39.3107 246.425 30.8363 227.782 41.0056 205.748C46.0902 193.884 57.9544 182.02 76.598 178.63C95.2416 173.546 112.19 185.41 107.106 205.748C100.326 226.087 81.6826 244.731 61.3441 244.731Z" fill="#F9FBFB"/>
<path opacity="0.095238" d="M61.3444 244.731C41.0059 246.425 30.8366 227.782 41.0059 205.748C46.0905 193.884 57.9546 183.715 74.9034 178.63C93.547 173.546 108.801 185.41 103.716 205.748C98.6317 224.392 79.988 243.036 61.3444 244.731Z" fill="#F3F6F7"/>
<path opacity="0.1429" d="M61.3444 243.036C41.0059 244.731 32.5315 227.782 41.0059 205.748C46.0905 193.884 57.9547 183.715 74.9034 178.63C93.5471 173.546 108.801 185.41 103.716 205.748C98.6317 224.392 79.988 241.341 61.3444 243.036Z" fill="#EEF2F4"/>
<path opacity="0.1905" d="M61.3444 241.341C41.0059 243.036 32.5315 226.087 42.7008 205.748C47.7854 193.884 59.6495 183.715 74.9034 180.325C91.8522 175.241 107.106 187.105 102.021 205.748C96.9368 224.392 79.9881 239.646 61.3444 241.341Z" fill="#E8EDF0"/>
<path opacity="0.2381" d="M63.0391 241.341C44.3955 243.036 34.2262 226.087 44.3955 207.443C49.4801 195.579 61.3443 185.41 76.5982 182.02C93.5469 176.935 107.106 187.105 102.021 207.443C96.9367 222.697 79.9879 237.951 63.0391 241.341Z" fill="#E2E9EC"/>
<path opacity="0.2857" d="M63.0395 239.646C44.3958 241.341 35.9214 226.087 44.3958 205.748C49.4804 193.884 61.3446 185.41 74.9036 180.325C90.1575 175.241 105.411 185.41 98.6319 204.053C95.2421 222.697 79.9882 237.951 63.0395 239.646Z" fill="#DCE4E8"/>
<path opacity="0.3333" d="M63.0394 237.951C44.3958 241.341 35.9214 224.392 46.0907 205.748C51.1753 193.884 63.0394 185.41 76.5984 182.02C91.8523 176.935 105.411 187.105 100.327 205.748C95.2421 222.697 79.9882 236.256 63.0394 237.951Z" fill="#D7E0E5"/>
<path opacity="0.381" d="M63.0391 237.951C44.3955 241.341 37.6159 224.392 46.0903 207.443C51.175 195.579 63.0391 187.105 76.5981 183.715C91.852 180.325 103.716 188.8 98.6315 207.443C93.5469 221.002 79.9879 234.561 63.0391 237.951Z" fill="#D1DCE1"/>
<path opacity="0.4286" d="M63.0394 236.256C46.0906 239.646 37.6162 224.392 46.0906 207.443C51.1752 197.274 63.0394 188.8 74.9035 183.715C88.4625 180.325 100.327 188.8 95.242 205.748C91.8523 221.002 78.2933 232.866 63.0394 236.256Z" fill="#CBD7DD"/>
<path opacity="0.4762" d="M63.0394 234.561C46.0907 237.951 39.3112 222.697 47.7855 205.748C52.8702 195.579 64.7343 187.105 76.5984 183.715C90.1575 180.325 102.022 188.8 96.937 205.748C91.8523 219.307 78.2933 231.172 63.0394 234.561Z" fill="#C5D3D9"/>
<path opacity="0.5238" d="M64.7338 234.561C47.7851 237.951 41.0056 222.697 49.4799 207.443C54.5646 197.274 66.4287 188.8 76.598 185.41C90.157 182.02 100.326 188.8 95.2416 205.748C90.157 219.307 78.2928 231.172 64.7338 234.561Z" fill="#C0CED6"/>
<path opacity="0.5714" d="M64.7342 232.866C49.4803 236.256 41.0059 222.697 49.4803 207.443C54.5649 197.274 66.4291 188.8 76.5983 187.105C88.4625 183.715 98.6317 190.494 93.5471 207.443C90.1573 219.307 78.2932 229.477 64.7342 232.866Z" fill="#BACAD2"/>
<path opacity="0.619" d="M64.7339 231.172C49.48 234.561 42.7005 221.002 51.1749 207.443C56.2595 197.274 68.1237 190.494 76.5981 187.105C88.4622 183.715 98.6315 190.495 93.5468 205.748C88.4622 217.613 78.2929 227.782 64.7339 231.172Z" fill="#B4C5CE"/>
<path opacity="0.6667" d="M64.7339 229.477C49.48 234.561 42.7005 221.002 51.1749 207.443C57.9544 197.274 68.1237 190.494 76.5981 187.105C86.7673 183.715 96.9366 190.495 91.8519 205.748C86.7673 217.613 78.2929 226.087 64.7339 229.477Z" fill="#AEC1CA"/>
<path opacity="0.7143" d="M64.7343 229.477C51.1753 234.561 44.3958 221.002 51.1753 207.443C57.9548 197.274 68.124 190.495 76.5984 188.8C86.7677 185.41 95.242 192.189 90.1574 207.443C86.7677 217.613 76.5984 224.392 64.7343 229.477Z" fill="#A9BDC7"/>
<path opacity="0.7619" d="M64.7338 227.782C51.1748 232.866 44.3953 219.307 52.8697 207.443C59.6492 197.274 69.8185 190.495 76.598 188.8C86.7672 185.41 95.2416 192.189 88.4621 205.748C85.0724 215.918 76.598 224.392 64.7338 227.782Z" fill="#A3B8C3"/>
<path opacity="0.8095" d="M66.4291 226.087C52.87 231.172 47.7854 217.613 54.5649 207.443C61.3444 197.274 69.8188 192.189 78.2932 188.8C86.7676 185.41 95.242 190.494 90.1573 205.748C85.0727 215.918 76.5983 222.697 66.4291 226.087Z" fill="#9DB4BF"/>
<path opacity="0.8571" d="M66.4291 226.087C52.87 231.172 47.7854 219.307 54.5649 207.443C61.3444 197.274 69.8188 192.189 76.5983 190.494C85.0727 187.105 91.8522 192.189 86.7676 205.748C83.3778 214.223 76.5983 221.002 66.4291 226.087Z" fill="#97AFBB"/>
<path opacity="0.9048" d="M66.4293 224.392C54.5651 229.477 47.7856 217.613 56.26 207.443C63.0395 197.274 71.5139 192.189 78.2934 190.494C85.0729 187.105 93.5473 192.189 86.7678 205.748C83.378 214.223 76.5985 219.307 66.4293 224.392Z" fill="#92ABB8"/>
<path opacity="0.9524" d="M66.4287 222.697C54.5646 229.477 49.4799 217.613 56.2594 207.443C63.039 198.969 71.5133 193.884 76.598 190.494C83.3775 187.105 90.157 192.189 85.0723 205.748C81.6826 214.223 76.598 219.307 66.4287 222.697Z" fill="#8CA6B4"/>
<path d="M66.4287 222.697C54.5646 229.477 49.4799 217.613 56.2594 209.138C63.039 200.664 71.5133 195.579 76.598 193.884C83.3775 192.189 88.4621 195.579 83.3775 207.443C79.9877 212.528 76.598 217.613 66.4287 222.697Z" fill="#86A2B0"/>
<path opacity="0.047619" d="M13.8876 166.766C-4.75605 156.597 -3.06118 136.258 17.2773 122.699C27.4466 115.92 44.3954 112.53 61.3441 117.615C79.9878 122.699 86.7673 139.648 71.5134 154.902C56.2595 168.461 32.5312 176.935 13.8876 166.766Z" fill="#F9FBFB"/>
<path opacity="0.095238" d="M15.5826 166.766C-3.06104 156.597 -1.36617 136.258 18.9723 122.699C29.1416 115.92 46.0904 112.53 63.0391 117.615C79.9879 124.394 85.0725 139.648 69.8186 154.902C56.2596 168.461 32.5314 175.241 15.5826 166.766Z" fill="#F3F6F7"/>
<path opacity="0.1429" d="M15.5825 165.071C-1.36629 156.597 0.328591 136.258 18.9722 124.394C29.1415 115.92 44.3954 114.225 61.3441 119.31C78.2929 124.394 85.0724 139.648 69.8185 153.207C56.2595 166.766 32.5312 173.546 15.5825 165.071Z" fill="#EEF2F4"/>
<path opacity="0.1905" d="M17.2772 165.071C-1.36646 156.597 0.328415 136.258 18.9721 124.394C30.8362 117.615 46.0901 114.225 61.344 119.31C78.2927 124.394 83.3774 139.648 69.8184 153.207C54.5645 166.766 34.2259 173.546 17.2772 165.071Z" fill="#E8EDF0"/>
<path opacity="0.2381" d="M17.2775 163.376C0.328722 156.597 2.0236 136.258 20.6672 124.394C30.8365 117.615 46.0904 115.92 61.3443 119.31C76.5982 124.394 83.3777 139.648 68.1238 153.207C54.5648 165.071 34.2263 171.851 17.2775 163.376Z" fill="#E2E9EC"/>
<path opacity="0.2857" d="M18.9721 163.376C2.02333 154.902 3.71821 136.258 20.667 126.089C30.8362 119.31 46.0901 117.615 59.6491 121.005C76.5979 126.089 81.6825 139.648 66.4286 153.207C54.5645 165.071 34.226 170.156 18.9721 163.376Z" fill="#DCE4E8"/>
<path opacity="0.3333" d="M18.9724 161.682C2.02361 154.902 3.71848 136.258 22.3621 126.089C32.5314 119.31 46.0904 117.615 59.6494 121.005C74.9033 126.089 79.9879 139.648 66.4289 151.512C54.5648 163.376 34.2263 168.461 18.9724 161.682Z" fill="#D7E0E5"/>
<path opacity="0.381" d="M20.6672 161.682C3.7184 154.902 5.41327 136.258 22.362 126.089C32.5313 119.31 46.0903 119.31 59.6493 122.699C74.9032 126.089 78.293 139.648 64.7339 151.512C52.8698 161.682 35.9211 168.461 20.6672 161.682Z" fill="#D1DCE1"/>
<path opacity="0.4286" d="M20.6672 159.987C3.7184 153.207 5.41327 136.258 22.362 126.089C34.2262 121.005 47.7852 119.31 59.6493 122.699C73.2083 126.089 78.293 139.648 64.7339 151.512C52.8698 161.682 35.9211 166.766 20.6672 159.987Z" fill="#CBD7DD"/>
<path opacity="0.4762" d="M22.362 159.987C5.41328 153.207 7.10816 136.258 24.0569 127.784C34.2262 121.005 47.7852 121.005 59.6493 124.394C73.2083 127.784 78.293 139.648 64.734 151.512C52.8698 159.987 35.9211 165.071 22.362 159.987Z" fill="#C5D3D9"/>
<path opacity="0.5238" d="M22.3622 158.292C7.10834 153.207 8.80321 136.258 24.0571 127.784C34.2264 122.699 47.7854 121.005 59.6495 124.394C73.2085 127.784 76.5983 139.648 63.0393 149.817C52.87 159.987 37.6161 163.376 22.3622 158.292Z" fill="#C0CED6"/>
<path opacity="0.5714" d="M24.0569 158.292C8.80302 153.207 10.4979 136.258 24.0569 129.479C34.2262 124.394 47.7852 122.699 57.9544 126.089C69.8186 129.479 74.9032 139.648 61.3442 151.512C51.1749 158.292 37.6159 163.376 24.0569 158.292Z" fill="#BACAD2"/>
<path opacity="0.619" d="M24.0566 156.597C8.80273 153.207 10.4976 136.258 25.7515 129.479C35.9208 124.394 49.4798 122.699 57.9542 126.089C69.8183 129.479 73.208 139.648 61.3439 149.817C51.1746 158.292 37.6156 161.682 24.0566 156.597Z" fill="#B4C5CE"/>
<path opacity="0.6667" d="M25.7519 156.597C10.498 153.207 12.1929 136.258 25.7519 129.479C35.9212 124.394 47.7853 124.394 57.9546 126.089C68.1238 129.479 73.2085 139.648 59.6494 149.817C51.1751 156.597 37.616 159.987 25.7519 156.597Z" fill="#AEC1CA"/>
<path opacity="0.7143" d="M25.7519 154.902C10.498 151.512 12.1929 136.258 25.7519 129.479C35.9212 124.394 47.7853 124.394 56.2597 126.089C68.1238 129.479 71.5136 139.648 59.6494 148.123C51.1751 156.597 39.3109 158.292 25.7519 154.902Z" fill="#A9BDC7"/>
<path opacity="0.7619" d="M27.4464 154.902C12.1925 151.512 13.8874 137.953 27.4464 131.174C37.6156 126.089 49.4798 126.089 57.9541 127.784C68.1234 129.479 71.5131 139.648 59.649 148.123C49.4798 154.902 39.3105 158.292 27.4464 154.902Z" fill="#A3B8C3"/>
<path opacity="0.8095" d="M27.4468 154.902C13.8878 151.512 15.5827 137.953 27.4468 132.869C37.6161 127.784 49.4802 127.784 56.2597 129.479C64.7341 131.174 68.1239 139.648 56.2597 149.817C49.4802 154.902 39.311 156.597 27.4468 154.902Z" fill="#9DB4BF"/>
<path opacity="0.8571" d="M29.1412 153.207C15.5822 151.512 17.2771 137.953 29.1412 131.174C39.3105 126.089 51.1746 126.089 57.9541 127.784C66.4285 129.479 69.8183 137.953 57.9541 146.428C49.4798 153.207 41.0054 154.902 29.1412 153.207Z" fill="#97AFBB"/>
<path opacity="0.9048" d="M29.1412 153.207C15.5822 149.817 17.2771 137.953 29.1412 132.869C39.3105 127.784 51.1746 127.784 56.2593 129.479C64.7336 131.174 68.1234 137.953 56.2593 146.428C49.4798 151.512 41.0054 153.207 29.1412 153.207Z" fill="#92ABB8"/>
<path opacity="0.9524" d="M30.8363 151.512C17.2773 149.817 18.9722 137.953 29.1414 132.869C41.0056 127.784 51.1748 129.479 56.2594 129.479C63.039 131.174 66.4287 137.953 54.5646 146.428C47.7851 151.512 41.0056 153.207 30.8363 151.512Z" fill="#8CA6B4"/>
<path d="M30.8362 151.512C17.2772 151.512 18.972 137.953 30.8362 134.564C41.0054 129.479 51.1747 129.479 56.2593 131.174C63.0388 132.869 66.4286 139.648 54.5644 146.428C47.7849 149.817 41.0054 151.512 30.8362 151.512Z" fill="#86A2B0"/>
<path opacity="0.047619" d="M171.511 209.138C168.121 188.8 185.07 176.935 208.798 183.715C220.662 187.105 234.222 198.969 239.306 215.918C246.086 234.561 237.611 249.815 215.578 246.425C196.934 244.731 174.901 229.477 171.511 209.138Z" fill="#F9FBFB"/>
<path opacity="0.095238" d="M173.206 209.138C169.816 188.8 186.765 176.935 208.799 185.41C220.663 188.8 232.527 200.664 239.306 215.918C246.086 234.561 237.611 248.12 217.273 244.731C196.934 243.036 176.596 229.477 173.206 209.138Z" fill="#F3F6F7"/>
<path opacity="0.1429" d="M173.206 209.138C169.816 188.8 186.765 176.935 208.799 185.41C220.663 188.8 232.527 200.664 237.611 215.918C244.391 232.866 235.917 246.425 215.578 244.731C196.934 241.341 178.291 227.782 173.206 209.138Z" fill="#EEF2F4"/>
<path opacity="0.1905" d="M174.901 209.138C171.511 188.8 186.765 178.63 208.798 185.41C220.663 188.8 232.527 198.969 237.611 215.918C244.391 232.866 235.916 246.425 215.578 243.036C196.934 241.341 178.291 227.782 174.901 209.138Z" fill="#E8EDF0"/>
<path opacity="0.2381" d="M176.596 209.138C171.511 190.494 188.46 178.63 208.798 185.41C220.662 188.8 230.832 198.969 237.611 214.223C242.696 231.172 235.916 243.036 217.273 239.646C198.629 239.646 179.985 227.782 176.596 209.138Z" fill="#E2E9EC"/>
<path opacity="0.2857" d="M176.596 209.138C171.511 190.494 188.46 180.325 208.798 187.105C220.662 192.189 230.832 200.664 235.916 215.918C241.001 231.172 234.221 243.036 215.578 241.341C198.629 237.951 181.68 226.087 176.596 209.138Z" fill="#DCE4E8"/>
<path opacity="0.3333" d="M178.291 209.138C173.206 190.494 190.155 180.325 208.798 187.105C220.663 192.189 230.832 200.664 235.916 215.918C241.001 231.172 235.916 243.036 215.578 239.646C198.629 237.951 181.68 226.087 178.291 209.138Z" fill="#D7E0E5"/>
<path opacity="0.381" d="M178.29 209.138C173.206 192.189 188.46 180.325 207.103 187.105C218.967 192.189 227.442 200.664 232.526 214.223C237.611 227.782 232.526 239.646 213.883 236.256C198.629 236.256 183.375 226.087 178.29 209.138Z" fill="#D1DCE1"/>
<path opacity="0.4286" d="M179.985 210.833C174.901 193.884 190.155 183.715 208.798 190.494C220.662 195.579 229.137 204.054 234.221 217.613C239.306 231.172 234.221 241.341 215.578 239.646C200.324 236.256 183.375 224.392 179.985 210.833Z" fill="#CBD7DD"/>
<path opacity="0.4762" d="M179.986 210.833C174.901 193.884 190.155 183.715 207.104 190.495C218.968 195.579 227.442 204.054 230.832 215.918C235.917 229.477 230.832 239.646 213.883 236.256C200.324 234.561 185.07 224.392 179.986 210.833Z" fill="#C5D3D9"/>
<path opacity="0.5238" d="M181.681 210.833C176.596 195.579 191.85 183.715 207.104 190.494C218.968 195.579 227.442 204.054 230.832 215.918C234.222 227.782 230.832 237.951 213.883 234.561C200.324 232.866 186.765 224.392 181.681 210.833Z" fill="#C0CED6"/>
<path opacity="0.5714" d="M183.375 210.833C178.291 195.579 191.85 185.41 208.798 192.189C220.662 197.274 227.442 205.748 230.832 217.613C234.221 229.477 230.832 237.951 213.883 236.256C200.324 232.866 186.765 224.392 183.375 210.833Z" fill="#BACAD2"/>
<path opacity="0.619" d="M183.375 210.833C178.291 195.579 191.85 185.41 207.103 192.189C217.273 197.274 225.747 205.748 229.137 215.918C232.527 227.782 230.832 236.256 213.883 232.866C202.019 231.172 188.46 222.697 183.375 210.833Z" fill="#B4C5CE"/>
<path opacity="0.6667" d="M185.07 210.833C178.291 195.579 193.545 185.41 207.104 192.189C217.273 197.274 225.747 205.748 229.137 215.918C232.527 226.087 230.832 234.561 213.883 232.866C202.019 229.477 190.155 222.697 185.07 210.833Z" fill="#AEC1CA"/>
<path opacity="0.7143" d="M185.07 210.833C178.291 197.274 191.85 187.105 207.103 193.884C217.273 198.969 224.052 207.443 227.442 217.613C230.832 227.782 229.137 234.561 213.883 232.866C202.019 229.477 190.155 222.697 185.07 210.833Z" fill="#A9BDC7"/>
<path opacity="0.7619" d="M186.765 210.833C179.986 197.274 193.545 187.105 207.104 193.884C217.273 198.969 224.052 207.443 227.442 215.918C230.832 226.087 229.137 232.866 213.883 229.477C202.019 227.782 191.85 221.002 186.765 210.833Z" fill="#A3B8C3"/>
<path opacity="0.8095" d="M186.765 210.833C179.985 197.274 193.544 188.8 205.408 193.884C215.578 198.969 222.357 207.443 224.052 215.918C225.747 224.392 225.747 231.172 210.493 229.477C203.714 226.087 193.544 221.002 186.765 210.833Z" fill="#9DB4BF"/>
<path opacity="0.8571" d="M188.46 210.833C181.68 198.969 195.239 188.8 205.409 195.579C215.578 200.664 222.357 207.443 224.052 215.918C225.747 224.392 225.747 229.477 212.188 227.782C203.714 226.087 193.544 221.002 188.46 210.833Z" fill="#97AFBB"/>
<path opacity="0.9048" d="M190.155 210.833C183.375 198.969 195.239 188.8 207.103 195.579C217.273 200.664 222.357 207.443 224.052 215.918C225.747 224.392 225.747 229.477 212.188 226.087C203.714 224.392 195.239 219.307 190.155 210.833Z" fill="#92ABB8"/>
<path opacity="0.9524" d="M190.154 210.833C183.375 198.969 195.239 190.495 205.408 195.579C215.578 200.664 220.662 207.443 222.357 215.918C224.052 222.697 225.747 227.782 210.493 226.087C203.713 224.392 196.934 219.307 190.154 210.833Z" fill="#8CA6B4"/>
<path d="M191.85 210.833C185.07 200.664 196.934 190.495 205.409 197.274C215.578 202.359 220.663 209.138 220.663 215.918C222.357 222.697 224.052 226.087 210.493 224.392C203.714 222.697 196.934 219.307 191.85 210.833Z" fill="#86A2B0"/>
<path opacity="0.047619" d="M157.952 205.748C142.698 190.495 124.054 197.274 115.58 221.002C112.19 232.866 113.885 249.815 124.054 265.069C134.224 282.018 152.867 282.018 163.036 263.374C171.511 246.425 173.206 221.002 157.952 205.748Z" fill="#F9FBFB"/>
<path opacity="0.095238" d="M157.952 207.443C142.698 192.189 124.055 198.969 117.275 222.697C113.885 234.561 115.58 251.51 124.055 265.069C134.224 280.323 151.173 282.018 161.342 263.374C171.511 246.425 171.511 221.002 157.952 207.443Z" fill="#F3F6F7"/>
<path opacity="0.1429" d="M157.952 207.443C144.393 192.189 125.749 198.969 117.275 221.002C113.885 232.866 115.58 248.12 124.055 263.374C134.224 278.628 149.478 280.323 159.647 261.679C169.816 246.425 169.816 221.002 157.952 207.443Z" fill="#EEF2F4"/>
<path opacity="0.1905" d="M156.257 209.138C142.698 193.884 124.055 200.664 117.275 222.697C113.885 234.561 115.58 249.815 124.055 263.374C134.224 278.628 149.478 280.323 157.952 261.679C168.121 244.731 169.816 222.697 156.257 209.138Z" fill="#E8EDF0"/>
<path opacity="0.2381" d="M156.257 209.138C142.698 193.884 124.055 200.664 118.97 222.697C115.58 234.561 117.275 249.815 125.75 263.374C135.919 276.933 149.478 278.628 159.647 261.679C168.121 244.731 168.121 222.697 156.257 209.138Z" fill="#E2E9EC"/>
<path opacity="0.2857" d="M156.257 210.833C144.393 195.579 125.75 202.359 118.97 222.697C115.58 234.561 117.275 248.12 125.75 261.679C135.919 275.238 149.478 276.933 157.952 259.984C166.427 244.731 166.427 224.392 156.257 210.833Z" fill="#DCE4E8"/>
<path opacity="0.3333" d="M154.562 210.833C142.698 197.274 124.055 202.359 118.97 222.697C115.58 234.561 117.275 248.12 125.75 259.984C134.224 273.543 147.783 275.238 156.257 258.29C164.732 244.731 166.427 224.392 154.562 210.833Z" fill="#D7E0E5"/>
<path opacity="0.381" d="M154.562 212.528C142.698 198.969 125.749 204.054 120.664 224.392C117.275 236.256 118.97 249.815 127.444 261.679C135.918 273.543 147.782 276.933 156.257 259.984C164.731 244.731 164.731 224.392 154.562 212.528Z" fill="#D1DCE1"/>
<path opacity="0.4286" d="M154.562 212.528C144.393 198.969 125.749 204.054 120.664 222.697C117.275 234.561 118.97 248.12 127.444 258.29C135.918 271.849 147.782 273.543 156.257 256.595C163.036 244.731 164.731 226.087 154.562 212.528Z" fill="#CBD7DD"/>
<path opacity="0.4762" d="M154.562 214.223C144.393 200.664 127.444 205.748 122.36 224.392C118.97 236.256 122.36 248.12 129.139 259.984C135.919 270.154 147.783 271.849 156.257 256.595C163.037 243.036 163.037 226.087 154.562 214.223Z" fill="#C5D3D9"/>
<path opacity="0.5238" d="M152.867 214.223C142.698 200.664 125.749 205.748 122.36 224.392C118.97 236.256 122.36 248.12 129.139 258.29C137.614 268.459 146.088 271.849 154.562 256.595C161.342 243.036 161.342 226.087 152.867 214.223Z" fill="#C0CED6"/>
<path opacity="0.5714" d="M152.867 215.918C144.393 202.359 127.444 207.443 122.36 224.392C118.97 236.256 122.36 248.12 129.139 256.595C135.919 266.764 146.088 270.154 152.867 254.9C159.647 243.036 161.342 227.782 152.867 215.918Z" fill="#BACAD2"/>
<path opacity="0.619" d="M152.868 215.918C144.393 202.359 127.444 207.443 124.055 224.392C122.36 236.256 124.055 246.425 130.834 256.595C137.614 266.764 146.088 268.459 154.562 253.205C159.647 243.036 159.647 227.782 152.868 215.918Z" fill="#B4C5CE"/>
<path opacity="0.6667" d="M151.173 217.613C142.698 204.054 125.75 209.138 124.055 224.392C122.36 236.256 124.055 246.425 130.834 254.9C137.614 263.374 144.393 266.764 152.868 251.51C157.952 243.036 157.952 227.782 151.173 217.613Z" fill="#AEC1CA"/>
<path opacity="0.7143" d="M151.173 217.613C142.698 204.054 127.444 209.138 124.055 224.392C122.36 236.256 124.055 246.425 130.834 254.9C137.614 263.374 144.393 266.764 151.173 251.51C156.257 243.036 157.952 229.477 151.173 217.613Z" fill="#A9BDC7"/>
<path opacity="0.7619" d="M151.172 219.307C144.393 205.748 127.444 210.833 125.749 226.087C124.054 237.951 125.749 248.12 132.529 254.9C139.308 263.374 144.393 265.069 151.172 251.51C156.257 241.341 156.257 229.477 151.172 219.307Z" fill="#A3B8C3"/>
<path opacity="0.8095" d="M149.477 219.307C142.698 205.748 127.444 210.833 125.749 224.392C124.054 236.256 125.749 244.731 132.529 253.205C137.613 259.984 144.393 263.374 151.172 249.815C154.562 241.341 156.257 229.477 149.477 219.307Z" fill="#9DB4BF"/>
<path opacity="0.8571" d="M149.477 221.002C142.698 207.443 127.444 212.528 125.749 226.087C124.054 237.951 125.749 246.425 132.529 253.205C137.613 259.984 142.698 263.374 149.477 249.815C152.867 241.341 154.562 231.172 149.477 221.002Z" fill="#97AFBB"/>
<path opacity="0.9048" d="M149.478 221.002C144.393 209.138 129.139 212.528 127.444 226.087C125.749 237.951 129.139 246.425 134.224 251.51C139.308 258.29 142.698 261.679 149.478 248.12C152.867 241.341 152.867 231.172 149.478 221.002Z" fill="#92ABB8"/>
<path opacity="0.9524" d="M147.783 222.697C142.698 210.833 127.444 214.223 127.444 226.087C125.749 237.951 129.139 246.425 134.224 251.51C139.308 256.595 142.698 259.984 147.783 248.12C151.173 241.341 152.867 231.172 147.783 222.697Z" fill="#8CA6B4"/>
<path d="M147.783 222.697C142.698 210.833 129.139 214.223 127.444 226.087C125.749 237.951 129.139 244.731 134.224 249.815C139.308 254.9 141.003 258.29 147.783 246.425C149.478 239.646 151.173 232.866 147.783 222.697Z" fill="#86A2B0"/>
</g>
<path d="M147.783 36.2607C147.783 51.5146 132.529 65.0736 132.529 65.0736C132.529 65.0736 118.97 51.5146 118.97 36.2607C118.97 21.0068 134.224 7.44783 134.224 7.44783C134.224 7.44783 147.783 21.0068 147.783 36.2607Z" fill="#FFE3AB"/>
<path d="M147.783 232.866C147.783 248.12 132.529 261.679 132.529 261.679C132.529 261.679 118.97 248.12 118.97 232.866C118.97 217.613 134.224 204.054 134.224 204.054C134.224 204.054 147.783 217.613 147.783 232.866Z" fill="#FFE3AB"/>
<path d="M35.9207 121.005C51.1746 121.005 64.7336 136.258 64.7336 136.258C64.7336 136.258 51.1746 149.817 35.9207 149.817C20.6668 149.817 7.10779 134.564 7.10779 134.564C7.10779 134.564 20.6668 121.005 35.9207 121.005Z" fill="#FFE3AB"/>
<path d="M232.526 121.005C247.78 121.005 261.339 136.258 261.339 136.258C261.339 136.258 249.475 151.512 232.526 151.512C217.273 151.512 203.714 136.258 203.714 136.258C203.714 136.258 217.273 121.005 232.526 121.005Z" fill="#FFE3AB"/>
<path d="M54.5644 193.884C64.7337 183.715 85.0722 183.715 85.0722 183.715C85.0722 183.715 85.0722 204.054 74.9029 214.223C63.0388 226.087 44.3952 224.392 44.3952 224.392C44.3952 224.392 42.7003 205.748 54.5644 193.884Z" fill="#FFE3AB"/>
<path d="M193.544 54.9044C205.408 43.0402 224.052 44.7351 224.052 44.7351C224.052 44.7351 225.747 63.3787 213.883 75.2429C203.713 85.4121 183.375 85.4121 183.375 85.4121C183.375 85.4121 183.375 65.0736 193.544 54.9044Z" fill="#FFE3AB"/>
<path d="M193.544 214.223C181.68 202.359 183.375 183.715 183.375 183.715C183.375 183.715 202.018 182.02 213.883 193.884C225.747 205.748 224.052 224.392 224.052 224.392C224.052 224.392 205.408 226.087 193.544 214.223Z" fill="#FFE3AB"/>
<path d="M54.5644 75.2429C42.7003 63.3787 44.3952 44.7351 44.3952 44.7351C44.3952 44.7351 63.0388 43.0402 74.9029 54.9044C85.0722 65.0736 85.0722 85.4121 85.0722 85.4121C85.0722 85.4121 64.7337 85.4121 54.5644 75.2429Z" fill="#FFE3AB"/>
<path d="M220.663 183.715C208.799 178.63 203.714 165.071 203.714 165.071C203.714 165.071 217.273 158.292 229.137 163.376C241.001 168.461 246.086 182.02 246.086 182.02C246.086 182.02 232.527 187.105 220.663 183.715Z" fill="#FFE3AB"/>
<path d="M39.3109 107.446C27.4468 102.361 22.3621 88.8019 22.3621 88.8019C22.3621 88.8019 35.9211 82.0224 47.7853 85.4121C59.6494 90.4968 64.734 104.056 64.734 104.056C64.734 104.056 49.4801 112.53 39.3109 107.446Z" fill="#FFE3AB"/>
<path d="M107.106 39.6505C112.191 51.5146 105.411 65.0736 105.411 65.0736C105.411 65.0736 90.1574 59.989 85.0728 48.1249C81.683 36.2607 88.4625 22.7017 88.4625 22.7017C88.4625 22.7017 102.022 27.7864 107.106 39.6505Z" fill="#FFE3AB"/>
<path d="M183.375 221.002C188.46 232.866 181.68 246.425 181.68 246.425C181.68 246.425 166.426 241.341 163.037 229.477C157.952 217.612 164.731 204.053 164.731 204.053C164.731 204.053 178.29 209.138 183.375 221.002Z" fill="#FFE3AB"/>
<path d="M39.3109 161.682C51.1751 156.597 64.7341 163.376 64.7341 163.376C64.7341 163.376 59.6495 178.63 47.7853 182.02C35.9212 187.105 22.3622 180.325 22.3622 180.325C22.3622 180.325 27.4468 166.766 39.3109 161.682Z" fill="#FFE3AB"/>
<path d="M220.663 85.4122C232.527 80.3275 246.086 87.107 246.086 87.107C246.086 87.107 241.001 102.361 229.137 105.751C218.968 112.53 203.714 105.751 203.714 105.751C203.714 105.751 208.799 90.4968 220.663 85.4122Z" fill="#FFE3AB"/>
<path d="M85.0726 221.002C90.1572 209.138 103.716 204.053 103.716 204.053C103.716 204.053 110.496 217.613 105.411 229.477C100.326 241.341 86.7675 246.425 86.7675 246.425C86.7675 246.425 81.6828 232.866 85.0726 221.002Z" fill="#FFE3AB"/>
<path d="M161.342 39.6505C166.427 27.7864 179.986 22.7017 179.986 22.7017C179.986 22.7017 186.765 36.2607 181.681 48.1249C176.596 59.989 163.037 65.0736 163.037 65.0736C163.037 65.0736 156.258 49.8197 161.342 39.6505Z" fill="#FFE3AB"/>
<path d="M149.478 37.9556C149.478 53.2095 135.919 65.0736 135.919 65.0736C135.919 65.0736 120.665 53.2095 120.665 37.9556C120.665 21.0069 135.919 9.14272 135.919 9.14272C135.919 9.14272 149.478 21.0069 149.478 37.9556Z" fill="url(#paint0_linear_2_3092)"/>
<path d="M149.478 234.561C149.478 249.815 134.224 263.374 134.224 263.374C134.224 263.374 118.97 251.51 118.97 234.561C118.97 219.307 134.224 205.748 134.224 205.748C134.224 205.748 149.478 219.307 149.478 234.561Z" fill="url(#paint1_linear_2_3092)"/>
<path d="M37.6157 121.005C52.8696 121.005 64.7337 136.258 64.7337 136.258C64.7337 136.258 52.8696 149.817 37.6157 149.817C20.6669 149.817 8.8028 136.258 8.8028 136.258C8.8028 136.258 20.6669 121.005 37.6157 121.005Z" fill="url(#paint2_linear_2_3092)"/>
<path d="M234.221 121.005C249.475 121.005 263.034 136.258 263.034 136.258C263.034 136.258 251.17 151.512 234.221 151.512C218.968 151.512 205.409 136.258 205.409 136.258C205.409 136.258 218.968 121.005 234.221 121.005Z" fill="url(#paint3_linear_2_3092)"/>
<path d="M56.2594 195.579C66.4287 183.715 85.0723 185.41 85.0723 185.41C85.0723 185.41 86.7672 204.054 74.903 215.918C63.0389 227.782 44.3953 226.087 44.3953 226.087C44.3953 226.087 44.3953 205.748 56.2594 195.579Z" fill="url(#paint4_linear_2_3092)"/>
<path d="M195.239 56.5993C207.103 44.7351 225.747 46.43 225.747 46.43C225.747 46.43 227.442 65.0737 215.578 76.9378C203.713 87.1071 185.07 85.4122 185.07 85.4122C185.07 85.4122 183.375 66.7685 195.239 56.5993Z" fill="url(#paint5_linear_2_3092)"/>
<path d="M195.239 215.918C183.375 204.054 185.07 185.41 185.07 185.41C185.07 185.41 203.713 183.715 215.578 195.579C227.442 207.443 225.747 226.087 225.747 226.087C225.747 226.087 205.408 227.782 195.239 215.918Z" fill="url(#paint6_linear_2_3092)"/>
<path d="M56.2594 76.9378C44.3953 65.0737 46.0902 46.43 46.0902 46.43C46.0902 46.43 64.7338 44.7351 76.5979 56.5993C86.7672 66.7685 85.0723 85.4122 85.0723 85.4122C85.0723 85.4122 66.4287 87.1071 56.2594 76.9378Z" fill="url(#paint7_linear_2_3092)"/>
<path d="M222.357 183.715C210.493 178.63 205.409 165.071 205.409 165.071C205.409 165.071 218.968 158.292 230.832 163.376C242.696 168.461 247.78 182.02 247.78 182.02C247.78 182.02 234.221 188.8 222.357 183.715Z" fill="url(#paint8_linear_2_3092)"/>
<path d="M39.3109 109.14C27.4468 104.056 22.3622 90.4968 22.3622 90.4968C22.3622 90.4968 35.9212 83.7173 47.7853 88.8019C59.6495 93.8865 64.7341 107.446 64.7341 107.446C64.7341 107.446 51.1751 114.225 39.3109 109.14Z" fill="url(#paint9_linear_2_3092)"/>
<path d="M108.801 39.6505C113.885 51.5146 107.106 65.0736 107.106 65.0736C107.106 65.0736 91.8521 59.989 88.4623 48.1248C81.6828 37.9556 88.4623 24.3966 88.4623 24.3966C88.4623 24.3966 103.716 29.4812 108.801 39.6505Z" fill="url(#paint10_linear_2_3092)"/>
<path d="M183.375 222.697C188.46 234.561 181.68 248.12 181.68 248.12C181.68 248.12 166.426 243.036 163.037 231.172C157.952 219.307 164.731 205.748 164.731 205.748C164.731 205.748 179.985 210.833 183.375 222.697Z" fill="url(#paint11_linear_2_3092)"/>
<path d="M39.3109 163.376C51.1751 158.292 64.7341 165.071 64.7341 165.071C64.7341 165.071 59.6495 180.325 47.7853 183.715C35.9212 188.8 22.3622 182.02 22.3622 182.02C22.3622 182.02 29.1417 168.461 39.3109 163.376Z" fill="url(#paint12_linear_2_3092)"/>
<path d="M222.357 87.107C234.221 82.0224 247.78 88.8019 247.78 88.8019C247.78 88.8019 242.696 104.056 230.832 107.446C218.968 112.53 205.409 105.751 205.409 105.751C205.409 105.751 210.493 92.1916 222.357 87.107Z" fill="url(#paint13_linear_2_3092)"/>
<path d="M86.7671 222.697C91.8518 210.833 105.411 205.748 105.411 205.748C105.411 205.748 112.19 219.307 107.106 231.172C102.021 243.036 88.462 248.12 88.462 248.12C88.462 248.12 81.6825 234.561 86.7671 222.697Z" fill="url(#paint14_linear_2_3092)"/>
<path d="M163.037 39.6505C168.121 27.7864 181.68 22.7017 181.68 22.7017C181.68 22.7017 188.46 36.2607 183.375 48.1249C178.29 59.989 164.731 65.0736 164.731 65.0736C164.731 65.0736 157.952 51.5146 163.037 39.6505Z" fill="url(#paint15_linear_2_3092)"/>
<g style="mix-blend-mode:multiply">
<path opacity="0.047619" d="M224.053 234.561C185.07 268.459 130.834 275.238 81.6829 246.425C17.2776 207.443 30.8366 153.207 59.6495 151.512C88.4624 149.817 113.886 161.682 134.224 139.648C156.257 115.92 156.257 90.4968 161.342 65.0736C168.122 34.5659 205.409 26.0915 244.391 68.4634C286.763 114.225 274.899 192.189 224.053 234.561Z" fill="#F9FBFB"/>
<path opacity="0.095238" d="M222.357 232.866C185.07 265.069 132.529 271.849 85.0724 244.731C20.6671 207.443 34.2261 154.902 61.3441 153.207C90.157 151.512 115.58 163.376 135.919 141.343C157.952 117.615 157.952 92.1916 163.037 66.7685C168.121 37.9556 203.714 29.4812 242.696 71.8531C283.373 115.92 271.509 190.494 222.357 232.866Z" fill="#F3F6F7"/>
<path opacity="0.1429" d="M222.358 229.477C185.07 261.679 134.224 268.459 88.4624 243.036C27.4469 207.443 37.6161 156.597 64.7341 154.902C90.1573 153.207 117.275 165.071 139.309 143.038C161.342 117.615 159.647 93.8865 164.732 68.4634C169.816 41.3454 203.714 32.871 241.001 73.548C279.983 115.92 269.814 188.8 222.358 229.477Z" fill="#EEF2F4"/>
<path opacity="0.1905" d="M220.663 227.782C185.07 258.29 135.919 266.764 90.1571 241.341C29.1415 207.443 37.6159 158.292 64.7339 156.597C90.157 154.902 118.97 168.461 141.003 143.038C163.037 119.31 161.342 95.5814 166.426 70.1582C171.511 43.0402 203.714 34.5658 239.306 75.2429C276.593 115.92 266.424 187.105 220.663 227.782Z" fill="#E8EDF0"/>
<path opacity="0.2381" d="M218.968 224.392C183.376 254.9 137.614 263.374 93.5471 239.646C34.2265 209.138 41.006 159.987 66.4291 158.292C91.8523 156.597 118.97 170.156 142.699 144.733C164.732 121.005 163.037 97.2763 168.122 71.8531C171.511 46.43 205.409 37.9556 239.307 76.9378C273.204 117.615 264.73 185.41 218.968 224.392Z" fill="#E2E9EC"/>
<path opacity="0.2857" d="M217.273 222.697C183.375 253.205 137.614 259.984 95.2417 237.951C37.6159 209.138 44.3954 163.376 68.1237 159.987C91.852 158.292 120.665 173.546 144.393 146.428C166.427 121.005 164.732 98.9712 168.121 73.548C171.511 48.1249 203.714 41.3454 235.916 78.6327C269.814 117.615 261.34 183.715 217.273 222.697Z" fill="#DCE4E8"/>
<path opacity="0.3333" d="M217.273 219.307C185.07 248.12 141.003 256.595 100.326 236.256C44.3955 209.138 47.7853 165.071 71.5135 161.682C93.5469 159.987 124.055 175.241 147.783 148.123C168.121 122.699 166.427 100.666 169.816 76.9378C173.206 51.5146 203.714 44.7351 234.222 82.0224C266.424 119.31 259.645 182.02 217.273 219.307Z" fill="#D7E0E5"/>
<path opacity="0.381" d="M215.578 217.613C183.375 246.425 142.698 253.205 102.021 236.256C46.0902 210.833 49.4799 168.461 71.5133 165.071C91.8518 163.376 122.36 180.325 147.783 149.817C169.816 124.394 168.121 102.361 171.511 78.6326C174.901 54.9044 203.714 48.1249 232.527 83.7173C263.034 119.31 256.255 180.325 215.578 217.613Z" fill="#D1DCE1"/>
<path opacity="0.4286" d="M213.883 214.223C183.375 241.341 142.698 249.815 103.716 232.866C51.1748 209.138 51.1748 168.461 73.2082 165.071C93.5467 163.376 124.054 180.325 151.172 149.817C173.206 124.394 171.511 102.361 173.206 78.6326C174.901 56.5992 203.714 51.5146 230.832 85.4121C259.645 119.31 254.56 178.63 213.883 214.223Z" fill="#CBD7DD"/>
<path opacity="0.4762" d="M212.188 212.528C183.375 239.646 144.393 248.12 107.106 232.866C54.5647 210.833 54.5647 170.156 74.9032 168.461C93.5468 166.766 125.749 183.715 152.867 153.207C174.901 127.784 171.511 105.751 173.206 83.7173C174.901 61.6839 202.019 54.9044 229.137 88.8019C256.255 121.005 251.17 176.935 212.188 212.528Z" fill="#C5D3D9"/>
<path opacity="0.5238" d="M212.188 209.138C183.375 234.561 147.783 243.036 110.495 229.477C59.6492 209.138 56.2594 171.851 76.598 168.461C93.5467 165.071 127.444 185.41 154.562 153.207C176.596 127.784 173.206 105.751 174.901 83.7173C176.596 61.6839 202.019 56.5992 227.442 90.4968C252.865 121.005 249.475 175.241 212.188 209.138Z" fill="#C0CED6"/>
<path opacity="0.5714" d="M210.494 207.443C183.376 232.866 147.783 241.341 113.886 229.477C64.7343 212.528 59.6496 175.241 78.2933 171.851C95.242 168.461 129.14 188.8 156.258 154.902C178.291 129.479 174.901 107.446 176.596 85.4121C176.596 65.0736 202.019 59.989 225.748 92.1917C249.476 122.699 246.086 173.546 210.494 207.443Z" fill="#BACAD2"/>
<path opacity="0.619" d="M208.798 204.054C183.375 229.477 149.478 237.951 115.58 226.087C66.4287 210.833 61.3441 175.241 79.9877 171.851C95.2416 168.461 129.139 190.494 159.647 154.902C181.68 129.479 178.291 109.14 178.291 87.107C178.291 66.7685 202.019 61.6839 225.747 93.8865C246.086 122.699 244.391 171.851 208.798 204.054Z" fill="#B4C5CE"/>
<path opacity="0.6667" d="M208.798 202.359C183.375 226.087 152.867 234.561 118.97 226.087C71.5134 212.528 64.7339 178.63 81.6827 175.241C95.2417 171.851 130.834 193.884 161.342 158.292C183.375 131.174 179.985 112.53 179.985 90.4968C179.985 70.1583 202.019 66.7685 224.052 97.2763C242.696 122.699 241.001 170.156 208.798 202.359Z" fill="#AEC1CA"/>
<path opacity="0.7143" d="M207.104 198.969C183.376 222.697 154.563 231.172 122.36 224.392C76.5983 212.528 68.124 180.325 83.3778 176.935C96.9369 173.546 132.529 197.274 163.037 159.987C185.07 132.869 181.681 114.225 179.986 92.1917C179.986 73.548 200.324 68.4634 220.663 98.9712C239.306 124.394 239.306 168.461 207.104 198.969Z" fill="#A9BDC7"/>
<path opacity="0.7619" d="M205.409 197.274C183.376 219.307 154.563 229.477 124.055 222.697C79.9881 212.528 69.8188 182.02 85.0727 178.63C96.9368 175.241 134.224 198.969 164.732 159.987C186.765 132.869 183.376 114.225 181.681 93.8866C179.986 75.2429 202.019 71.8532 218.968 100.666C234.222 124.394 235.917 165.071 205.409 197.274Z" fill="#A3B8C3"/>
<path opacity="0.8095" d="M203.714 193.884C181.681 215.918 156.258 226.087 127.445 221.002C83.3779 214.223 73.2086 185.41 86.7676 180.325C98.6318 176.935 135.919 202.359 166.427 161.682C188.46 134.564 183.376 115.92 181.681 95.5814C179.986 78.6326 200.324 75.2429 217.273 102.361C230.832 126.089 234.222 163.376 203.714 193.884Z" fill="#9DB4BF"/>
<path opacity="0.8571" d="M203.714 192.189C183.375 214.223 159.647 222.697 130.834 219.307C88.4621 214.223 74.9031 187.105 88.4621 182.02C98.6313 178.63 135.919 204.054 169.816 163.376C191.85 136.258 186.765 117.615 185.07 98.9712C183.375 82.0224 202.019 78.6326 217.273 105.751C227.442 126.089 230.832 161.682 203.714 192.189Z" fill="#97AFBB"/>
<path opacity="0.9048" d="M202.019 188.8C183.376 209.138 159.647 219.307 132.529 217.613C91.8523 214.223 76.5984 188.8 90.1574 183.715C98.6318 180.325 137.614 207.443 171.511 165.071C193.545 137.953 188.46 119.31 186.765 100.666C185.07 85.4122 202.019 82.0224 215.578 107.446C225.748 126.089 229.137 159.987 202.019 188.8Z" fill="#92ABB8"/>
<path opacity="0.9524" d="M200.324 187.105C181.68 207.443 161.342 217.613 135.919 215.918C96.9364 214.223 79.9877 190.494 91.8518 185.41C100.326 182.02 139.308 209.138 173.206 165.071C195.239 137.953 190.155 119.31 186.765 100.666C185.07 85.4122 200.324 82.0224 212.188 107.446C222.357 127.784 225.747 158.292 200.324 187.105Z" fill="#8CA6B4"/>
<path d="M198.629 183.715C181.68 202.359 163.037 212.528 137.614 214.223C100.326 215.918 81.6828 192.189 91.852 187.105C98.6315 183.715 139.309 212.528 173.206 166.766C195.239 139.648 190.155 121.005 186.765 104.056C183.375 90.4968 200.324 87.107 210.493 112.53C218.968 127.784 224.052 156.597 198.629 183.715Z" fill="#86A2B0"/>
</g>
<path d="M213.883 134.564C213.883 178.63 178.291 214.223 134.224 214.223C90.1571 214.223 54.5647 178.63 54.5647 134.564C54.5647 90.4968 90.1571 54.9044 134.224 54.9044C178.291 54.9044 213.883 90.4968 213.883 134.564Z" fill="#FFE3AB"/>
<path d="M215.578 136.258C215.578 180.325 179.986 215.918 135.919 215.918C91.852 215.918 56.2596 180.325 56.2596 136.258C56.2596 92.1916 91.852 54.9044 135.919 54.9044C179.986 54.9044 215.578 92.1916 215.578 136.258Z" fill="url(#paint16_linear_2_3092)"/>
<defs>
<linearGradient id="paint0_linear_2_3092" x1="121.334" y1="23.1238" x2="149.651" y2="51.4401" gradientUnits="userSpaceOnUse">
<stop stop-color="#FFD45C"/>
<stop offset="1" stop-color="#FF9D00"/>
</linearGradient>
<linearGradient id="paint1_linear_2_3092" x1="121.336" y1="220.468" x2="149.649" y2="248.783" gradientUnits="userSpaceOnUse">
<stop stop-color="#FFD45C"/>
<stop offset="1" stop-color="#FF9D00"/>
</linearGradient>
<linearGradient id="paint2_linear_2_3092" x1="22.655" y1="121.789" x2="50.9713" y2="150.109" gradientUnits="userSpaceOnUse">
<stop stop-color="#FFD45C"/>
<stop offset="1" stop-color="#FF9D00"/>
</linearGradient>
<linearGradient id="paint3_linear_2_3092" x1="220.007" y1="121.789" x2="248.323" y2="150.109" gradientUnits="userSpaceOnUse">
<stop stop-color="#FFD45C"/>
<stop offset="1" stop-color="#FF9D00"/>
</linearGradient>
<linearGradient id="paint4_linear_2_3092" x1="55.5059" y1="195.519" x2="75.931" y2="215.944" gradientUnits="userSpaceOnUse">
<stop stop-color="#FFD45C"/>
<stop offset="1" stop-color="#FF9D00"/>
</linearGradient>
<linearGradient id="paint5_linear_2_3092" x1="195.053" y1="55.972" x2="215.478" y2="76.3971" gradientUnits="userSpaceOnUse">
<stop stop-color="#FFD45C"/>
<stop offset="1" stop-color="#FF9D00"/>
</linearGradient>
<linearGradient id="paint6_linear_2_3092" x1="185.289" y1="185.75" x2="225.243" y2="225.704" gradientUnits="userSpaceOnUse">
<stop stop-color="#FFD45C"/>
<stop offset="1" stop-color="#FF9D00"/>
</linearGradient>
<linearGradient id="paint7_linear_2_3092" x1="45.7423" y1="46.2025" x2="85.6985" y2="86.1588" gradientUnits="userSpaceOnUse">
<stop stop-color="#FFD45C"/>
<stop offset="1" stop-color="#FF9D00"/>
</linearGradient>
<linearGradient id="paint8_linear_2_3092" x1="211.888" y1="158.951" x2="241.416" y2="188.479" gradientUnits="userSpaceOnUse">
<stop stop-color="#FFBB31"/>
<stop offset="1" stop-color="#FF9D00"/>
</linearGradient>
<linearGradient id="paint9_linear_2_3092" x1="29.5586" y1="83.4257" x2="59.0868" y2="112.954" gradientUnits="userSpaceOnUse">
<stop stop-color="#FFBB31"/>
<stop offset="1" stop-color="#FF9D00"/>
</linearGradient>
<linearGradient id="paint10_linear_2_3092" x1="82.9658" y1="30.0185" x2="112.497" y2="59.55" gradientUnits="userSpaceOnUse">
<stop stop-color="#FFBB31"/>
<stop offset="1" stop-color="#FF9D00"/>
</linearGradient>
<linearGradient id="paint11_linear_2_3092" x1="158.481" y1="212.341" x2="188.016" y2="241.878" gradientUnits="userSpaceOnUse">
<stop stop-color="#FFBB31"/>
<stop offset="1" stop-color="#FF9D00"/>
</linearGradient>
<linearGradient id="paint12_linear_2_3092" x1="35.5805" y1="164.963" x2="53.075" y2="182.457" gradientUnits="userSpaceOnUse">
<stop stop-color="#FFBB31"/>
<stop offset="1" stop-color="#FF9D00"/>
</linearGradient>
<linearGradient id="paint13_linear_2_3092" x1="217.908" y1="89.4341" x2="235.41" y2="106.935" gradientUnits="userSpaceOnUse">
<stop stop-color="#FFBB31"/>
<stop offset="1" stop-color="#FF9D00"/>
</linearGradient>
<linearGradient id="paint14_linear_2_3092" x1="88.979" y1="218.363" x2="106.48" y2="235.865" gradientUnits="userSpaceOnUse">
<stop stop-color="#FFBB31"/>
<stop offset="1" stop-color="#FF9D00"/>
</linearGradient>
<linearGradient id="paint15_linear_2_3092" x1="164.496" y1="36.037" x2="181.999" y2="53.54" gradientUnits="userSpaceOnUse">
<stop stop-color="#FFBB31"/>
<stop offset="1" stop-color="#FF9D00"/>
</linearGradient>
<linearGradient id="paint16_linear_2_3092" x1="78.6065" y1="79.0682" x2="192.372" y2="192.833" gradientUnits="userSpaceOnUse">
<stop stop-color="#FFD45C"/>
<stop offset="1" stop-color="#FF9D00"/>
</linearGradient>
</defs>
</svg>
